<svg width="300" height="376" viewBox="0 0 300 376" fill="none" xmlns="http://www.w3.org/2000/svg">
<path d="M259.609 99.8157C274.052 126.999 254.59 172.201 243.041 217.782C231.491 263.363 227.727 309.07 200.484 332.236C173.246 355.469 122.47 356.033 80.9831 336.38C39.4961 316.727 7.29759 276.988 1.77772 235.863C-3.74215 194.739 17.2812 152.34 46.1533 121.915C75.0254 91.4905 111.597 72.9439 154.172 68.2982C196.747 63.6525 245.112 72.691 259.609 99.8157Z" fill="#F2F2F2"/>
<path d="M286.677 19.4529L199.018 38.2659V19.9044L286.315 1.17261L299.305 7.93572L286.677 19.4529Z" fill="#273477"/>
<path d="M199.017 19.9045L110.383 0.883789L98.7344 7.58821L109.368 19.0286L199.017 38.266V19.9045Z" fill="#273477"/>
<path d="M27.6663 291.874C27.215 298.126 24.5069 326.375 26.3574 335.084H106.696L98.4317 293.327L27.6663 291.874Z" fill="#344392"/>
<path d="M79.6611 196.861C89.6943 190.156 114.026 216.938 115.127 224.897C112.672 228.96 95.3586 240.97 88.9857 240.302C82.2472 234.861 69.9798 203.326 79.6611 196.861Z" fill="#D1E1B5"/>
<path d="M199.018 9.14575V370.494" stroke="#DBE7C8" stroke-width="10.2521" stroke-linecap="round" stroke-linejoin="round"/>
<path d="M57.3245 184.437C71.6261 184.437 81.7784 190.313 88.9343 199.384C96.1061 208.475 100.282 220.795 102.548 233.673C107.043 259.22 103.993 286.776 102.149 295.121C98.5397 297.094 92.9776 298.531 86.398 299.432C79.7204 300.346 72.0416 300.702 64.3907 300.527C56.7398 300.352 49.1282 299.645 42.5849 298.437C36.1364 297.246 30.7743 295.578 27.428 293.484C24.8461 279.872 23.417 252.625 27.1031 228.744C28.9553 216.744 32.093 205.638 36.9932 197.544C41.8862 189.463 48.4986 184.437 57.3245 184.437Z" fill="#D5E3BD" stroke="#DBE7C8" stroke-width="0.932011"/>
<path d="M12.493 231.845C10.8772 237.263 5.30318 280.153 13.847 286.627C22.3909 293.101 54.0748 269.58 59.7301 264.731C65.3854 259.882 58.5972 251.886 52.5809 253.579C46.5646 255.272 33.8233 259.724 31.4763 261.178C33.733 256.004 37.935 241.624 37.8943 237.665C37.8537 233.705 12.493 231.845 12.493 231.845Z" fill="#E49D75"/>
<path d="M176.013 278.366L60.2578 309.964V222.089L176.013 190.49V278.366Z" fill="#E0E0E0"/>
<path d="M199.017 38.5593L111.236 57.3949L98.7344 50.8078L107.775 39.7783L199.017 20.1978V38.5593Z" fill="#344392"/>
<path d="M287.886 39.2681L199.018 20.1978V38.5593L286.803 57.3949L299.305 50.4647L287.886 39.2681Z" fill="#344392"/>
<path d="M32.2705 147.812C44.5594 147.812 54.5215 137.847 54.5215 125.554C54.5215 113.262 44.5594 103.297 32.2705 103.297C19.9816 103.297 10.0195 113.262 10.0195 125.554C10.0195 137.847 19.9816 147.812 32.2705 147.812Z" fill="black"/>
<path d="M64.0712 178.986C78.5287 178.986 90.2488 167.263 90.2488 152.801C90.2488 138.339 78.5287 126.615 64.0712 126.615C49.6137 126.615 37.8936 138.339 37.8936 152.801C37.8936 167.263 49.6137 178.986 64.0712 178.986Z" fill="#E49D75"/>
<path d="M46.4292 172.142C63.1287 158.973 66.8342 138.096 67.2991 126.818C66.2284 126.687 65.1508 126.619 64.072 126.615C58.7931 126.616 53.6379 128.213 49.2827 131.197C44.9276 134.181 41.5761 138.413 39.6682 143.336C37.7602 148.26 37.3848 153.645 38.5914 158.786C39.798 163.927 42.5301 168.582 46.4292 172.142Z" fill="black"/>
<path d="M79.1777 137.952C81.2049 137.952 83.2274 137.756 85.2166 137.365C81.9831 132.937 77.4431 129.636 72.2355 127.924C67.0279 126.213 61.4149 126.178 56.1865 127.825C59.1039 131.02 62.6555 133.57 66.6144 135.314C70.5732 137.058 74.8521 137.956 79.1777 137.952Z" fill="black"/>
<path d="M70.264 192.504C70.264 195.912 51.6553 195.84 51.6553 192.504V167.979H70.264V192.504Z" fill="#E49D75"/>
<path d="M33.1506 194.504C45.0433 196.549 44.2625 232.726 39.5821 239.258C35.0011 240.527 14.1853 237.308 10.0195 232.437C8.87758 223.854 21.6775 192.526 33.1506 194.504Z" fill="#DBE7C8"/>
<path d="M62.6096 265.462C68.6569 265.462 73.5591 259.659 73.5591 252.5C73.5591 245.342 68.6569 239.539 62.6096 239.539C56.5624 239.539 51.6602 245.342 51.6602 252.5C51.6602 259.659 56.5624 265.462 62.6096 265.462Z" fill="#E49D75"/>
<path d="M173.851 237.489C177.393 237.489 180.265 232.745 180.265 226.893C180.265 221.041 177.393 216.297 173.851 216.297C170.309 216.297 167.438 221.041 167.438 226.893C167.438 232.745 170.309 237.489 173.851 237.489Z" fill="#E49D75"/>
</svg>
