<svg width="27" height="26" viewBox="0 0 27 26" fill="none" xmlns="http://www.w3.org/2000/svg">
<g clip-path="url(#clip0)">
<path d="M0.5 33.2222H26.5L17.5625 17.4365H9.4375L0.5 33.2222Z" fill="#B0BDC2"/>
<path d="M2.9375 33.2222H24.0625L15.9375 17.4365H11.0625L2.9375 33.2222Z" fill="#3F5F6F"/>
<path d="M5.375 33.2222H21.625L14.3125 17.4365H12.6875L5.375 33.2222Z" fill="#667F8A"/>
<path d="M22.7858 32.2937C22.7858 32.8072 22.3707 33.2222 21.8572 33.2222H5.14293C4.63036 33.2222 4.21436 32.8072 4.21436 32.2937C4.21436 31.7802 4.63036 31.3651 5.14293 31.3651H21.8572C22.3707 31.3651 22.7858 31.7802 22.7858 32.2937ZM20.9286 28.5794C20.9286 29.0929 20.5136 29.508 20.0001 29.508H7.00007C6.4875 29.508 6.0715 29.0929 6.0715 28.5794C6.0715 28.0659 6.4875 27.6508 7.00007 27.6508H20.0001C20.5136 27.6508 20.9286 28.0659 20.9286 28.5794ZM19.0715 24.8651C19.0715 25.3786 18.6564 25.7937 18.1429 25.7937H8.85721C8.34464 25.7937 7.92864 25.3786 7.92864 24.8651C7.92864 24.3516 8.34464 23.9365 8.85721 23.9365H18.1429C18.6564 23.9365 19.0715 24.3516 19.0715 24.8651Z" fill="#B0BDC2"/>
<path d="M6.90332 21.9122C7.81703 23.0506 9.02975 23.9365 10.2499 23.9365H16.7499C17.9691 23.9365 19.1827 23.0497 20.0965 21.9122L18.0257 18.2555C16.9217 18.3456 15.4675 18.3651 13.4999 18.3651C11.497 18.3651 10.027 18.3864 8.91553 18.3576L6.90332 21.9122Z" fill="#3F5F6F"/>
<path d="M14.4284 2.57937C14.4284 3.09194 14.0124 3.50794 13.4999 3.50794C12.9873 3.50794 12.5713 3.09194 12.5713 2.57937V1.6508C12.5713 1.13823 12.9873 0.722229 13.4999 0.722229C14.0124 0.722229 14.4284 1.13823 14.4284 1.6508V2.57937Z" fill="#131E26"/>
<path d="M17.2147 4.43661C17.2147 5.46175 16.3827 6.29375 15.3576 6.29375H11.6433C10.6181 6.29375 9.78613 5.46175 9.78613 4.43661C9.78613 3.41147 10.6181 2.57947 11.6433 2.57947H15.3576C16.3827 2.57947 17.2147 3.41147 17.2147 4.43661Z" fill="#3F5F6F"/>
<path d="M21.8569 16.5079C21.8569 18.5591 18.6886 21.1508 16.8426 21.1508H10.1569C8.31086 21.1508 5.14258 18.5591 5.14258 16.5079V7.22222C5.14258 5.17101 6.63944 3.50793 8.48544 3.50793H18.514C20.36 3.50793 21.8569 5.17101 21.8569 7.22222V16.5079Z" fill="#D5DDE0"/>
<path d="M20 14.6507C20 16.702 18.3369 18.365 16.2857 18.365H10.7143C8.66307 18.365 7 16.702 7 14.6507V10.0079C7 7.95667 8.66307 7.22217 10.7143 7.22217H16.2857C18.3369 7.22217 20 7.95667 20 10.0079V14.6507Z" fill="#667F8A"/>
<path d="M10.7143 13.7223H16.2857C18.3369 13.7223 20 12.0593 20 10.008V9.07947H7V10.008C7 12.0593 8.66307 13.7223 10.7143 13.7223Z" fill="#6AC8C2"/>
<path d="M13.4997 18.3651C7.64972 18.3651 6.18444 16.6928 5.14258 15.3547V16.508C5.14258 18.5592 7.64972 22.0794 10.1569 22.0794H16.8426C19.3497 22.0794 21.8569 18.5592 21.8569 16.508V14.7521C20.8159 16.3585 19.3497 18.3651 13.4997 18.3651Z" fill="#BF2A46"/>
<path d="M10.7144 16.0436C10.7144 16.8125 10.0904 17.4365 9.32157 17.4365C8.55178 17.4365 7.92871 16.8125 7.92871 16.0436C7.92871 15.2738 8.55178 14.6508 9.32157 14.6508C10.0904 14.6508 10.7144 15.2738 10.7144 16.0436ZM19.0716 16.0436C19.0716 16.8125 18.4476 17.4365 17.6787 17.4365C16.9099 17.4365 16.2859 16.8125 16.2859 16.0436C16.2859 15.2738 16.9099 14.6508 17.6787 14.6508C18.4476 14.6508 19.0716 15.2738 19.0716 16.0436Z" fill="#EDCB1C"/>
<path d="M20 9.0794V7.22226C20 6.19711 19.168 5.36511 18.1429 5.36511H8.85714C7.832 5.36511 7 6.19711 7 7.22226V9.0794H20Z" fill="#131E26"/>
<path d="M16.2853 7.22227C16.2853 7.73484 15.8702 8.15084 15.3567 8.15084H11.6424C11.1299 8.15084 10.7139 7.73484 10.7139 7.22227C10.7139 6.7097 11.1299 6.2937 11.6424 6.2937H15.3567C15.8702 6.2937 16.2853 6.7097 16.2853 7.22227Z" fill="#667F8A"/>
<g clip-path="url(#clip1)">
<path d="M13.9783 18.3627L15.6352 16.706C15.7673 16.5738 15.7673 16.3594 15.6352 16.2273C15.5029 16.095 15.2886 16.095 15.1565 16.2273L13.4996 17.884L11.8429 16.2273C11.7108 16.095 11.4963 16.095 11.3642 16.2273C11.2319 16.3594 11.2319 16.5738 11.3642 16.706L13.0209 18.3627L11.3605 20.0233C11.2282 20.1556 11.2282 20.3698 11.3605 20.502C11.4265 20.5681 11.5132 20.6011 11.5999 20.6011C11.6865 20.6011 11.7732 20.5681 11.8393 20.502L13.4998 18.8414L15.1565 20.498C15.2225 20.5641 15.3092 20.5972 15.3959 20.5972C15.4825 20.5972 15.5691 20.5641 15.6353 20.498C15.7675 20.3657 15.7675 20.1515 15.6353 20.0194L13.9783 18.3627Z" fill="#F5FAFA"/>
</g>
</g>
<defs>
<clipPath id="clip0">
<rect width="26" height="26" fill="white" transform="translate(0.5)"/>
</clipPath>
<clipPath id="clip1">
<rect width="4.875" height="4.875" fill="white" transform="translate(11.0625 15.9249)"/>
</clipPath>
</defs>
</svg>
