<svg width="36" height="36" viewBox="0 0 36 36" fill="none" xmlns="http://www.w3.org/2000/svg">
<g id="Indicator">
<path id="Ellipse " d="M32.7073 22.2177C34.1407 22.6287 34.9876 24.1361 34.367 25.492C33.4673 27.4574 32.2178 29.2517 30.6723 30.7838C28.485 32.952 25.7781 34.5228 22.8103 35.3458C19.8425 36.1689 16.7132 36.2166 13.7217 35.4846C10.7301 34.7526 7.97645 33.2652 5.72403 31.1648C3.47161 29.0644 1.7958 26.4212 0.856877 23.488C-0.0820417 20.5548 -0.252655 17.4298 0.361357 14.4118C0.975369 11.3939 2.35347 8.58394 4.36383 6.25079C5.78442 4.60212 7.48714 3.2305 9.38506 2.19594C10.6944 1.48226 12.2571 2.22193 12.7671 3.62317C13.2771 5.02441 12.532 6.55124 11.2713 7.34756C10.2216 8.01055 9.27153 8.82769 8.45468 9.7757C7.04743 11.4089 6.08276 13.3759 5.65295 15.4884C5.22314 17.601 5.34257 19.7885 5.99981 21.8418C6.65706 23.895 7.83013 25.7452 9.40682 27.2155C10.9835 28.6858 12.9111 29.727 15.0052 30.2394C17.0992 30.7518 19.2898 30.7183 21.3672 30.1422C23.4447 29.5661 25.3395 28.4666 26.8706 26.9488C27.7593 26.0678 28.5082 25.063 29.0963 23.9697C29.8028 22.6565 31.2739 21.8067 32.7073 22.2177Z" fill="#3BA09A"/>
</g>
</svg>