<svg width="24" height="24" viewBox="0 0 24 24" fill="none" xmlns="http://www.w3.org/2000/svg">
<path d="M24 21.3333C24 22.806 22.806 24 21.3333 24H2.66667C1.194 24 0 22.806 0 21.3333V2.66667C0 1.194 1.194 0 2.66667 0H21.3333C22.806 0 24 1.194 24 2.66667V21.3333Z" fill="#348D88"/>
<path d="M21.8855 6C21.8855 8.20933 20.0955 10 17.8855 10C15.6775 10 13.8855 8.20933 13.8855 6H21.8855ZM21.8855 2H13.8855C13.5168 2 13.2188 2.29867 13.2188 2.66667C13.2188 2.788 13.2515 3.046 13.3082 3.338C13.2782 3.33667 13.2495 3.33333 13.2188 3.33333C12.4828 3.33333 11.8855 3.632 11.8855 4C11.8855 4.368 12.4828 4.66667 13.2188 4.66667C13.4655 4.66667 13.6748 4.66467 13.8662 4.66133C13.8728 4.66267 13.8788 4.66667 13.8855 4.66667H21.8855C22.2542 4.66667 22.5522 3.03467 22.5522 2.66667C22.5522 2.29867 22.2542 2 21.8855 2ZM21.7655 12.12L13.8855 20C13.8855 20.736 14.4828 21.3333 15.2188 21.3333H20.5522C21.2888 21.3333 21.8855 20.736 21.8855 20V12.6667C21.8855 12.4713 21.8415 12.2873 21.7655 12.12ZM19.8855 11.3333H15.2188C15.1808 11.3333 15.1455 11.3413 15.1082 11.3447C14.2295 11.298 13.2442 11.4233 12.9428 11.724L9.05749 15.724C8.53683 16.2447 8.53683 17.0893 9.05749 17.61C9.57816 18.13 10.4222 18.13 10.9435 17.61L13.8855 14.5807V17.3333L19.8855 11.3333Z" fill="#F5FAFA"/>
<path d="M10.0002 18.6666H4.00016V12.6666C4.00016 11.9306 3.40283 11.3333 2.66683 11.3333C1.93083 11.3333 1.3335 11.9306 1.3335 12.6666V18.6666C1.3335 19.4026 1.93083 19.9999 2.66683 19.9999C2.66683 20.7359 3.26416 21.3333 4.00016 21.3333H10.0002C10.7362 21.3333 11.3335 20.7359 11.3335 19.9999C11.3335 19.2639 10.7362 18.6666 10.0002 18.6666Z" fill="#F5FAFA"/>
</svg>
