<svg width="24" height="24" viewBox="0 0 24 24" fill="none" xmlns="http://www.w3.org/2000/svg">
<g clip-path="url(#clip0)">
<path d="M4.6665 16.6667H19.3332V22.6667H4.6665V16.6667ZM4.6665 9.33333H19.3332V15.3333H4.6665V9.33333ZM4.6665 2H19.3332V8.66667H4.6665V2Z" fill="#50BFB8"/>
<path d="M20 2.11859C20 2.42125 19.7547 2.66659 19.452 2.66659H4.548C4.24533 2.66659 4 2.42125 4 2.11859V1.88125C4 1.57859 4.24533 1.33325 4.548 1.33325H19.4513C19.7547 1.33325 20 1.57859 20 1.88125V2.11859ZM20 9.45192C20 9.75459 19.7547 9.99992 19.452 9.99992H4.548C4.24533 9.99992 4 9.75459 4 9.45192V9.21525C4 8.91192 4.24533 8.66658 4.548 8.66658H19.4513C19.7547 8.66658 20 8.91192 20 9.21458V9.45192ZM20 16.1186C20 16.4213 19.7547 16.6666 19.452 16.6666H4.548C4.24533 16.6666 4 16.4213 4 16.1186V15.8819C4 15.5786 4.24533 15.3333 4.548 15.3333H19.4513C19.7547 15.3333 20 15.5786 20 15.8813V16.1186ZM20 23.4519C20 23.7546 19.7547 23.9999 19.452 23.9999H4.548C4.24533 23.9999 4 23.7546 4 23.4519V23.2153C4 22.9119 4.24533 22.6666 4.548 22.6666H19.4513C19.7547 22.6666 20 22.9119 20 23.2146V23.4519Z" fill="#3BA09A"/>
<path d="M17.3332 0.752C17.3332 1.07267 17.0725 1.33333 16.7518 1.33333H15.2478C14.9272 1.33333 14.6665 1.07267 14.6665 0.752V0.581333C14.6665 0.260667 14.9272 0 15.2478 0H16.7518C17.0725 0 17.3332 0.260667 17.3332 0.581333V0.752Z" fill="#8A9AA1"/>
</g>
<defs>
<clipPath id="clip0">
<rect width="24" height="24" fill="white"/>
</clipPath>
</defs>
</svg>
