<svg width="24" height="24" viewBox="0 0 24 24" fill="none" xmlns="http://www.w3.org/2000/svg">
<path d="M21.3332 24L19.9998 22.6667L18.6665 24L17.3332 22.6667L15.9998 24L14.6665 22.6667L13.3332 24L11.9998 22.6667L10.6665 24L9.33317 22.6667L7.99984 24L6.6665 22.6667L5.33317 24L3.99984 22.6667L2.6665 24V0L3.99984 1.33333L5.30517 0L6.6665 1.33333L8.02784 0L9.33317 1.33333L10.6945 0L11.9998 1.33333L13.3885 0L14.6665 1.33333L16.0832 0L17.3332 1.33333L18.6385 0L19.9998 1.33333L21.3332 0V24Z" fill="#D5DDE0"/>
<path d="M12.6668 11.3333H6.00016C5.6335 11.3333 5.3335 11.0333 5.3335 10.6667C5.3335 10.3 5.6335 10 6.00016 10H12.6668C13.0335 10 13.3335 10.3 13.3335 10.6667C13.3335 11.0333 13.0335 11.3333 12.6668 11.3333ZM18.0002 11.3333H15.3335C14.9668 11.3333 14.6668 11.0333 14.6668 10.6667C14.6668 10.3 14.9668 10 15.3335 10H18.0002C18.3668 10 18.6668 10.3 18.6668 10.6667C18.6668 11.0333 18.3668 11.3333 18.0002 11.3333ZM12.6668 14H6.00016C5.6335 14 5.3335 13.7 5.3335 13.3333C5.3335 12.9667 5.6335 12.6667 6.00016 12.6667H12.6668C13.0335 12.6667 13.3335 12.9667 13.3335 13.3333C13.3335 13.7 13.0335 14 12.6668 14ZM18.0002 14H15.3335C14.9668 14 14.6668 13.7 14.6668 13.3333C14.6668 12.9667 14.9668 12.6667 15.3335 12.6667H18.0002C18.3668 12.6667 18.6668 12.9667 18.6668 13.3333C18.6668 13.7 18.3668 14 18.0002 14ZM18.0002 18H6.00016C5.6335 18 5.3335 17.7 5.3335 17.3333C5.3335 16.9667 5.6335 16.6667 6.00016 16.6667H18.0002C18.3668 16.6667 18.6668 16.9667 18.6668 17.3333C18.6668 17.7 18.3668 18 18.0002 18ZM18.0002 20.6667H15.3335C14.9668 20.6667 14.6668 20.3667 14.6668 20C14.6668 19.6333 14.9668 19.3333 15.3335 19.3333H18.0002C18.3668 19.3333 18.6668 19.6333 18.6668 20C18.6668 20.3667 18.3668 20.6667 18.0002 20.6667Z" fill="#8A9AA1"/>
<path d="M12.0002 8.00008C13.4729 8.00008 14.6668 6.80617 14.6668 5.33342C14.6668 3.86066 13.4729 2.66675 12.0002 2.66675C10.5274 2.66675 9.3335 3.86066 9.3335 5.33342C9.3335 6.80617 10.5274 8.00008 12.0002 8.00008Z" fill="#8A9AA1"/>
</svg>
