<svg width="24" height="24" viewBox="0 0 24 24" fill="none" xmlns="http://www.w3.org/2000/svg">
<path d="M11.9998 23.3334C18.2591 23.3334 23.3332 18.2593 23.3332 12.0001C23.3332 5.74085 18.2591 0.666748 11.9998 0.666748C5.74061 0.666748 0.666504 5.74085 0.666504 12.0001C0.666504 18.2593 5.74061 23.3334 11.9998 23.3334Z" fill="#FF8982"/>
<path d="M8.5772 12.0633C8.31186 11.9613 8.0372 11.8993 7.74653 11.8993C7.68853 11.8993 7.6272 11.9073 7.5672 11.9119C7.5112 11.9159 7.45186 11.9326 7.39453 11.9393C7.41853 13.6813 8.41853 15.1886 9.8712 15.9433C9.90453 15.8906 9.9412 15.8406 9.9712 15.7853C10.0465 15.6453 10.1105 15.4973 10.1619 15.3413C10.1785 15.2906 10.2005 15.2439 10.2145 15.1926C10.2472 15.0686 10.2645 14.9466 10.2799 14.8246C9.30853 14.2633 8.6432 13.2473 8.5772 12.0633ZM9.4952 8.02593C9.63253 8.40326 9.84986 8.73593 10.1319 9.00659C10.6645 8.66326 11.2952 8.45793 11.9745 8.45793C12.6385 8.45793 13.2539 8.65659 13.7785 8.98526C13.8565 8.90859 13.9372 8.83926 14.0092 8.75059C14.1959 8.51993 14.3359 8.27459 14.4305 8.01126C13.7199 7.55793 12.8785 7.29126 11.9745 7.29126C11.0612 7.29193 10.2105 7.56326 9.4952 8.02593ZM13.6332 14.8433C13.6765 15.2339 13.7999 15.5979 14.0212 15.9399C14.0265 15.9479 14.0332 15.9533 14.0385 15.9613C15.5145 15.2126 16.5332 13.6913 16.5545 11.9306C16.4459 11.9173 16.3365 11.9066 16.2279 11.9066C15.9325 11.9066 15.6452 11.9633 15.3725 12.0586C15.3072 13.2593 14.6252 14.2866 13.6332 14.8433Z" fill="white"/>
<path d="M16.2766 18.0227C14.3553 18.0227 12.7986 16.4654 12.7986 14.5447C12.7986 13.97 12.9386 13.428 13.1859 12.9507L12.7793 12.7147C12.5946 12.938 12.3186 13.0834 12.0059 13.0834C11.6899 13.0834 11.4113 12.9347 11.2266 12.7074L10.8026 12.954C11.0486 13.4307 11.1879 13.9714 11.1879 14.5447C11.1879 16.466 9.63059 18.0227 7.70992 18.0227C6.66059 18.0227 5.71992 17.5574 5.08259 16.822L4.95459 16.902C5.67392 17.8094 6.58259 18.4154 7.70259 18.678C8.00726 18.7494 8.30392 18.786 8.59726 18.804C8.68726 18.8094 8.77859 18.8194 8.86792 18.82C8.89459 18.82 8.91992 18.8167 8.94592 18.8167C9.17659 18.8147 9.40326 18.7934 9.62659 18.758C9.66726 18.752 9.70726 18.7454 9.74726 18.738C10.5226 18.596 11.2566 18.2647 11.9473 17.7447C11.9513 17.7414 11.9719 17.7307 11.9926 17.7267C11.9959 17.726 11.9966 17.7234 12.0006 17.7234C12.0266 17.7234 12.0479 17.7407 12.0526 17.744C12.1286 17.8027 12.2073 17.854 12.2853 17.908C12.3759 17.9707 12.4666 18.032 12.5593 18.0887C12.6573 18.1487 12.7559 18.208 12.8559 18.2607C13.0259 18.35 13.1986 18.428 13.3746 18.4967C13.4553 18.528 13.5373 18.5547 13.6193 18.5814C13.8186 18.6467 14.0199 18.7034 14.2266 18.7414C14.2693 18.7494 14.3126 18.752 14.3553 18.7587C14.5666 18.7914 14.7819 18.8094 15.0006 18.8134C15.0426 18.814 15.0833 18.8174 15.1259 18.8174C15.3106 18.816 15.4979 18.8074 15.6879 18.786C17.0613 18.6287 18.1733 17.9847 19.0393 16.9067L18.9139 16.812C18.2746 17.5527 17.3306 18.0227 16.2766 18.0227ZM7.70859 11.066C8.92459 11.066 9.99459 11.6907 10.6166 12.636L10.6346 12.6594L10.6399 12.6654C10.7593 12.5967 10.8826 12.522 11.0093 12.4534C11.0426 12.4354 11.0513 12.4147 11.0519 12.3894C11.0193 12.29 10.9966 12.1854 10.9966 12.0747C10.9966 11.58 11.3533 11.17 11.8233 11.0847V10.6107C9.98192 10.5214 8.51659 9.00004 8.51659 7.13671C8.51659 5.44204 9.72926 4.03071 11.3339 3.72204V3.55737C10.5899 3.60537 9.00926 4.36737 8.29859 5.18537C7.30659 6.32737 6.91592 7.65871 7.11259 9.15937C7.12259 9.23337 7.11059 9.26871 7.03392 9.29937C4.65592 10.2527 3.40859 12.8214 4.12726 15.2847C4.17259 15.4414 4.23192 15.594 4.28659 15.752L4.42392 15.6887C4.29926 15.33 4.22992 14.9454 4.22992 14.544C4.23059 12.6234 5.78792 11.066 7.70859 11.066ZM20.0033 13.1074C19.6759 11.29 18.6526 10.02 16.9526 9.29804C16.8859 9.26937 16.8679 9.23937 16.8786 9.17004C16.9606 8.63937 16.9499 8.11004 16.8566 7.58204C16.6979 6.68671 16.2886 5.88271 15.7153 5.22337L15.7093 5.21604C15.5806 5.06871 15.4433 4.93071 15.2979 4.79937L15.2346 4.74337C15.0979 4.62404 14.9559 4.51204 14.8059 4.40804C14.7706 4.38337 14.7339 4.36071 14.6979 4.33671C14.5533 4.24204 14.4066 4.15204 14.2519 4.07204C14.2033 4.04671 13.3999 3.65737 12.6566 3.55871V3.72137C14.2613 4.03004 15.4739 5.44137 15.4739 7.13604C15.4739 9.00004 14.0079 10.5214 12.1659 10.61V11.082C12.6459 11.1594 13.0139 11.572 13.0139 12.074C13.0139 12.196 12.9893 12.3114 12.9493 12.4194C12.9546 12.4267 12.9519 12.434 12.9646 12.4414C13.0939 12.5127 13.2213 12.588 13.3513 12.664C13.9699 11.7027 15.0486 11.066 16.2766 11.066C18.1979 11.066 19.7546 12.6234 19.7546 14.544C19.7546 14.9414 19.6873 15.3227 19.5646 15.678C19.6079 15.7014 19.6946 15.748 19.7006 15.7487C19.7126 15.7194 19.7259 15.6894 19.7373 15.6587C20.0526 14.832 20.1599 13.9787 20.0033 13.1074Z" fill="white"/>
</svg>
