<svg width="24" height="24" viewBox="0 0 24 24" fill="none" xmlns="http://www.w3.org/2000/svg">
<g clip-path="url(#clip0)">
<path d="M13.3333 17.3333C13.3333 17.702 13.0353 18 12.6667 18C12.2987 18 12 17.702 12 17.3333V0.666667C12 0.298667 12.2987 0 12.6667 0C13.0353 0 13.3333 0.298667 13.3333 0.666667V17.3333Z" fill="#ABB9BE"/>
<path d="M2 16H22.6667V21.3333H8C4 21.3333 2 16 2 16Z" fill="#ABB9BE"/>
<path d="M0 20H24V24H0V20Z" fill="#50BFB8"/>
<path d="M3.3335 14.6666C3.3335 14.6666 4.66683 11.3333 6.66683 8.66658C8.66683 5.99992 12.0002 3.33325 12.0002 3.33325C12.0002 3.33325 11.3335 10.6666 11.3335 13.9999V14.6666C11.3335 14.6666 9.3335 13.9999 7.3335 13.9999C5.3335 13.9999 3.3335 14.6666 3.3335 14.6666Z" fill="#ED919C"/>
<path d="M13.3335 1.33325C13.3335 1.33325 17.3335 5.33325 19.3335 8.66659C21.1808 11.7453 22.0002 14.6666 22.0002 14.6666C22.0002 14.6666 20.0002 13.9999 18.0002 13.9999C16.0002 13.9999 14.0002 14.6666 14.0002 14.6666V13.9999C14.0002 7.99992 13.3335 1.33325 13.3335 1.33325Z" fill="#E14554"/>
<path d="M1.33317 16C0.965171 16 0.666504 16.298 0.666504 16.6667C0.666504 17.0353 0.965171 17.3333 1.33317 17.3333H23.3332V16H1.33317Z" fill="#DFE6E8"/>
</g>
<defs>
<clipPath id="clip0">
<rect width="24" height="24" fill="white"/>
</clipPath>
</defs>
</svg>
