<svg width="24" height="24" viewBox="0 0 24 24" fill="none" xmlns="http://www.w3.org/2000/svg">
<path d="M2.6665 7.33325V15.5833C2.6665 16.9446 3.39517 17.2393 3.39517 17.2393L11.1112 23.3053C12.3258 24.2599 11.9998 22.2499 11.9998 22.2499V14.6666L2.6665 7.33325Z" fill="#662113"/>
<path d="M21.3332 7.33325V15.5833C21.3332 16.9446 20.6245 17.2393 20.6245 17.2393C20.6245 17.2393 14.1132 22.3506 12.8992 23.3053C11.6839 24.2599 11.9999 22.2499 11.9999 22.2499V14.6666L21.3332 7.33325Z" fill="#C1694F"/>
<path d="M12.8595 0.33332C12.3575 -0.0733464 11.5342 -0.0733464 11.0315 0.33332L3.0435 6.68599C2.54084 7.09265 2.54084 7.75732 3.0435 8.16332L11.0588 14.594C11.5615 15 12.3848 15 12.8875 14.594L20.9568 8.10732C21.4595 7.70132 21.4595 7.03665 20.9568 6.62999L12.8595 0.33332Z" fill="#D99E82"/>
<path d="M12.0002 23.8334C11.6322 23.8334 11.3335 23.5121 11.3335 23.1147V14.4967C11.3335 14.0994 11.6322 13.7781 12.0002 13.7781C12.3688 13.7781 12.6668 14.0994 12.6668 14.4967V23.1147C12.6668 23.5121 12.3688 23.8334 12.0002 23.8334Z" fill="#D99E82"/>
<path d="M18.6667 12.5572C18.6667 13.2932 18.736 13.6545 18 14.1852L16.354 15.4372C15.618 15.9685 15.3334 15.5125 15.3334 14.7759V12.8019C15.3334 12.6732 15.316 12.5352 15.148 12.3965C13.4294 10.9799 6.75604 5.6792 5.54004 4.70054L8.62337 2.24854C9.46737 2.86587 15.792 7.74987 18.438 9.8332C18.5694 9.9372 18.6667 10.0519 18.6667 10.1772V12.5572Z" fill="#99AAB5"/>
<path d="M18.4374 9.8332C15.792 7.74987 9.46737 2.86587 8.62337 2.24854L7.47604 3.16054L5.54004 4.70054C6.75671 5.6792 13.4294 10.9799 15.148 12.3965C15.2487 12.4799 15.2927 12.5632 15.3134 12.6439L18.602 9.99987C18.562 9.94187 18.5047 9.88587 18.4374 9.8332Z" fill="#CCD6DD"/>
<path d="M18.6665 12.5572V10.1772C18.6665 10.0519 18.5692 9.93787 18.4372 9.8332C15.7919 7.74987 9.46721 2.86587 8.62321 2.24854L7.24121 3.34787C9.50321 5.1272 15.5619 9.80187 17.1479 11.0632C17.3185 11.1992 17.3332 11.3399 17.3332 11.4685V14.6925L17.9999 14.1852C18.7359 13.6539 18.6665 13.2932 18.6665 12.5572Z" fill="#CCD6DD"/>
<path d="M18.4372 9.8332C15.7919 7.74987 9.46721 2.86587 8.62321 2.24854L7.24121 3.34787C9.50321 5.1272 15.5619 9.80187 17.1479 11.0632C17.1725 11.0825 17.1879 11.1025 17.2059 11.1219L18.6019 9.99987C18.5619 9.94187 18.5045 9.88587 18.4372 9.8332Z" fill="#E1E8ED"/>
</svg>
