<svg width="24" height="24" viewBox="0 0 24 24" fill="none" xmlns="http://www.w3.org/2000/svg">
<g clip-path="url(#clip0)">
<path d="M21.3332 22.6666C21.3332 23.4026 20.7358 23.9999 19.9998 23.9999H3.99984C3.26384 23.9999 2.6665 23.4026 2.6665 22.6666V4.66659C2.6665 3.93059 3.26384 3.33325 3.99984 3.33325H19.9998C20.7358 3.33325 21.3332 3.93059 21.3332 4.66659V22.6666Z" fill="#335567"/>
<path d="M19.3332 21.3333C19.3332 21.7019 19.0352 21.9999 18.6665 21.9999H5.33317C4.96517 21.9999 4.6665 21.7019 4.6665 21.3333V5.99992C4.6665 5.63192 4.96517 5.33325 5.33317 5.33325H18.6665C19.0352 5.33325 19.3332 5.63192 19.3332 5.99992V21.3333Z" fill="#F1F4F6"/>
<path d="M16.6667 2H14C14 0.895333 13.1047 0 12 0C10.8953 0 10 0.895333 10 2H7.33333C6.59733 2 6 2.59733 6 3.33333V6.66667H18V3.33333C18 2.59733 17.4027 2 16.6667 2Z" fill="#3BA09A"/>
<path d="M11.9998 3.33342C12.7362 3.33342 13.3332 2.73646 13.3332 2.00008C13.3332 1.2637 12.7362 0.666748 11.9998 0.666748C11.2635 0.666748 10.6665 1.2637 10.6665 2.00008C10.6665 2.73646 11.2635 3.33342 11.9998 3.33342Z" fill="#294353"/>
<path d="M13.3333 9.33341C13.3333 9.70141 13.0353 10.0001 12.6667 10.0001H6.66667C6.29867 10.0001 6 9.70141 6 9.33341C6 8.96541 6.29867 8.66675 6.66667 8.66675H12.6667C13.0353 8.66675 13.3333 8.96541 13.3333 9.33341ZM18 12.0001C18 12.3681 17.702 12.6667 17.3333 12.6667H6.66667C6.29867 12.6667 6 12.3681 6 12.0001C6 11.6321 6.29867 11.3334 6.66667 11.3334H17.3333C17.702 11.3334 18 11.6321 18 12.0001ZM18 14.6667C18 15.0354 17.702 15.3334 17.3333 15.3334H6.66667C6.29867 15.3334 6 15.0354 6 14.6667C6 14.2981 6.29867 14.0001 6.66667 14.0001H17.3333C17.702 14.0001 18 14.2981 18 14.6667ZM18 17.3334C18 17.7021 17.702 18.0001 17.3333 18.0001H6.66667C6.29867 18.0001 6 17.7021 6 17.3334C6 16.9647 6.29867 16.6667 6.66667 16.6667H17.3333C17.702 16.6667 18 16.9647 18 17.3334ZM18 20.0001C18 20.3687 17.702 20.6667 17.3333 20.6667H11.3333C10.9653 20.6667 10.6667 20.3687 10.6667 20.0001C10.6667 19.6314 10.9653 19.3334 11.3333 19.3334H17.3333C17.702 19.3334 18 19.6314 18 20.0001Z" fill="#ABB9BE"/>
</g>
<defs>
<clipPath id="clip0">
<rect width="24" height="24" fill="white"/>
</clipPath>
</defs>
</svg>
