<svg width="24" height="24" viewBox="0 0 24 24" fill="none" xmlns="http://www.w3.org/2000/svg">
<path d="M18.8333 5.67533C18.8333 5.57867 18.7553 5.5 18.658 5.5H18.3413C18.2447 5.5 18.166 5.57867 18.166 5.67533V13.3253C18.166 13.422 18.244 13.5007 18.3413 13.5007H18.658C18.7547 13.5007 18.8333 13.4227 18.8333 13.3253V5.67533Z" fill="#667F8A"/>
<path d="M18.5 14.1667C19.0523 14.1667 19.5 13.719 19.5 13.1667C19.5 12.6145 19.0523 12.1667 18.5 12.1667C17.9477 12.1667 17.5 12.6145 17.5 13.1667C17.5 13.719 17.9477 14.1667 18.5 14.1667Z" fill="#F14D42"/>
<path d="M18.5002 15.5001C18.8684 15.5001 19.1668 15.2016 19.1668 14.8334C19.1668 14.4652 18.8684 14.1667 18.5002 14.1667C18.132 14.1667 17.8335 14.4652 17.8335 14.8334C17.8335 15.2016 18.132 15.5001 18.5002 15.5001Z" fill="#F14D42"/>
<path d="M22.1665 5.50008H19.4138L6.6305 0.193415L6.62917 0.192748H6.6285C6.61784 0.188081 6.60717 0.189415 6.59717 0.186081C6.56584 0.176748 6.5345 0.166748 6.49984 0.166748H6.4985C6.4545 0.166748 6.41184 0.176081 6.37184 0.192081C6.34184 0.205415 6.31584 0.225415 6.2905 0.246748C6.2825 0.252748 6.27317 0.256081 6.26584 0.263415C6.2345 0.294081 6.20917 0.331415 6.1925 0.372748V0.373415C6.18984 0.379415 6.1905 0.386748 6.1885 0.392748L2.4945 5.59941C2.4925 5.60208 2.4925 5.60608 2.4905 5.60875C2.3005 5.72608 2.1665 5.92675 2.1665 6.16675V7.50008C2.1665 7.86808 2.46517 8.16675 2.83317 8.16675H3.82984L1.35384 22.6667H0.166504V24.0001H12.8052V22.6667H11.6452L9.16984 8.16675H22.1665C22.5352 8.16675 22.8332 7.86808 22.8332 7.50008V6.16675C22.8332 5.79875 22.5352 5.50008 22.1665 5.50008ZM7.65384 8.16675L6.49984 9.09275L5.3465 8.16675H7.65384ZM6.49984 14.2001L8.9445 15.8027L6.49984 17.1361L4.05517 15.8027L6.49984 14.2001ZM4.07384 14.6734L4.38984 12.8174L5.63384 13.6327L4.07384 14.6734ZM7.36584 13.6327L8.6125 12.8161L8.9305 14.6754L7.36584 13.6327ZM6.49984 13.0554L4.6145 11.7987L6.49984 10.2507L8.38517 11.7987L6.49984 13.0554ZM4.79117 10.4641L5.0325 9.04608L5.7865 9.66475L4.79117 10.4641ZM7.21317 9.66541L7.96784 9.04608L8.2105 10.4661L7.21317 9.66541ZM3.38184 5.50008L6.1665 1.57475V4.16675H4.83317C4.46517 4.16675 4.1665 4.46542 4.1665 4.83342V5.50008H3.38184ZM3.73517 16.6587L5.55517 17.6514L3.36184 18.8474L3.73517 16.6587ZM10.2952 22.6667H2.71117L3.1685 19.9841L6.49984 18.1667L9.83717 19.9874L10.2952 22.6667ZM9.2685 16.6567L9.64317 18.8507L7.4445 17.6514L9.2685 16.6567ZM8.83317 5.50008V4.83342C8.83317 4.46542 8.5345 4.16675 8.1665 4.16675H6.83317V0.999415L17.6752 5.50008H8.83317ZM10.1665 7.50008H9.39317V6.16675H10.1665V7.50008ZM12.1665 7.50008H10.8332V6.16675H12.1665V7.50008ZM14.1665 7.50008H12.8332V6.16675H14.1665V7.50008ZM16.1665 7.50008H14.8332V6.16675H16.1665V7.50008ZM18.1665 7.50008H16.8332V6.16675H18.1665V7.50008ZM20.1665 7.50008H18.8332V6.16675H20.1665V7.50008ZM22.1665 7.16675C22.1665 7.35075 22.0172 7.50008 21.8332 7.50008H20.8332V6.16675H21.8332C22.0172 6.16675 22.1665 6.31608 22.1665 6.50008V7.16675Z" fill="#BF2A46"/>
<path d="M8.1665 4.83325H6.83317C6.46517 4.83325 6.1665 5.13192 6.1665 5.49992V6.83325C6.1665 7.20125 6.46517 7.49992 6.83317 7.49992H8.83317V4.83325H8.1665Z" fill="#3F5F6F"/>
<path d="M7.5 4.83325H8.83333V7.49992H7.5V4.83325Z" fill="#D5DDE0"/>
<path d="M23.2292 15.3333V16.1677V18.2281V19.0626H13.7705V18.2281V16.1677V15.3333H23.2292Z" fill="#131E26"/>
</svg>
