<svg width="24" height="24" viewBox="0 0 24 24" fill="none" xmlns="http://www.w3.org/2000/svg">
<path d="M20 22.6667C20 23.4027 19.4027 24 18.6667 24H5.33333C4.59733 24 4 23.4027 4 22.6667V1.33333C4 0.597333 4.59733 0 5.33333 0H18.6667C19.4027 0 20 0.597333 20 1.33333V22.6667Z" fill="#294353"/>
<path d="M18.6668 10.6666C18.6668 11.0346 18.3688 11.3333 18.0002 11.3333H6.00016C5.63216 11.3333 5.3335 11.0346 5.3335 10.6666V1.99992C5.3335 1.63192 5.63216 1.33325 6.00016 1.33325H18.0002C18.3688 1.33325 18.6668 1.63192 18.6668 1.99992V10.6666ZM18.6668 21.9999C18.6668 22.3686 18.3688 22.6666 18.0002 22.6666H6.00016C5.63216 22.6666 5.3335 22.3686 5.3335 21.9999V13.3333C5.3335 12.9646 5.63216 12.6666 6.00016 12.6666H18.0002C18.3688 12.6666 18.6668 12.9646 18.6668 13.3333V21.9999Z" fill="#8A9AA1"/>
<path d="M14.6668 5.33341C14.6668 5.70141 14.3688 6.00008 14.0002 6.00008H10.0002C9.63216 6.00008 9.3335 5.70141 9.3335 5.33341V3.33341C9.3335 2.96541 9.63216 2.66675 10.0002 2.66675H14.0002C14.3688 2.66675 14.6668 2.96541 14.6668 3.33341V5.33341ZM14.6668 16.6667C14.6668 17.0354 14.3688 17.3334 14.0002 17.3334H10.0002C9.63216 17.3334 9.3335 17.0354 9.3335 16.6667V14.6667C9.3335 14.2981 9.63216 14.0001 10.0002 14.0001H14.0002C14.3688 14.0001 14.6668 14.2981 14.6668 14.6667V16.6667Z" fill="#294353"/>
<path d="M10 3.33325H14V5.33325H10V3.33325ZM10 14.6666H14V16.6666H10V14.6666ZM16 8.68658C16 9.04392 15.71 9.33325 15.3533 9.33325H8.64667C8.28933 9.33325 8 9.04325 8 8.68658V8.64658C8 8.28925 8.28933 7.99992 8.64667 7.99992H15.3533C15.71 7.99992 16 8.28992 16 8.64658V8.68658ZM16 20.0193C16 20.3766 15.71 20.6666 15.3533 20.6666H8.64667C8.28933 20.6666 8 20.3766 8 20.0193V19.9799C8 19.6233 8.28933 19.3333 8.64667 19.3333H15.3533C15.71 19.3333 16 19.6233 16 19.9806V20.0193Z" fill="#E9ECED"/>
</svg>
