<svg width="24" height="24" viewBox="0 0 24 24" fill="none" xmlns="http://www.w3.org/2000/svg">
<path d="M20.6665 21.3333C20.6665 22.806 19.4725 24 17.9998 24H3.33317C1.8605 24 0.666504 22.806 0.666504 21.3333V2.66667C0.666504 1.194 1.8605 0 3.33317 0H17.9998C19.4725 0 20.6665 1.194 20.6665 2.66667V21.3333Z" fill="#E9ECED"/>
<path d="M18.0002 16.0001C18.0002 16.3687 17.7022 16.6667 17.3335 16.6667H4.00016C3.63216 16.6667 3.3335 16.3687 3.3335 16.0001C3.3335 15.6314 3.63216 15.3334 4.00016 15.3334H17.3335C17.7022 15.3334 18.0002 15.6314 18.0002 16.0001ZM7.3335 18.6667C7.3335 19.0354 7.03483 19.3334 6.66683 19.3334H4.00016C3.63216 19.3334 3.3335 19.0354 3.3335 18.6667C3.3335 18.2981 3.63216 18.0001 4.00016 18.0001H6.66683C7.03483 18.0001 7.3335 18.2981 7.3335 18.6667ZM18.0002 5.33341C18.0002 5.70141 17.7022 6.00008 17.3335 6.00008H4.00016C3.63216 6.00008 3.3335 5.70141 3.3335 5.33341C3.3335 4.96541 3.63216 4.66675 4.00016 4.66675H17.3335C17.7022 4.66675 18.0002 4.96541 18.0002 5.33341ZM18.0002 8.00008C18.0002 8.36875 17.7022 8.66675 17.3335 8.66675H4.00016C3.63216 8.66675 3.3335 8.36875 3.3335 8.00008C3.3335 7.63141 3.63216 7.33341 4.00016 7.33341H17.3335C17.7022 7.33341 18.0002 7.63141 18.0002 8.00008ZM18.0002 10.6667C18.0002 11.0354 17.7022 11.3334 17.3335 11.3334H4.00016C3.63216 11.3334 3.3335 11.0354 3.3335 10.6667C3.3335 10.2981 3.63216 10.0001 4.00016 10.0001H17.3335C17.7022 10.0001 18.0002 10.2981 18.0002 10.6667ZM18.0002 13.3334C18.0002 13.7021 17.7022 14.0001 17.3335 14.0001H4.00016C3.63216 14.0001 3.3335 13.7021 3.3335 13.3334C3.3335 12.9647 3.63216 12.6667 4.00016 12.6667H17.3335C17.7022 12.6667 18.0002 12.9647 18.0002 13.3334Z" fill="#B0BDC2"/>
<path d="M20.6665 4.18131C20.1152 3.82464 19.4419 3.79531 18.9859 4.16598L18.4579 4.59664L17.4685 5.40397L17.4019 5.45731L15.8179 6.74931L7.8992 13.2066C7.60787 13.4446 7.37054 14.0193 7.1172 14.5893C6.8652 15.156 6.4712 16.4906 6.1552 17.5166C6.05654 17.6833 5.4452 18.7473 5.78787 19.152C6.13454 19.562 7.33854 19.1586 7.49987 19.1013C8.58387 18.9853 9.9872 18.8526 10.5985 18.7146C11.2145 18.574 11.8345 18.4513 12.1259 18.2133C12.1312 18.2093 12.1325 18.2013 12.1372 18.198L20.0425 11.754L20.5705 11.3233L20.6665 11.2446V4.18131Z" fill="#8A9AA1"/>
<path d="M12.0967 15.0174C12.0967 15.0174 11.2473 13.7634 10.6853 13.3154C10.2373 12.7534 8.986 11.9047 8.986 11.9047C8.68734 11.6074 8.192 11.5847 7.9 11.876C7.60867 12.168 7.37134 12.7867 7.118 13.4034C6.80334 14.1674 6.26734 16.1727 5.93934 17.238C5.884 17.4194 6.284 16.938 6.27467 17.098C6.268 17.2227 6.29267 17.3607 6.324 17.4854L6.22667 17.5914L6.36534 17.636C6.382 17.6907 6.39867 17.7387 6.41067 17.776L6.51667 17.6787C6.64134 17.71 6.77934 17.7347 6.90334 17.728C7.06334 17.7187 6.58134 18.1194 6.76334 18.0634C7.82867 17.7347 9.83467 17.1994 10.598 16.8847C11.214 16.6307 11.834 16.394 12.1253 16.102C12.418 15.812 12.396 15.3167 12.0967 15.0174Z" fill="#FFDFDD"/>
<path d="M16.8745 2.90057C16.2905 3.48391 16.2905 4.42924 16.8745 5.01257L18.9859 7.12457C19.5699 7.70724 20.5152 7.70724 21.0979 7.12457L23.2105 5.01257C23.7932 4.42924 23.7932 3.48391 23.2105 2.90057L21.0979 0.788574C20.5152 0.205241 19.5699 0.205241 18.9859 0.788574L16.8745 2.90057Z" fill="#E14554"/>
<path d="M7.89941 11.8766L10.0127 13.9899L12.1227 16.1006L20.0434 8.18128L15.8187 3.95728L7.89941 11.8766Z" fill="#6AC8C2"/>
<path d="M7.53188 17.8281C7.53188 17.8281 6.15855 18.5834 5.78788 18.2121C5.41655 17.8401 6.17522 16.4714 6.17522 16.4714C6.17522 16.4714 7.47588 16.4954 7.53188 17.8281Z" fill="#131E26"/>
<path d="M15.8188 3.95665L18.4588 1.31665L22.6828 5.54132L20.0428 8.18132L15.8188 3.95665Z" fill="#D5DDE0"/>
<path d="M17.402 2.37199L17.93 1.84399L22.154 6.06733L21.626 6.59533L17.402 2.37199ZM16.3467 3.42799L16.874 2.90066L21.098 7.12399L20.57 7.65199L16.3467 3.42799Z" fill="#B0BDC2"/>
</svg>
