<svg width="24" height="24" viewBox="0 0 24 24" fill="none" xmlns="http://www.w3.org/2000/svg">
<g clip-path="url(#clip0)">
<path d="M14 9.33341C14.1687 11.9267 16.3473 13.9794 19 13.9794C21.6527 13.9794 23.8313 11.9267 24 9.33341V2.66675H14V9.33341Z" fill="#FBE77D"/>
<path d="M23.9998 14.5013V9.33333C23.8312 11.9267 21.6525 13.9793 18.9998 13.9793C16.3472 13.9793 14.1685 11.9267 13.9998 9.33333V6.442C17.5518 6.33867 19.6732 4.88 20.8245 3.65467C21.1012 4.638 21.8672 6 23.9998 6V1.26667C23.3792 0.807333 22.5898 0.538 21.6918 0.538C21.4698 0.538 21.2538 0.560667 21.0425 0.598C20.2618 0.218667 19.5932 0 18.6665 0C15.3952 0 12.6665 2.72867 12.6665 6V10.6667C12.7092 12.172 13.2452 13.5667 14.1212 14.6667L15.9998 16H21.9998L23.8785 14.6667C23.9212 14.6133 23.9592 14.556 23.9998 14.5013Z" fill="#FFAC33"/>
<path d="M23.8787 14.6667H14C12.6667 14.6667 12 15.3334 12 16.6487V24.0001H24V14.6667H23.8787Z" fill="#E14554"/>
<path d="M13.9907 17.3333H14.6761V23.9999H13.9907V17.3333Z" fill="#972136"/>
<path d="M17.3335 12.6667V14.6667C17.3335 15.5874 18.0795 16.3334 19.0002 16.3334C19.9208 16.3334 20.6668 15.5874 20.6668 14.6667V12.6667H17.3335Z" fill="#FBE77D"/>
<path d="M16.8467 11.8459H21.1533C21.1533 11.8459 20.6147 12.9233 19 12.9233C17.3853 12.9233 16.8467 11.8459 16.8467 11.8459Z" fill="#E14554"/>
<path d="M19.3335 10.3334H18.6668C18.4828 10.3334 18.3335 10.1841 18.3335 10.0001C18.3335 9.81608 18.4828 9.66675 18.6668 9.66675H19.3335C19.5175 9.66675 19.6668 9.81608 19.6668 10.0001C19.6668 10.1841 19.5175 10.3334 19.3335 10.3334Z" fill="#BF6952"/>
<path d="M16.6667 8.66675C16.298 8.66675 16 8.36808 16 8.00008V7.33341C16 6.96541 16.298 6.66675 16.6667 6.66675C17.0353 6.66675 17.3333 6.96541 17.3333 7.33341V8.00008C17.3333 8.36808 17.0353 8.66675 16.6667 8.66675ZM21.3333 8.66675C20.9647 8.66675 20.6667 8.36808 20.6667 8.00008V7.33341C20.6667 6.96541 20.9647 6.66675 21.3333 6.66675C21.702 6.66675 22 6.96541 22 7.33341V8.00008C22 8.36808 21.702 8.66675 21.3333 8.66675Z" fill="#6D1727"/>
<path d="M3.33333 14.6667V12H6.66667V14.6667H8V18.6667H2V14.6667H3.33333Z" fill="#FBE77D"/>
<path d="M10 14.6667H6.66667L5.01867 17.1854L3.33333 14.6667H0V24.0001H12V16.6487C12 15.3334 11.3333 14.6667 10 14.6667Z" fill="#3BA09A"/>
<path d="M9.32422 17.3333H10.0096V23.9999H9.32422V17.3333Z" fill="#2D7B76"/>
<path d="M10 9.33341V3.33341L0 2.66675V9.33341H0.016C0.184 11.9267 2.348 13.9794 5 13.9794C7.52733 13.9794 9.62133 12.1134 9.95867 9.69408C9.97533 9.57408 9.992 9.45541 10 9.33341Z" fill="#FBE77D"/>
<path d="M2.53733 0.537333C1.60333 0.537333 0.734667 0.81 0 1.27467V6.66333C3.96467 6.62667 6.25 4.93467 7.44133 3.598C7.77867 4.65733 8.53 6.27867 10 6.60467V9.33333C9.992 9.45533 9.97533 9.574 9.95867 9.69333C10.816 8.668 11.3333 7.34867 11.3333 5.90733C11.3333 2.64467 8.68867 0 5.426 0C4.534 0 3.692 0.203333 2.93333 0.557333C2.80267 0.546 2.67067 0.537333 2.53733 0.537333ZM10 3.33333V3.444L9.98133 3.33267L10 3.33333Z" fill="#FFAC33"/>
<path d="M7.14805 11.8154H2.85205C2.85205 11.8154 3.38872 12.8887 5.00005 12.8887C6.61138 12.8887 7.14805 11.8154 7.14805 11.8154ZM5.33338 10.3334H4.66672C4.48272 10.3334 4.33338 10.1841 4.33338 10.0001C4.33338 9.81608 4.48272 9.66675 4.66672 9.66675H5.33338C5.51738 9.66675 5.66672 9.81608 5.66672 10.0001C5.66672 10.1841 5.51738 10.3334 5.33338 10.3334Z" fill="#E14554"/>
<path d="M2.66667 8.66675C2.29867 8.66675 2 8.36808 2 8.00008V7.33341C2 6.96541 2.29867 6.66675 2.66667 6.66675C3.03467 6.66675 3.33333 6.96541 3.33333 7.33341V8.00008C3.33333 8.36808 3.03467 8.66675 2.66667 8.66675ZM7.33333 8.66675C6.96533 8.66675 6.66667 8.36808 6.66667 8.00008V7.33341C6.66667 6.96541 6.96533 6.66675 7.33333 6.66675C7.70133 6.66675 8 6.96541 8 7.33341V8.00008C8 8.36808 7.70133 8.66675 7.33333 8.66675Z" fill="#6D1727"/>
<path d="M13.3939 23.3334V20.6667H10.7272V23.3334H10.0605V24.0001H14.0605V23.3334H13.3939Z" fill="#FBE77D"/>
<path d="M15.3939 22H13.3939L12.0606 24H17.9392C17.5939 22.932 16.4999 22 15.3939 22ZM6.18457 24H12.0606L10.7272 22H9.3939C9.14857 22 8.91457 22.0213 8.69057 22.0587C7.39657 22.276 6.4899 23.082 6.18457 24Z" fill="#6AC8C2"/>
<path d="M16.7234 17.3646L16.722 17.3332H16.7274V13.3332H14.356C13.6774 12.9506 12.8947 12.7292 12.0587 12.7292C11.2227 12.7292 10.44 12.9506 9.76138 13.3332H7.39404V17.3332H7.39538L7.39404 17.3646C7.39404 17.4612 7.40271 17.5552 7.40871 17.6499C7.55804 20.0766 9.58004 21.9999 12.0587 21.9999C14.314 21.9999 16.196 20.4086 16.6294 18.2946C16.6907 17.9939 16.7234 17.6832 16.7234 17.3646Z" fill="#FBE77D"/>
<path d="M17.6165 15.2407C17.6165 12.346 15.2705 10 12.3759 10C11.5459 10 10.7639 10.198 10.0665 10.5413C7.84655 10.588 6.06055 12.3987 6.06055 14.63C6.06055 15.83 6.58455 16.902 7.40855 17.65C7.40255 17.5553 7.39388 17.4607 7.39388 17.3647L7.39521 17.3333H7.39388V15.31C10.6312 15.19 12.4979 14.1033 13.5299 13.0887C14.2399 13.9267 15.3732 14.9827 16.7272 15.26V17.3333H16.7219L16.7232 17.3647C16.7232 17.6833 16.6905 17.994 16.6292 18.2947C17.2479 17.434 17.6165 16.382 17.6165 15.2407Z" fill="#F4900C"/>
<path d="M14.0605 19.9999H10.0605C10.0605 19.9999 10.4492 21.3333 12.0605 21.3333C13.6719 21.3333 14.0605 19.9999 14.0605 19.9999ZM12.0605 19.6666C11.9739 19.6666 11.8872 19.6333 11.8272 19.5666C11.7605 19.5066 11.7272 19.4199 11.7272 19.3333C11.7272 19.2466 11.7605 19.1599 11.8272 19.0933C11.9405 18.9799 12.1739 18.9733 12.3005 19.0999C12.3605 19.1606 12.3939 19.2473 12.3939 19.3339C12.3939 19.4206 12.3605 19.5073 12.2939 19.5673C12.2339 19.6333 12.1472 19.6666 12.0605 19.6666Z" fill="#E14554"/>
<path d="M10.0607 18.6667C9.69271 18.6667 9.39404 18.3687 9.39404 18.0001V17.3334C9.39404 16.9647 9.69271 16.6667 10.0607 16.6667C10.4287 16.6667 10.7274 16.9647 10.7274 17.3334V18.0001C10.7274 18.3687 10.4287 18.6667 10.0607 18.6667ZM14.0607 18.6667C13.692 18.6667 13.394 18.3687 13.394 18.0001V17.3334C13.394 16.9647 13.692 16.6667 14.0607 16.6667C14.4294 16.6667 14.7274 16.9647 14.7274 17.3334V18.0001C14.7274 18.3687 14.4294 18.6667 14.0607 18.6667Z" fill="#6D1727"/>
</g>
<defs>
<clipPath id="clip0">
<rect width="24" height="24" fill="white"/>
</clipPath>
</defs>
</svg>
