<svg width="24" height="24" viewBox="0 0 24 24" fill="none" xmlns="http://www.w3.org/2000/svg">
<g clip-path="url(#clip0)">
<path d="M11.9998 6.66667C11.2665 6.66667 10.6665 6.06667 10.6665 5.33333V3.33333C10.6665 2.6 11.2665 2 11.9998 2C12.7332 2 13.3332 2.6 13.3332 3.33333V5.33333C13.3332 6.06667 12.7332 6.66667 11.9998 6.66667Z" fill="#3F5F6F"/>
<path d="M12 14C14.2091 14 16 12.2091 16 10C16 7.79086 14.2091 6 12 6C9.79086 6 8 7.79086 8 10C8 12.2091 9.79086 14 12 14Z" fill="#BF2A46"/>
<path d="M10.6667 5.33325H13.3333V7.99992H10.6667V5.33325ZM14.6667 23.9999H9.33333C8.6 23.9999 8 23.3999 8 22.6666V9.99992H16V22.6666C16 23.3999 15.4 23.9999 14.6667 23.9999Z" fill="#BF2A46"/>
<path d="M6.27091 23.8994L3.27624 23.0574C2.92358 22.9581 2.71758 22.7021 2.81958 22.4888L5.77891 16.2814C6.08424 15.6414 6.63091 15.2008 6.99424 15.3034L7.14091 15.3448C7.50424 15.4468 7.74091 16.1074 7.66824 16.8128L6.95824 23.6528C6.93291 23.8881 6.62424 23.9988 6.27091 23.8994Z" fill="#1F323F"/>
<path d="M17.3478 1.49865L10.7825 2.65598C10.4212 2.71931 10.0739 2.47598 10.0105 2.11531C9.94718 1.75398 10.1905 1.40665 10.5512 1.34331L17.1165 0.185981C17.4778 0.121981 17.8252 0.365981 17.8885 0.726648C17.9518 1.08798 17.7085 1.43531 17.3478 1.49865Z" fill="#667F8A"/>
<path d="M16.7033 4.90681L10.4386 2.62681C10.094 2.50147 9.91464 2.11681 10.04 1.77214C10.1653 1.42747 10.55 1.24814 10.8946 1.37347L17.1593 3.65347C17.504 3.77881 17.6833 4.16347 17.558 4.50814C17.4326 4.85281 17.048 5.03214 16.7033 4.90681Z" fill="#667F8A"/>
<path d="M7.01584 16.2713C6.98784 16.2713 6.95918 16.2687 6.93051 16.264C6.65851 16.2173 6.47584 15.958 6.52251 15.686C7.00651 12.884 6.62984 11.554 6.29851 10.3807C6.04118 9.47133 5.79851 8.612 6.07851 7.34333C6.70118 4.524 9.16318 3.5 10.6665 3.5C10.9425 3.5 11.1665 3.724 11.1665 4C11.1665 4.276 10.9425 4.5 10.6665 4.5C9.84984 4.5 7.60918 5.04933 7.05518 7.55933C6.82918 8.58267 7.01051 9.22267 7.26118 10.1087C7.60451 11.3213 8.03118 12.8307 7.50918 15.8567C7.46651 16.0993 7.25451 16.2713 7.01584 16.2713Z" fill="#1F323F"/>
<path d="M10.6665 6.66675C11.7711 6.66675 12.6665 5.77132 12.6665 4.66675C12.6665 3.56218 11.7711 2.66675 10.6665 2.66675C9.56193 2.66675 8.6665 3.56218 8.6665 4.66675C8.6665 5.77132 9.56193 6.66675 10.6665 6.66675Z" fill="#D5DDE0"/>
<path d="M10.6668 5.99992C11.4032 5.99992 12.0002 5.40297 12.0002 4.66659C12.0002 3.93021 11.4032 3.33325 10.6668 3.33325C9.93045 3.33325 9.3335 3.93021 9.3335 4.66659C9.3335 5.40297 9.93045 5.99992 10.6668 5.99992Z" fill="#E14554"/>
<path d="M11 6.66675C10.448 6.66675 10 7.71141 10 9.00008V23.6667C10 23.8501 10.15 24.0001 10.3333 24.0001H11.6667C11.85 24.0001 12 23.8501 12 23.6667V9.00008C12 7.71141 11.552 6.66675 11 6.66675Z" fill="#E14554"/>
<path d="M13.6668 12.0001H10.3335C9.7835 12.0001 9.3335 11.5501 9.3335 11.0001V9.66675C9.3335 9.11675 9.7835 8.66675 10.3335 8.66675H13.6668C14.2168 8.66675 14.6668 9.11675 14.6668 9.66675V11.0001C14.6668 11.5501 14.2168 12.0001 13.6668 12.0001Z" fill="#E9ECED"/>
<path d="M10.6668 3.33325C10.2988 3.33325 9.96545 3.48259 9.72412 3.72392L10.6668 4.66658L11.6095 3.72392C11.3681 3.48259 11.0348 3.33325 10.6668 3.33325Z" fill="#6AC8C2"/>
</g>
<defs>
<clipPath id="clip0">
<rect width="24" height="24" fill="white"/>
</clipPath>
</defs>
</svg>
