<svg width="24" height="24" viewBox="0 0 24 24" fill="none" xmlns="http://www.w3.org/2000/svg">
<g clip-path="url(#clip0)">
<path d="M10.6665 0H13.3332V3.33333H10.6665V0Z" fill="#1F323F"/>
<path d="M10.6665 1.33325H13.3332V3.99992H10.6665V1.33325Z" fill="#D5DDE0"/>
<path d="M12 1.33325H13.3333V3.99992H12V1.33325Z" fill="#B0BDC2"/>
<path d="M12.0002 12.6667H3.3335C3.3335 12.6667 4.23683 18.0001 6.5835 22.0001C8.9295 26.0001 12.0002 22.0001 12.0002 22.0001C12.0002 22.0001 15.0708 26.0001 17.4168 22.0001C19.7635 18.0001 20.6668 12.6667 20.6668 12.6667H12.0002Z" fill="#667F8A"/>
<path d="M12.0002 12.6667H3.3335C3.3335 12.6667 4.23683 18.0001 6.5835 22.0001C8.9295 26.0001 12.0002 22.0001 12.0002 22.0001V12.6667Z" fill="#8A9AA1"/>
<path d="M0 20H24V24H0V20Z" fill="#50BFB8"/>
<path d="M20 6.00016H18.3667L18.2053 3.3335H5.79467L5.634 6.00016H4V10.0002H5.392L5.23067 12.6668H18.7693L18.608 10.0002H20V6.00016Z" fill="#E9ECED"/>
<path d="M6.66699 10H17.3337V12.6667H6.66699V10Z" fill="#D5DDE0"/>
<path d="M5.33301 7.33325H18.6663V8.66658H5.33301V7.33325Z" fill="#667F8A"/>
<path d="M6.66699 4.66675H17.3337V6.00008H6.66699V4.66675Z" fill="#B0BDC2"/>
<path d="M3.94173 15.3333H20.0577C20.1917 14.8353 20.3031 14.382 20.3911 14H3.6084C3.6964 14.382 3.80773 14.8353 3.94173 15.3333Z" fill="#BF2A46"/>
<path d="M12 15.3333H20.058C20.192 14.8353 20.3033 14.382 20.3913 14H12V15.3333Z" fill="#6D1727"/>
<path d="M8 11.3333H16V12.6666H8V11.3333Z" fill="#B0BDC2"/>
<path d="M10.6665 0H11.9998V1.33333H10.6665V0Z" fill="#335567"/>
</g>
<defs>
<clipPath id="clip0">
<rect width="24" height="24" fill="white"/>
</clipPath>
</defs>
</svg>
