<svg width="24" height="24" viewBox="0 0 24 24" fill="none" xmlns="http://www.w3.org/2000/svg">
<path d="M20.0005 19.3333C19.7685 19.3333 19.5438 19.2126 19.4212 18.9973L16.5978 14.3466C16.4152 14.0273 16.4865 13.6273 16.8058 13.4439L20.1112 11.4439C20.2152 11.3846 20.4418 11.3333 20.5538 11.3333C20.7858 11.3333 21.0018 11.4653 21.1245 11.6806L23.1958 15.0953L23.3052 16.5833C23.4878 16.9026 22.6665 17.3726 22.3465 17.5553L20.3298 19.2453C20.2265 19.3053 20.1125 19.3333 20.0005 19.3333Z" fill="#276864"/>
<path d="M15.3332 21.3334C14.9645 21.3334 14.6665 21.0354 14.6665 20.6667V16.6667C14.6665 16.2981 14.9645 16.0001 15.3332 16.0001H21.9998C23.2332 16.0001 23.0332 14.8127 23.0332 14.8127C23.0332 14.8127 23.2512 15.1874 23.2832 15.2467C23.5012 15.6561 23.6458 16.2814 23.3058 16.9167L21.2465 20.9981C21.1498 21.1907 20.9192 21.3334 20.6665 21.3334H15.3332Z" fill="#6AC8C2"/>
<path d="M14.6668 23.3333C14.4935 23.3333 14.3228 23.2653 14.1955 23.138L10.1955 19.138C9.93483 18.8773 9.93483 18.456 10.1955 18.1953L14.1955 14.1953C14.3228 14.068 14.4935 14 14.6668 14C14.7528 14 14.8395 14.016 14.9222 14.0507C15.1715 14.1533 15.3335 14.3973 15.3335 14.6667V22.6667C15.3335 22.936 15.1715 23.18 14.9222 23.2827C14.8395 23.3173 14.7528 23.3333 14.6668 23.3333Z" fill="#6AC8C2"/>
<path d="M13.7289 2.1993C13.8343 2.40597 13.8289 2.66063 13.6929 2.86863L10.8309 7.4953C10.6289 7.80397 10.2403 7.9213 9.93226 7.7193L6.64959 5.6833C6.54959 5.6173 6.40026 5.43863 6.34959 5.3393C6.24426 5.13263 6.26359 4.88063 6.39959 4.67263L8.50092 1.27664L9.77692 0.503969C9.97892 0.195302 10.7703 0.713969 11.0789 0.916635L13.4996 1.94597C13.6009 2.01197 13.6783 2.10064 13.7289 2.1993Z" fill="#276864"/>
<path d="M17.6294 5.44992C17.7968 5.77859 17.6674 6.17925 17.3381 6.34725L13.7734 8.16325C13.4454 8.32992 13.0441 8.19992 12.8774 7.87192L9.84942 1.93192C9.29009 0.832585 8.32275 1.54992 8.32275 1.54992C8.32275 1.54992 8.55742 1.18592 8.59609 1.12992C8.86209 0.749919 9.35275 0.337919 10.0734 0.351919L14.6461 0.333252C14.8621 0.333252 15.0934 0.472585 15.2088 0.697919L17.6294 5.44992Z" fill="#6AC8C2"/>
<path d="M19.7141 5.13672C19.7928 5.29072 19.8095 5.47339 19.7541 5.64472L18.0068 11.0254C17.8935 11.3754 17.5175 11.5667 17.1668 11.4534L11.7868 9.70472C11.6148 9.64939 11.4775 9.52806 11.3981 9.37406C11.3588 9.29806 11.3341 9.21272 11.3268 9.12339C11.3055 8.85406 11.4495 8.59939 11.6895 8.47739L18.8175 4.84539C19.0575 4.72272 19.3475 4.75606 19.5528 4.93206C19.6215 4.98939 19.6755 5.06006 19.7141 5.13672Z" fill="#6AC8C2"/>
<path d="M2.24999 16.3614C2.37065 16.1634 2.58999 16.0347 2.83799 16.042L8.27865 16.0454C8.64732 16.0567 8.95132 16.3254 8.94199 16.6934L8.93265 20.5567C8.92932 20.6767 8.85532 20.898 8.79732 20.9927C8.67665 21.1907 8.45132 21.3074 8.20332 21.3L4.20999 21.2947L2.88132 20.6154C2.51399 20.604 2.53932 19.6587 2.54865 19.2914L2.15332 16.6887C2.15599 16.5694 2.19199 16.4567 2.24999 16.3614Z" fill="#276864"/>
<path d="M2.96744 11.3346C3.15877 11.02 3.56877 10.92 3.88344 11.1113L7.30077 13.1906C7.6161 13.382 7.71544 13.7913 7.5241 14.1066L4.05944 19.802C3.41944 20.8553 4.53744 21.302 4.53744 21.302C4.53744 21.302 4.1041 21.2926 4.03677 21.2886C3.57277 21.2633 2.9641 21.0613 2.59744 20.4413L0.180104 16.5613C0.0661044 16.378 0.0641044 16.1066 0.195438 15.8906L2.96744 11.3346Z" fill="#6AC8C2"/>
<path d="M1.60487 9.72608C1.69553 9.57674 1.84153 9.46741 2.01687 9.42341L7.51353 8.08608C7.87153 7.99808 8.23153 8.21741 8.31887 8.57541L9.65687 14.0714C9.69953 14.2474 9.6682 14.4274 9.5782 14.5761C9.5342 14.6487 9.47487 14.7147 9.4022 14.7681C9.18487 14.9267 8.89287 14.9387 8.6622 14.7987L1.82887 10.6421C1.5982 10.5014 1.47487 10.2361 1.5162 9.97008C1.52953 9.88074 1.5602 9.79941 1.60487 9.72608Z" fill="#6AC8C2"/>
</svg>
