<svg width="24" height="24" viewBox="0 0 24 24" fill="none" xmlns="http://www.w3.org/2000/svg">
<path d="M24 21.3333C24 22.8059 22.806 23.9999 21.3333 23.9999H2.66667C1.194 23.9999 0 22.8059 0 21.3333V15.3333C0 13.8606 0.527333 13.3333 2 13.3333H22C23.4727 13.3333 24 13.8606 24 15.3333V21.3333Z" fill="#B0BDC2"/>
<path d="M16.6668 13.3333C16.6668 15.9106 14.5775 17.9999 12.0002 17.9999C9.42283 17.9999 7.3335 15.9106 7.3335 13.3333H16.6668Z" fill="#294353"/>
<path d="M2.66667 23.9999H21.3333C22.806 23.9999 24 22.8059 24 21.3333H0C0 22.8059 1.194 23.9999 2.66667 23.9999Z" fill="#D5DDE0"/>
<path d="M17.8105 5.33333H14.6218V1.33333C14.6218 0.596667 14.0245 0 13.2885 0H10.6211C9.88513 0 9.28847 0.597333 9.28847 1.33333V5.33333H6.09847C5.28313 5.33333 5.0878 5.74867 5.66447 6.326L10.9065 11.568C11.4831 12.1447 12.4265 12.1447 13.0038 11.568L18.2458 6.326C18.8211 5.74867 18.6265 5.33333 17.8105 5.33333Z" fill="#6AC8C2"/>
</svg>
