<svg width="24" height="24" viewBox="0 0 24 24" fill="none" xmlns="http://www.w3.org/2000/svg">
<path d="M14.6665 1.33333H9.33317C8.9665 1.33333 8.6665 1.03333 8.6665 0.666667C8.6665 0.3 8.9665 0 9.33317 0H14.6665C15.0332 0 15.3332 0.3 15.3332 0.666667C15.3332 1.03333 15.0332 1.33333 14.6665 1.33333Z" fill="#1F323F"/>
<path d="M8.6665 0.666748H9.99984V2.00008H8.6665V0.666748ZM13.9998 0.666748H15.3332V2.00008H13.9998V0.666748Z" fill="#1F323F"/>
<path d="M8.6665 2H9.99984V6H8.6665V2ZM13.9998 2H15.3332V6H13.9998V2Z" fill="#B0BDC2"/>
<path d="M4.66667 16.6666C4.3 16.6666 4 16.3666 4 15.9999V11.9999C4 11.6333 4.3 11.3333 4.66667 11.3333C5.03333 11.3333 5.33333 11.6333 5.33333 11.9999V15.9999C5.33333 16.3666 5.03333 16.6666 4.66667 16.6666ZM6.66667 22.7999H6C5.63333 22.7999 5.33333 22.4999 5.33333 22.1333V21.4666C5.33333 21.0999 5.63333 20.7999 6 20.7999H6.66667C7.03333 20.7999 7.33333 21.0999 7.33333 21.4666V22.1333C7.33333 22.4999 7.03333 22.7999 6.66667 22.7999ZM18 22.7999H17.3333C16.9667 22.7999 16.6667 22.4999 16.6667 22.1333V21.4666C16.6667 21.0999 16.9667 20.7999 17.3333 20.7999H18C18.3667 20.7999 18.6667 21.0999 18.6667 21.4666V22.1333C18.6667 22.4999 18.3667 22.7999 18 22.7999Z" fill="#1F323F"/>
<path d="M17.9998 21.9999H5.99984C5.2665 21.9999 4.6665 21.3999 4.6665 20.6666V6.66659C4.6665 5.93325 5.2665 5.33325 5.99984 5.33325H17.9998C18.7332 5.33325 19.3332 5.93325 19.3332 6.66659V20.6666C19.3332 21.3999 18.7332 21.9999 17.9998 21.9999Z" fill="#348D88"/>
<path d="M17.3333 12.0001H6.66667C6.3 12.0001 6 11.7001 6 11.3334V7.33341C6 6.96675 6.3 6.66675 6.66667 6.66675H17.3333C17.7 6.66675 18 6.96675 18 7.33341V11.3334C18 11.7001 17.7 12.0001 17.3333 12.0001ZM17.3333 20.6667H6.66667C6.3 20.6667 6 20.3667 6 20.0001V13.3334C6 12.9667 6.3 12.6667 6.66667 12.6667H17.3333C17.7 12.6667 18 12.9667 18 13.3334V20.0001C18 20.3667 17.7 20.6667 17.3333 20.6667Z" fill="#50BFB8"/>
<path d="M6.00016 24.0001C6.36835 24.0001 6.66683 23.7016 6.66683 23.3334C6.66683 22.9652 6.36835 22.6667 6.00016 22.6667C5.63197 22.6667 5.3335 22.9652 5.3335 23.3334C5.3335 23.7016 5.63197 24.0001 6.00016 24.0001Z" fill="#1F323F"/>
<path d="M18.0002 24.0001C18.3684 24.0001 18.6668 23.7016 18.6668 23.3334C18.6668 22.9652 18.3684 22.6667 18.0002 22.6667C17.632 22.6667 17.3335 22.9652 17.3335 23.3334C17.3335 23.7016 17.632 24.0001 18.0002 24.0001Z" fill="#1F323F"/>
<path d="M16.9998 7.99992H6.99984C6.8165 7.99992 6.6665 7.84992 6.6665 7.66659C6.6665 7.48325 6.8165 7.33325 6.99984 7.33325H16.9998C17.1832 7.33325 17.3332 7.48325 17.3332 7.66659C17.3332 7.84992 17.1832 7.99992 16.9998 7.99992ZM16.9998 13.9999H6.99984C6.8165 13.9999 6.6665 13.8499 6.6665 13.6666C6.6665 13.4833 6.8165 13.3333 6.99984 13.3333H16.9998C17.1832 13.3333 17.3332 13.4833 17.3332 13.6666C17.3332 13.8499 17.1832 13.9999 16.9998 13.9999Z" fill="#276864"/>
<path d="M7.6665 7.99992H6.99984C6.8165 7.99992 6.6665 7.84992 6.6665 7.66659C6.6665 7.48325 6.8165 7.33325 6.99984 7.33325H7.6665C7.84984 7.33325 7.99984 7.48325 7.99984 7.66659C7.99984 7.84992 7.84984 7.99992 7.6665 7.99992ZM7.6665 13.9999H6.99984C6.8165 13.9999 6.6665 13.8499 6.6665 13.6666C6.6665 13.4833 6.8165 13.3333 6.99984 13.3333H7.6665C7.84984 13.3333 7.99984 13.4833 7.99984 13.6666C7.99984 13.8499 7.84984 13.9999 7.6665 13.9999Z" fill="#D5DDE0"/>
</svg>
