<svg width="24" height="24" viewBox="0 0 24 24" fill="none" xmlns="http://www.w3.org/2000/svg">
<path d="M14.6668 22.0001C14.6668 23.4727 9.3335 23.4727 9.3335 22.0001V15.3334C9.3335 13.8607 10.5275 12.6667 12.0002 12.6667C13.4728 12.6667 14.6668 13.8607 14.6668 15.3334V22.0001Z" fill="#667F8A"/>
<path d="M6.66683 2C3.7215 2 1.3335 4.388 1.3335 7.33333V15.3333H12.0002V7.33333C12.0002 4.388 9.61216 2 6.66683 2Z" fill="#294353"/>
<path d="M13.3333 12.5073C13.3333 13.3313 12.6233 14 11.8047 14H1.52867C0.709333 14 0 13.3313 0 12.5073V5.49267C0 4.66867 0.709333 4 1.52867 4H11.8047C12.6233 4 13.3333 4.66867 13.3333 5.49267V12.5073Z" fill="#D5DDE0"/>
<path d="M13.3333 5.49267C13.3333 4.66867 12.6233 4 11.8047 4H1.52867C0.709333 4 0 4.66867 0 5.49267V6.43867L3.25267 9.708L0.066 12.912C0.140667 13.1627 0.276667 13.3893 0.463333 13.5673L3.778 10.2353L5.38267 11.848C6.084 12.5547 7.228 12.5547 7.93 11.848L9.54733 10.2267L12.87 13.5673C13.0567 13.3887 13.192 13.162 13.2673 12.912L10.0727 9.7L13.3333 6.43067V5.49267Z" fill="#8A9AA1"/>
<path d="M11.805 4H1.52901C0.751672 4 0.0810052 4.604 0.0136719 5.37L5.61901 10.968C6.19834 11.5507 7.13701 11.528 7.71567 10.9447L13.3223 5.38067C13.2597 4.60933 12.585 4 11.805 4Z" fill="#E9ECED"/>
<path d="M17.3332 2H6.6665C9.61184 2 11.9998 4.388 11.9998 7.33333V15.3333H22.6665V7.33333C22.6665 4.388 20.2785 2 17.3332 2Z" fill="#B0BDC2"/>
<path d="M17.3335 0.666748H14.6668C13.9308 0.666748 13.3335 1.26408 13.3335 2.00008V10.0001C13.3335 10.7361 13.9308 11.3334 14.6668 11.3334C15.4028 11.3334 16.0002 10.7361 16.0002 10.0001V4.66675H17.3335C18.0695 4.66675 18.6668 4.06941 18.6668 3.33341V2.00008C18.6668 1.26408 18.0695 0.666748 17.3335 0.666748Z" fill="#E14554"/>
</svg>
