<svg width="24" height="24" viewBox="0 0 24 24" fill="none" xmlns="http://www.w3.org/2000/svg">
<path d="M0.782715 19.1595C0.782715 20.6322 1.97671 21.8262 3.44938 21.8262H19.4494C20.922 21.8262 22.116 20.6322 22.116 19.1595V7.82617C22.116 6.3535 20.922 5.1595 19.4494 5.1595H13.4494C11.0747 5.1595 11.4494 1.82617 7.82405 1.82617H3.44938C1.97671 1.82617 0.782715 3.02017 0.782715 4.49284V19.1595Z" fill="#294353"/>
<path d="M20.7827 6.66675H16.408C12.7827 6.66675 13.1574 10.0001 10.7827 10.0001H4.78271C3.31005 10.0001 2.11605 11.1941 2.11605 12.6668V19.3334C2.11605 19.7021 1.81738 20.0001 1.44938 20.0001C1.08138 20.0001 0.782715 19.7021 0.782715 19.3334C0.782715 20.8061 1.97671 22.0001 3.44938 22.0001H20.7827C22.2554 22.0001 23.4494 20.8061 23.4494 19.3334V9.33342C23.4494 7.86075 22.2554 6.66675 20.7827 6.66675Z" fill="#8A9AA1"/>
</svg>
