<svg width="27" height="26" viewBox="0 0 27 26" fill="none" xmlns="http://www.w3.org/2000/svg">
<g clip-path="url(#clip0)">
<path d="M5.55556 8.66668C5.55556 9.06535 5.232 9.3889 4.83333 9.3889H1.22222C0.823556 9.3889 0.5 9.06535 0.5 8.66668C0.5 8.26801 0.823556 7.94446 1.22222 7.94446H4.83333C5.232 7.94446 5.55556 8.26801 5.55556 8.66668ZM4.11111 12.2778C4.11111 12.6765 3.78756 13 3.38889 13H1.22222C0.823556 13 0.5 12.6765 0.5 12.2778C0.5 11.8791 0.823556 11.5556 1.22222 11.5556H3.38889C3.78756 11.5556 4.11111 11.8791 4.11111 12.2778ZM2.66667 15.8889C2.66667 16.2883 2.34311 16.6111 1.94444 16.6111H1.22222C0.823556 16.6111 0.5 16.2883 0.5 15.8889C0.5 15.4895 0.823556 15.1667 1.22222 15.1667H1.94444C2.34311 15.1667 2.66667 15.4895 2.66667 15.8889Z" fill="#50BFB8"/>
<path d="M23.8285 18.0556C23.3763 19.6509 21.716 20.9444 20.1206 20.9444H5.67613C4.08074 20.9444 3.15413 19.6509 3.60624 18.0556L6.06035 9.38889C6.51246 7.7935 8.17213 6.5 9.76752 6.5H24.212C25.8073 6.5 26.7347 7.7935 26.2826 9.38889L23.8285 18.0556Z" fill="#D5DDE0"/>
<path d="M13.0206 12.7371L3.66637 19.4631C3.64181 19.4833 3.62737 19.5086 3.60498 19.5288C3.73426 19.9405 3.97909 20.2821 4.32142 20.5284C4.3467 20.5118 4.37415 20.5046 4.3987 20.4851L13.7529 13.7583C14.1148 13.4759 14.2448 13.0194 14.0425 12.7371C13.8396 12.4547 13.3831 12.4547 13.0206 12.7371ZM22.9945 19.5288C22.9836 19.5086 22.9829 19.4833 22.9699 19.4638L17.4276 12.7371C17.2246 12.4547 16.7682 12.4547 16.4049 12.7371C16.0431 13.0194 15.9138 13.4759 16.116 13.7583L21.6598 20.4851C21.6728 20.5038 21.6966 20.5118 21.7118 20.5284C22.1928 20.2828 22.6319 19.9405 22.9945 19.5288Z" fill="#8A9AA1"/>
<path d="M26.2823 9.38889C26.7344 7.7935 25.8071 6.5 24.2117 6.5H9.76726C8.17187 6.5 6.5122 7.7935 6.06009 9.38889L6.04492 9.44233L12.4048 15.5466C13.5828 16.6906 15.1406 16.6118 16.5395 15.8145L26.0924 10.0627L26.2823 9.38889Z" fill="#8A9AA1"/>
<path d="M24.2117 6.5H9.76729C8.62762 6.5 7.46412 7.16517 6.72168 8.12356L13.3784 14.4748C13.9193 14.9941 15.1363 15.0013 16.0188 14.4748L26.3423 8.14233C26.1502 7.17383 25.3586 6.5 24.2117 6.5Z" fill="#E9ECED"/>
</g>
<defs>
<clipPath id="clip0">
<rect width="26" height="26" fill="white" transform="translate(0.5)"/>
</clipPath>
</defs>
</svg>
