<svg width="27" height="26" viewBox="0 0 27 26" fill="none" xmlns="http://www.w3.org/2000/svg">
<path d="M25.7777 14.4445C25.7777 16.0399 24.4842 15.8889 22.8888 15.8889H4.11106C2.51567 15.8889 1.22217 16.0399 1.22217 14.4445L2.66661 5.7778C2.75689 4.3933 3.96011 2.88892 5.5555 2.88892H21.4444C23.0398 2.88892 24.1823 4.48358 24.3333 5.7778L25.7777 14.4445Z" fill="#3F5F6F"/>
<path d="M20.7223 9.38891C20.7223 10.1862 20.0752 10.8334 19.2778 10.8334H7.72228C6.92494 10.8334 6.27783 10.1862 6.27783 9.38891V3.61113C6.27783 2.81308 6.92494 2.16669 7.72228 2.16669H19.2778C20.0752 2.16669 20.7223 2.81308 20.7223 3.61113V9.38891Z" fill="#DFE6E8"/>
<path d="M22.1668 12.2778C22.1668 13.0751 21.5197 13.7222 20.7224 13.7222H6.27794C5.48061 13.7222 4.8335 13.0751 4.8335 12.2778V6.49999C4.8335 5.70265 5.48061 5.05554 6.27794 5.05554H20.7224C21.5197 5.05554 22.1668 5.70265 22.1668 6.49999V12.2778Z" fill="#EAEFF1"/>
<path d="M23.6114 15.1667C23.6114 15.964 22.9643 16.6111 22.1669 16.6111H4.8336C4.03627 16.6111 3.38916 15.964 3.38916 15.1667V9.3889C3.38916 8.59157 4.03627 7.94446 4.8336 7.94446H22.1669C22.9643 7.94446 23.6114 8.59157 23.6114 9.3889V15.1667Z" fill="#F8FAFB"/>
<path d="M25.7777 22.3889C25.7777 23.9843 24.4842 25.2778 22.8888 25.2778H4.11106C2.51567 25.2778 1.22217 23.9843 1.22217 22.3889V14.4444C1.22217 12.849 2.51567 11.5555 4.11106 11.5555H22.8888C24.4842 11.5555 25.7777 12.849 25.7777 14.4444V22.3889Z" fill="#8A9AA1"/>
<path d="M16.3891 0.722229H12.7779C11.9806 0.722229 11.3335 1.36862 11.3335 2.16667V2.8889H14.2224C15.0197 2.8889 15.6668 3.53601 15.6668 4.33334H16.3891C17.1864 4.33334 17.8335 3.68623 17.8335 2.8889V2.16667C17.8335 1.36862 17.1864 0.722229 16.3891 0.722229Z" fill="#EDCB1C"/>
<path d="M13.4999 3.61108H9.88878C9.09145 3.61108 8.44434 4.2582 8.44434 5.05553V5.77775H11.3332C12.1306 5.77775 12.7777 6.42486 12.7777 7.2222H13.4999C14.2972 7.2222 14.9443 6.57508 14.9443 5.77775V5.05553C14.9443 4.2582 14.2972 3.61108 13.4999 3.61108Z" fill="#50BFB8"/>
<path d="M12.0557 8.66667C12.0557 9.464 11.4086 10.1111 10.6112 10.1111H7.00011C6.20278 10.1111 5.55566 9.464 5.55566 8.66667V7.94444C5.55566 7.14711 6.20278 6.5 7.00011 6.5H10.6112C11.4086 6.5 12.0557 7.14711 12.0557 7.94444V8.66667Z" fill="#BF2A46"/>
<path d="M18.5554 20.2222C18.5554 21.0196 17.9083 21.6667 17.111 21.6667H9.88878C9.09145 21.6667 8.44434 21.0196 8.44434 20.2222V16.6111C8.44434 15.8138 9.09145 15.1667 9.88878 15.1667H17.111C17.9083 15.1667 18.5554 15.8138 18.5554 16.6111V20.2222Z" fill="#3F5F6F"/>
<path d="M17.1114 19.5C17.1114 19.8994 16.7885 20.2222 16.3892 20.2222H10.6114C10.2127 20.2222 9.88916 19.8994 9.88916 19.5V17.3333C9.88916 16.9339 10.2127 16.6111 10.6114 16.6111H16.3892C16.7885 16.6111 17.1114 16.9339 17.1114 17.3333V19.5Z" fill="#D5DDE0"/>
</svg>
