<svg width="24" height="24" viewBox="0 0 24 24" fill="none" xmlns="http://www.w3.org/2000/svg">
<path d="M8 5.07138L2 3.46404C0.895333 3.16804 0 3.82338 0 4.92871V18.262C0 19.366 0.895333 20.5014 2 20.798L8 22.4054V5.07138ZM16 20.262L22 21.8694C23.104 22.1647 24 21.5094 24 20.4054V7.07204C24 5.96738 23.104 4.83204 22 4.53604L16 2.92871V20.262Z" fill="#D5DDE0"/>
<path d="M16 20.2613L8 22.4046V5.07131L16 2.92798V20.2613Z" fill="#E9ECED"/>
<path d="M8.00016 6.40474L2.66683 4.97541C1.93083 4.77808 1.3335 5.21541 1.3335 5.95141V17.9514C1.3335 18.6874 1.93083 19.4447 2.66683 19.6414L8.00016 21.0714V6.40474ZM21.3335 5.69008L16.0002 4.26074V18.9274L21.3335 20.3567C22.0695 20.5541 22.6668 20.1174 22.6668 19.3801V7.38008C22.6668 6.64474 22.0695 5.88741 21.3335 5.69008Z" fill="#6AC8C2"/>
<path d="M16 18.9279L8 21.0712V6.40456L16 4.26123V18.9279Z" fill="#B5E3E1"/>
<path d="M8.00003 14.3373C7.82136 14.3413 7.60336 14.4066 7.43669 14.4339C7.14603 14.4826 7.21736 14.7786 7.12803 14.7293C7.03803 14.6799 6.81136 14.5526 6.58669 14.2906C6.36203 14.0279 6.75336 13.9726 6.86536 13.8759C6.97736 13.7793 6.65469 13.7613 6.54203 13.6546C6.42936 13.5486 6.22803 13.7239 6.04936 13.4706C5.86936 13.2199 5.98203 12.9439 5.96069 12.6839C5.93803 12.4239 6.25136 12.4566 6.45336 12.4613C6.65536 12.4633 6.81203 12.5573 6.81203 12.8626C6.81203 13.1666 7.05869 13.3346 6.99136 12.9599C6.92403 12.5859 7.05869 12.5219 7.14803 12.3666C7.23736 12.2133 7.39469 11.9999 7.59603 11.6733C7.74336 11.4346 7.85536 11.4846 8.00003 11.5639V9.33394C7.96336 9.3046 7.92669 9.27393 7.89003 9.2586C7.68803 9.1706 7.95403 9.7606 7.79736 9.99794C7.63936 10.2353 7.39869 10.1266 7.15069 10.0606C6.90469 9.9946 6.67536 9.69727 6.85536 9.38927C7.03403 9.08127 7.37669 9.2106 7.55603 8.95394C7.73536 8.69727 6.91803 8.50594 6.62669 8.3266C6.33469 8.14594 5.98469 8.05394 5.69336 8.22927C5.40203 8.40527 4.77803 8.31793 4.53136 8.35327C4.28469 8.38927 4.24069 8.10727 4.19603 7.89127C4.15136 7.6766 3.76069 7.67193 3.35803 7.66593C2.95403 7.65927 2.19736 7.85327 2.32669 8.8386C2.37203 9.18127 2.73003 8.92127 2.79803 8.8626C2.86536 8.80393 3.20136 8.99594 3.24536 9.28727C3.29069 9.57994 3.26869 9.8786 3.17936 10.1086C3.08803 10.3386 3.40336 10.7793 3.58203 11.1833C3.76136 11.5866 3.96403 11.6406 4.05336 11.6653C4.14336 11.6893 4.65869 12.0566 4.63669 12.3293C4.61469 12.6033 5.10736 12.9899 5.30936 13.2226C5.51136 13.4559 5.63869 13.6639 5.90069 13.7866C6.16269 13.9086 6.46869 14.4766 6.60336 14.5633C6.70669 14.6299 6.88203 14.8639 6.98736 14.9499C6.84869 15.1113 6.57936 15.4486 6.57936 15.6359C6.57936 15.8913 6.87269 16.3713 6.98469 16.5026C7.09603 16.6333 7.41803 16.7973 7.48536 17.0693C7.55269 17.3406 7.43869 18.1666 7.23736 18.3406C7.03469 18.5153 6.96136 19.0359 6.96136 19.0359C6.96136 19.0359 7.03269 19.2313 7.27136 19.1186C7.47736 19.0226 7.78869 18.7413 8.00069 18.5846V14.3373H8.00003Z" fill="#3BA09A"/>
<path d="M8.17867 11.6087C8.112 11.6194 8.054 11.6167 8 11.6161V9.38608C8.16933 9.42941 8.34133 9.59741 8.47133 9.87674C8.62733 10.2161 8.874 9.92074 8.964 10.1261C9.05333 10.3314 9.54733 10.6314 9.30067 10.6207C9.05333 10.6107 8.80667 10.6261 8.74 10.9234C8.672 11.2221 8.852 11.4527 8.672 11.4754C8.492 11.4974 8.42533 11.5701 8.17867 11.6087ZM9.90533 15.3141C9.61467 15.2647 9.666 15.2987 9.48667 14.9147C9.308 14.5301 9.19933 14.4194 8.796 14.4774C8.39267 14.5354 8.40733 14.5681 8.29533 14.3687C8.24733 14.2834 8.13467 14.3141 8 14.3894V18.6361C8.06 18.5601 8.11333 18.4954 8.152 18.4581C8.48867 18.1401 8.816 17.7741 9.12933 17.3607C9.44267 16.9467 9.32933 16.7447 9.486 16.3734C9.64333 16.0014 9.84667 15.9621 10.1153 15.6101C10.3853 15.2567 10.1967 15.3647 9.90533 15.3141ZM16 10.4874V6.27808C15.9733 6.28074 15.9547 6.28608 15.9267 6.28808C15.7873 6.29541 15.6053 6.37808 15.4073 6.50141C15.3913 6.49808 15.3767 6.49074 15.3607 6.48741C14.7633 6.37074 14.486 7.29074 14.0013 7.25541C13.5153 7.22008 12.868 7.02608 12.4467 7.59808C12.026 8.16941 11.9287 8.61808 12.4467 8.46074C12.9647 8.30341 13.3213 7.51074 13.58 7.73474C13.8387 7.95874 13.7733 8.21541 13.1587 8.47141C12.544 8.72808 11.88 9.01608 11.524 9.11141C11.168 9.20674 11.0873 9.46741 11.3293 9.65941C11.572 9.85141 11.1833 9.97341 10.7787 10.3394C10.374 10.7041 10.876 10.6807 11.216 10.8094C11.556 10.9381 11.8147 10.5941 11.9607 10.1881C12.1053 9.78274 12.7327 9.17408 12.994 9.15874C13.2553 9.14341 13.2553 9.29008 13.206 9.56008C13.1973 9.60741 13.2067 9.62874 13.2133 9.65208C13.1 10.0121 13.0067 10.3387 12.97 10.5227C12.9527 10.6127 12.9493 10.7567 12.952 10.9194C12.8947 10.9221 12.83 10.9334 12.7867 10.9201C12.4947 10.8341 11.8307 10.7734 11.6527 10.9487C11.4747 11.1254 11.378 11.2834 11.1673 11.4307C10.956 11.5767 10.0987 12.2467 10.0827 12.8201C10.066 13.3927 10.05 14.0401 10.39 13.9674C10.73 13.8947 11.556 13.4167 11.8147 13.1087C12.0727 12.8001 12.4287 12.7607 12.5427 13.0047C12.656 13.2507 12.5747 13.4374 12.4627 13.9074C12.3487 14.3794 12.536 14.5494 12.7167 14.8861C12.8987 15.2221 13.044 15.4027 13.044 15.6787C13.044 15.9534 13.3033 16.1607 13.6907 15.5967C13.816 15.4167 13.9353 15.1927 14.048 14.9587C14.3207 14.6461 14.56 14.3434 14.5533 14.2281C14.5427 14.0407 14.5393 13.9387 14.5373 13.8121L14.598 13.6654C14.6827 13.4701 14.7587 13.1681 14.8393 12.8954C14.844 12.8887 14.848 12.8841 14.8527 12.8794C15.0107 12.6547 14.976 12.6441 15.2393 12.3754C15.4153 12.1954 15.4087 12.0341 15.382 11.9234C15.452 11.8067 15.4713 11.7367 15.36 11.7667L15.3493 11.7694C15.348 11.7694 15.346 11.7821 15.3453 11.7787C15.33 11.6794 15.208 11.7807 15.0113 11.8774C14.822 11.8827 14.634 11.8334 14.566 11.6321C14.4773 11.3681 14.1647 10.9681 14.14 10.7414C14.142 10.7141 14.1433 10.6901 14.1467 10.6587C14.156 10.6347 14.1687 10.6147 14.1927 10.6001C14.218 10.5854 14.2427 10.5801 14.2673 10.5767C14.2947 10.6507 14.3173 10.7627 14.3247 10.8861C14.342 11.2041 14.5873 11.0167 14.5873 11.2181C14.5873 11.4201 14.9407 11.5461 15.028 11.5834C15.0527 11.5941 15.0907 11.5654 15.134 11.5181C15.1547 11.5254 15.174 11.5401 15.196 11.5427C15.3907 11.5634 15.8107 10.8867 15.9407 10.7667C16.0087 10.7034 16.01 10.5874 15.9627 10.5041L16 10.4874Z" fill="#50BFB8"/>
<path d="M18.4227 13.4807C18.3873 13.774 18.5453 13.6147 18.8267 13.9507C19.1087 14.2893 18.7573 14.2133 18.634 14.1613C18.5107 14.108 18.3873 14.074 18.248 13.816C18.106 13.5553 18.248 13.3527 18.248 13.1313C18.248 13.1313 18.4587 13.1873 18.4227 13.4807ZM18.664 12.88C18.9233 12.9907 18.74 12.5587 18.8267 12.3193C18.9147 12.082 19.0373 12.074 19.1967 12.0773C19.354 12.0787 19.478 11.95 19.584 11.818C19.6887 11.6853 19.8827 11.5153 19.8653 11.3293C19.848 11.1433 19.796 11.008 19.724 10.7673C19.654 10.5273 19.9347 10.522 20.0587 10.2933C20.1813 10.0647 20.0587 10.2933 20.3393 10.288C20.6207 10.2827 20.498 10.2493 20.55 10.1427C20.6033 10.0367 20.6387 9.92468 20.586 9.68934C20.534 9.45401 20.3393 9.62268 20.146 9.57134C19.9533 9.52001 20.2167 9.28801 20.234 9.05134C20.2513 8.81401 20.4987 8.94134 20.6747 8.96801C20.85 8.99401 20.9027 9.29068 20.9553 9.36601C21.0093 9.44068 21.552 9.12268 21.694 8.93868C21.8347 8.75534 21.57 8.74468 21.6413 8.67001C21.712 8.59601 21.22 8.44534 21.0247 8.35734C20.832 8.26868 20.3393 8.11268 20.146 7.92468C19.9533 7.73601 19.2153 7.64068 19.0207 7.70001C18.8267 7.75734 18.7033 7.60468 18.6167 7.42934C18.5293 7.25468 18.1593 7.23134 18.054 7.11801C17.9487 7.00468 17.8433 7.20268 17.7013 7.22468C17.5613 7.24801 17.5087 7.25334 17.332 7.08534C17.1567 6.91734 17.3853 6.83801 17.14 6.67134C16.9033 6.51268 16.598 6.55001 16 6.27734V10.4867C16.1047 10.496 16.206 10.5107 16.2427 10.5207C16.33 10.544 16.5413 10.9027 16.5413 11.0433C16.5413 11.184 16.6467 11.5953 16.7353 11.84C16.8227 12.084 17.0153 12.1773 17.1927 12.3853C17.3687 12.5933 17.4553 12.4767 17.4553 12.4767C17.4553 12.4767 17.3853 12.114 17.3853 11.8333C17.3853 11.5507 17.596 11.366 17.596 11.366C17.596 11.366 17.9293 11.738 17.948 11.8227C17.9653 11.908 18.2287 12.26 18.2473 12.4067C18.2647 12.5527 18.4053 12.7707 18.664 12.88ZM20.0587 11.5013C20.1813 11.5547 20.7093 11.6153 20.428 11.2787C20.146 10.9413 20.3573 11.0793 20.3927 10.7867C20.428 10.4933 20.2167 10.4373 20.2167 10.4373C20.2167 10.6587 20.076 10.8627 20.2167 11.1213C20.3567 11.3813 19.9347 11.448 20.0587 11.5013ZM21.3947 15.082C21.3073 14.9373 21.114 14.8253 20.9027 14.7747C20.6927 14.724 20.7093 14.4547 20.4987 14.4193C20.288 14.3827 20.136 14.16 20.0413 14.078C19.8333 13.9007 19.9707 14.2173 20.0413 14.544C20.112 14.8693 20.3753 14.708 20.6207 14.9347C20.8667 15.1613 20.8853 14.9453 21.114 15.0873C21.342 15.228 21.4307 15.434 21.65 15.4727C21.8693 15.512 21.4833 15.2267 21.3947 15.082ZM19.336 14.1273C19.5107 14.3953 19.442 14.156 19.672 14.1167C19.9007 14.0773 19.478 13.7427 19.3373 13.584C19.1967 13.4253 19.0573 13.3833 18.934 13.6167C18.794 13.8827 19.162 13.8593 19.336 14.1273ZM20.938 15.8467C20.8493 15.6213 20.5927 15.3713 20.488 15.24C20.382 15.1113 20.2167 15.032 20.076 15.054C19.9347 15.0747 19.8473 14.9927 19.7773 14.8133C19.7067 14.636 19.584 14.658 19.478 14.6507C19.3733 14.6427 18.9507 14.73 18.704 14.804C18.4587 14.8793 18.346 14.972 18.1853 15.1087C17.9307 15.322 18.072 15.1787 18.1853 15.3913C18.2973 15.6033 18.0607 16.102 18.0433 16.42C18.0253 16.738 18.494 16.4407 18.6693 16.446C18.8453 16.454 18.7933 16.32 18.9333 16.2367C19.0747 16.1533 19.166 16.1507 19.3193 16.3513C19.4747 16.5547 19.6773 16.7587 19.6773 16.94C19.6773 17.12 20.2333 17.5713 20.4447 17.508C20.6553 17.4427 20.7787 17.236 20.972 17.0847C21.166 16.9347 21.096 16.5353 21.148 16.306C21.202 16.0767 21.0247 16.07 20.938 15.8467Z" fill="#3BA09A"/>
</svg>
