<svg width="24" height="24" viewBox="0 0 24 24" fill="none" xmlns="http://www.w3.org/2000/svg">
<g clip-path="url(#clip0)">
<path d="M10.0002 20.6667C10.0002 22.1393 9.47283 23.3333 8.00016 23.3333H3.3335C0.666829 23.3333 0.666829 14 3.3335 14H8.00016C9.47283 14 10.0002 15.194 10.0002 16.6667V20.6667Z" fill="#C2A509"/>
<path d="M22.6665 22H21.9998V15.3333H22.6665C23.0352 15.3333 23.3332 15.0353 23.3332 14.6667C23.3332 14.298 23.0352 14 22.6665 14H6.6665C3.99984 14 3.99984 23.3333 6.6665 23.3333H22.6665C23.0352 23.3333 23.3332 23.0353 23.3332 22.6667C23.3332 22.298 23.0352 22 22.6665 22Z" fill="#FFDB21"/>
<path d="M22.7815 21.9999H7.3335C6.00016 21.9999 6.00016 15.3333 7.3335 15.3333H22.7815C23.5175 15.3333 23.5175 21.9999 22.7815 21.9999Z" fill="#C8D4D7"/>
<path d="M7.66681 16.6666H23.2335C23.1435 15.8833 22.9935 15.3333 22.7815 15.3333H7.33347C6.23281 15.3333 6.04147 19.8719 6.75814 21.4586C6.49681 19.4859 6.79947 16.6666 7.66681 16.6666Z" fill="#7B8A8E"/>
<path d="M7.99984 5.33341C7.99984 6.80608 6.80584 8.00008 5.33317 8.00008H2.6665C-0.000162661 8.00008 -0.000162661 0.666748 2.6665 0.666748H5.33317C6.80584 0.666748 7.99984 1.86075 7.99984 3.33341V5.33341Z" fill="#2D7B76"/>
<path d="M20.6665 6.66675H19.9998V2.00008H20.6665C21.0352 2.00008 21.3332 1.70208 21.3332 1.33341C21.3332 0.964748 21.0352 0.666748 20.6665 0.666748H4.6665C1.99984 0.666748 1.99984 8.00008 4.6665 8.00008H20.6665C21.0352 8.00008 21.3332 7.70208 21.3332 7.33341C21.3332 6.96475 21.0352 6.66675 20.6665 6.66675Z" fill="#6AC8C2"/>
<path d="M20.7815 6.66667H5.3335C4.00016 6.66667 4.00016 2 5.3335 2H20.7815C21.5175 2 21.5175 6.66667 20.7815 6.66667Z" fill="#C8D4D7"/>
<path d="M5.33329 3.33333H21.2833C21.2073 2.58333 21.0406 2 20.7813 2H5.33329C4.53796 2 4.22062 3.65933 4.37462 5C4.47862 4.09467 4.79529 3.33333 5.33329 3.33333Z" fill="#7B8A8E"/>
<path d="M13.3333 11.3333C13.3333 12.806 12.1393 14 10.6667 14H4C1.33333 14 1.33333 8 4 8H10.6667C12.1393 8 13.3333 9.194 13.3333 10.6667V11.3333Z" fill="#972136"/>
<path d="M23.3333 12.6667H22.6667V9.33333H23.3333C23.702 9.33333 24 9.03533 24 8.66667C24 8.298 23.702 8 23.3333 8H10C7.33333 8 7.33333 14 10 14H23.3333C23.702 14 24 13.702 24 13.3333C24 12.9647 23.702 12.6667 23.3333 12.6667Z" fill="#E14554"/>
<path d="M23.4478 12.6666H10.6665C9.33317 12.6666 9.33317 9.33325 10.6665 9.33325H23.4478C24.1838 9.33325 24.1838 12.6666 23.4478 12.6666Z" fill="#C8D4D7"/>
<path d="M10.6666 10.6666H23.9893C23.946 9.95859 23.7666 9.33325 23.448 9.33325H10.6666C9.81728 9.33325 9.51128 10.6846 9.74462 11.6666C9.87662 11.1073 10.1826 10.6666 10.6666 10.6666Z" fill="#7B8A8E"/>
</g>
<defs>
<clipPath id="clip0">
<rect width="24" height="24" fill="white"/>
</clipPath>
</defs>
</svg>
