<svg width="24" height="24" viewBox="0 0 24 24" fill="none" xmlns="http://www.w3.org/2000/svg">
<g clip-path="url(#clip0)">
<path d="M18.5435 2.66675H19.8741V4.26075H18.5435V2.66675Z" fill="#66757F"/>
<path d="M19.3335 2.66675H6.00016C4.5275 2.66675 3.3335 3.86075 3.3335 5.33341V21.3334C3.3335 22.8061 4.5275 24.0001 6.00016 24.0001H19.3335C20.8062 24.0001 22.0002 22.8061 22.0002 21.3334V5.33341C22.0002 3.86075 20.8062 2.66675 19.3335 2.66675Z" fill="#6AC8C2"/>
<path d="M18 2.66675H4.66667C3.194 2.66675 2 3.86075 2 5.33341V21.3334C2 22.8061 3.194 24.0001 4.66667 24.0001H18C19.4727 24.0001 20.6667 22.8061 20.6667 21.3334V5.33341C20.6667 3.86075 19.4727 2.66675 18 2.66675Z" fill="#DFE6E8"/>
<path d="M18.6667 9.99992C18.6667 10.3686 18.3687 10.6666 18 10.6666H4.66667C4.29867 10.6666 4 10.3686 4 9.99992C4 9.63192 4.29867 9.33325 4.66667 9.33325H18C18.3687 9.33325 18.6667 9.63192 18.6667 9.99992ZM18.6667 13.3333C18.6667 13.7019 18.3687 13.9999 18 13.9999H4.66667C4.29867 13.9999 4 13.7019 4 13.3333C4 12.9646 4.29867 12.6666 4.66667 12.6666H18C18.3687 12.6666 18.6667 12.9646 18.6667 13.3333ZM18.6667 16.6666C18.6667 17.0353 18.3687 17.3333 18 17.3333H4.66667C4.29867 17.3333 4 17.0353 4 16.6666C4 16.2979 4.29867 15.9999 4.66667 15.9999H18C18.3687 15.9999 18.6667 16.2979 18.6667 16.6666ZM13.3333 19.9999C13.3333 20.3686 13.0353 20.6666 12.6667 20.6666H4.66667C4.29867 20.6666 4 20.3686 4 19.9999C4 19.6313 4.29867 19.3333 4.66667 19.3333H12.6667C13.0353 19.3333 13.3333 19.6313 13.3333 19.9999Z" fill="#ABB9BE"/>
<path d="M5.2238 5.82078C4.7558 5.82078 4.37646 5.37678 4.37646 4.82812C4.37646 4.28012 4.7558 3.83545 5.2238 3.83545C5.69113 3.83545 6.07046 4.28012 6.07046 4.82812C6.07046 5.37612 5.69113 5.82078 5.2238 5.82078Z" fill="#5C6B70"/>
<path d="M5.69547 4.72199C5.65881 4.40199 5.44614 4.19399 5.20947 4.04399C4.88614 3.83932 4.54281 3.37199 4.54281 2.79265C4.54281 2.05665 4.99014 1.39599 5.54281 1.39599C6.09547 1.39599 6.54281 1.99932 6.54281 2.66599H7.87347C7.85947 1.33265 6.82347 0.118652 5.54281 0.118652C4.25347 0.118652 3.20947 1.33132 3.20947 2.78865C3.20947 4.02399 3.90614 5.03599 4.92214 5.40599C5.42881 5.58999 5.73814 5.10799 5.69547 4.72199Z" fill="#7B8A8E"/>
<path d="M9.2238 5.82078C8.7558 5.82078 8.37646 5.37678 8.37646 4.82812C8.37646 4.28012 8.7558 3.83545 9.2238 3.83545C9.69113 3.83545 10.0705 4.28012 10.0705 4.82812C10.0705 5.37612 9.69113 5.82078 9.2238 5.82078Z" fill="#5C6B70"/>
<path d="M9.69547 4.72199C9.65881 4.40199 9.44614 4.19399 9.20947 4.04399C8.88614 3.83932 8.54281 3.37199 8.54281 2.79265C8.54281 2.05665 8.99014 1.39599 9.54281 1.39599C10.0955 1.39599 10.5428 1.99932 10.5428 2.66599H11.8735C11.8601 1.33265 10.8235 0.118652 9.54281 0.118652C8.25347 0.118652 7.20947 1.33132 7.20947 2.78865C7.20947 4.02399 7.90614 5.03599 8.92214 5.40599C9.42881 5.58999 9.73814 5.10799 9.69547 4.72199Z" fill="#7B8A8E"/>
<path d="M13.2238 5.82078C12.7558 5.82078 12.3765 5.37678 12.3765 4.82812C12.3765 4.28012 12.7558 3.83545 13.2238 3.83545C13.6911 3.83545 14.0711 4.28012 14.0711 4.82812C14.0705 5.37612 13.6911 5.82078 13.2238 5.82078Z" fill="#5C6B70"/>
<path d="M13.6953 4.72199C13.6586 4.40199 13.446 4.19399 13.21 4.04399C12.8866 3.83932 12.5433 3.37199 12.5433 2.79265C12.5433 2.05665 12.9906 1.39599 13.5433 1.39599C14.096 1.39599 14.5433 1.99932 14.5433 2.66599H15.874C15.8606 1.33265 14.824 0.118652 13.5433 0.118652C12.254 0.118652 11.21 1.33132 11.21 2.78865C11.21 4.02399 11.9066 5.03599 12.9226 5.40599C13.4286 5.58999 13.738 5.10799 13.6953 4.72199Z" fill="#7B8A8E"/>
<path d="M17.2238 5.82078C16.7558 5.82078 16.3765 5.37678 16.3765 4.82812C16.3765 4.28012 16.7558 3.83545 17.2238 3.83545C17.6911 3.83545 18.0711 4.28012 18.0711 4.82812C18.0705 5.37612 17.6911 5.82078 17.2238 5.82078Z" fill="#5C6B70"/>
<path d="M17.6953 4.72199C17.6586 4.40199 17.446 4.19399 17.21 4.04399C16.8866 3.83932 16.5433 3.37199 16.5433 2.79265C16.5433 2.05665 16.9906 1.39599 17.5433 1.39599C18.096 1.39599 18.5433 1.99932 18.5433 2.66599H19.874C19.8606 1.33265 18.824 0.118652 17.5433 0.118652C16.254 0.118652 15.21 1.33132 15.21 2.78865C15.21 4.02399 15.9066 5.03599 16.9226 5.40599C17.4286 5.58999 17.738 5.10799 17.6953 4.72199Z" fill="#7B8A8E"/>
</g>
<defs>
<clipPath id="clip0">
<rect width="24" height="24" fill="white"/>
</clipPath>
</defs>
</svg>
