<svg width="24" height="24" viewBox="0 0 24 24" fill="none" xmlns="http://www.w3.org/2000/svg">
<g clip-path="url(#clip0)">
<path d="M20.6668 24V21.6667C20.6668 19.4573 18.2102 18 16.0002 18H8.00016C5.7915 18 3.3335 19.4573 3.3335 21.6667V24H20.6668Z" fill="#E9ECED"/>
<path d="M20 5C20 7.76133 16.4187 10 12 10C7.582 10 4 7.76133 4 5C4 2.23867 7.582 0 12 0C16.4187 0 20 2.23867 20 5Z" fill="#131E26"/>
<path d="M11.9625 3.37939C14.6999 3.37939 19.2612 4.74806 19.2612 10.6781C19.2612 16.6081 19.2612 17.9767 17.8925 17.9767C16.5232 17.9767 14.6992 16.6081 11.9619 16.6081C9.22519 16.6081 7.43919 17.9767 6.03186 17.9767C4.50719 17.9767 4.66319 12.5027 4.66319 10.6781C4.66453 4.74806 9.22586 3.37939 11.9625 3.37939Z" fill="#0B0200"/>
<path d="M9.55176 18.0134C10.5291 18.7234 11.5278 19.3334 11.9998 19.3334C12.4718 19.3334 13.4624 18.7234 14.4398 18.0134V15.8767H9.55176V18.0134Z" fill="#7C533E"/>
<path d="M9.54736 16.7859C10.2294 17.5559 11.0747 17.7646 11.9934 17.7646C12.9127 17.7646 13.758 17.5566 14.44 16.7859V14.8286H9.54736V16.7859Z" fill="#664131"/>
<path d="M6.48926 10.478C6.48926 6.5887 8.93992 3.43604 11.9633 3.43604C14.9859 3.43604 17.4373 6.5887 17.4373 10.478C17.4373 14.3667 14.9859 17.3354 11.9633 17.3354C8.93992 17.3354 6.48926 14.3674 6.48926 10.478Z" fill="#7C533E"/>
<path d="M11.9629 15.6954C10.8922 15.6954 10.3322 15.1661 10.2722 15.1054C10.0935 14.9274 10.0935 14.6387 10.2722 14.4607C10.4489 14.2841 10.7335 14.2827 10.9122 14.4561C10.9355 14.4774 11.2802 14.7834 11.9629 14.7834C12.6555 14.7834 13.0009 14.4681 13.0142 14.4554C13.1962 14.2847 13.4829 14.2901 13.6562 14.4687C13.8295 14.6481 13.8295 14.9294 13.6535 15.1054C13.5942 15.1661 13.0342 15.6954 11.9629 15.6954Z" fill="#DF1F32"/>
<path d="M5.14992 12.6667C5.13592 12 5.12059 12.5174 5.12059 12.3567C5.12059 10.0754 6.48926 12.686 6.48926 11.0614C6.48926 9.43538 7.40126 9.27271 8.31326 8.36071C8.76993 7.90404 9.68192 7.01004 9.68192 7.01004C9.68192 7.01004 11.9626 8.38804 13.7873 8.38804C15.6113 8.38804 17.4366 9.30471 17.4366 11.1294C17.4366 12.954 18.8053 10.0734 18.8053 12.354C18.8053 12.5167 18.7899 12 18.7786 12.6667H19.2573C19.2619 11.3334 19.2619 11.384 19.2619 10.532C19.2619 4.60204 14.6999 2.39404 11.9633 2.39404C9.22659 2.39404 4.66526 4.56538 4.66526 10.4954C4.66526 11.024 4.65192 11.3334 4.67059 12.6667H5.14992Z" fill="#0B0200"/>
<path d="M9.7388 11.924C9.4288 11.924 9.1748 11.67 9.1748 11.36V10.7967C9.1748 10.4867 9.4288 10.2327 9.7388 10.2327C10.0488 10.2327 10.3028 10.4867 10.3028 10.7967V11.36C10.3035 11.67 10.0495 11.924 9.7388 11.924ZM14.2488 11.924C13.9388 11.924 13.6848 11.67 13.6848 11.36V10.7967C13.6848 10.4867 13.9388 10.2327 14.2488 10.2327C14.5588 10.2327 14.8128 10.4867 14.8128 10.7967V11.36C14.8128 11.67 14.5588 11.924 14.2488 11.924Z" fill="black"/>
<path d="M12.5578 13.6667H11.4304C11.2751 13.6667 11.1484 13.54 11.1484 13.3847V13.2827C11.1484 13.1273 11.2751 13 11.4304 13H12.5578C12.7124 13 12.8398 13.1267 12.8398 13.2827V13.3847C12.8398 13.54 12.7124 13.6667 12.5578 13.6667Z" fill="#3D2E24"/>
<path d="M5.6665 6.00008C5.6665 5.26341 8.50184 4.66675 11.9998 4.66675C15.4978 4.66675 18.3332 5.26341 18.3332 6.00008C18.3332 6.73675 15.4978 7.33342 11.9998 7.33342C8.50184 7.33342 5.6665 6.73675 5.6665 6.00008Z" fill="#294353"/>
<path d="M18.3332 5.33342H5.6665V3.03608C5.6665 3.03608 8.30517 0.666748 11.9998 0.666748C15.6945 0.666748 18.3332 3.03608 18.3332 3.03608V5.33342Z" fill="#335567"/>
<path d="M10 3.3332C10 1.47187 10.8953 2.66654 12 2.66654C13.1047 2.66654 14 1.47187 14 3.3332C14 4.43787 13.1047 4.66654 12 4.66654C10.8953 4.66654 10 4.43787 10 3.3332Z" fill="#DEF4F3"/>
<path d="M10.6668 3.33333C10.6668 2.59667 11.2635 2 12.0002 2C12.7368 2 13.3335 2.59667 13.3335 3.33333C13.3335 4.07 12.7368 4.66667 12.0002 4.66667C11.2635 4.66667 10.6668 4.07 10.6668 3.33333ZM18.3335 6H5.66683C5.4835 6 5.3335 5.85 5.3335 5.66667C5.3335 5.48333 5.4835 5.33333 5.66683 5.33333H18.3335C18.5168 5.33333 18.6668 5.48333 18.6668 5.66667C18.6668 5.85 18.5168 6 18.3335 6Z" fill="#6AC8C2"/>
<path d="M7.7186 19.3706L3.76793 19.9959C3.5866 20.0246 3.41527 19.8999 3.3866 19.7186L3.28193 19.0599C3.25327 18.8792 3.37793 18.7079 3.55927 18.6792L7.50993 18.0539C7.69127 18.0252 7.8626 18.1506 7.89127 18.3306L7.99593 18.9892C8.0246 19.1699 7.89993 19.3412 7.7186 19.3706Z" fill="#131E26"/>
<path d="M3.88916 18.6266L4.54849 18.522L4.75649 19.838L4.09716 19.9426L3.88916 18.6266ZM5.20449 18.418L5.86249 18.314L6.07116 19.6306L5.41249 19.7353L5.20449 18.418ZM6.52316 18.2093L7.18183 18.106L7.38849 19.4233L6.72983 19.5266L6.52316 18.2093Z" fill="#FDCB58"/>
<path d="M20.2321 19.9959L16.2814 19.3699C16.1001 19.3412 15.9754 19.1699 16.0041 18.9886L16.1088 18.3312C16.1374 18.1499 16.3088 18.0252 16.4901 18.0539L20.4408 18.6792C20.6214 18.7079 20.7468 18.8792 20.7181 19.0606L20.6134 19.7186C20.5848 19.8999 20.4134 20.0246 20.2321 19.9959Z" fill="#131E26"/>
<path d="M16.6108 19.4234L16.8188 18.1067L17.4775 18.2107L17.2688 19.5274L16.6108 19.4234ZM17.9282 19.6314L18.1348 18.314L18.7942 18.4174L18.5875 19.7347L17.9282 19.6314ZM19.2448 19.8414L19.4528 18.524L20.1128 18.628L19.9042 19.9454L19.2448 19.8414Z" fill="#FDCB58"/>
<path d="M12.0006 20.5853C12.0006 20.5853 14.2546 22.248 14.7293 22.4373C14.8333 22.4793 14.4853 20 14.4853 20H9.51592C9.51592 20 9.16659 22.5207 9.36125 22.4167C9.78725 22.188 12.0006 20.5853 12.0006 20.5853Z" fill="#8A9AA1"/>
<path d="M12.8749 22.2919C12.8749 22.2919 13.1249 21.8752 13.2289 21.6879C13.3509 21.4686 13.5309 20.6412 13.5309 20.6412L12.0722 19.9999C12.0722 19.9952 11.9655 20.0039 11.9655 20.0039L11.8429 20.0319L11.7282 20.0732C11.5829 20.1199 11.7909 20.0786 11.7909 20.0832L10.4749 20.6412C10.4749 20.6412 10.6662 21.4686 10.7882 21.6879C10.8922 21.8752 11.1402 22.2919 11.1402 22.2919C11.1402 22.2919 10.6382 22.6666 10.4502 24.0006H13.5622C13.3749 22.9372 12.8749 22.2919 12.8749 22.2919Z" fill="#131E26"/>
<path d="M8.86142 17.75C9.23876 18.1273 12.0008 20.0053 12.0008 20.0053C12.0008 20.0053 10.5834 20.8333 9.27809 22.3613C9.14676 22.5146 8.25009 19.278 8.22276 18.5553C8.21476 18.3533 8.68076 17.5693 8.86142 17.75ZM15.1534 17.75C14.7761 18.1273 12.0141 20.0053 12.0141 20.0053C12.0141 20.0053 13.4314 20.8333 14.7368 22.3613C14.8674 22.5146 15.7648 19.278 15.7921 18.5553C15.8001 18.3533 15.3341 17.5693 15.1534 17.75Z" fill="white"/>
<path d="M12.0108 20.4588C12.2708 20.4441 13.0395 20.9728 12.9588 21.2921C12.6515 22.5101 12.3928 22.2195 12.0315 22.2195C11.6241 22.2195 11.3888 22.5348 11.1048 21.3448C11.0421 21.0861 11.6361 20.4795 12.0108 20.4588ZM13.3648 24.0001H10.6821C10.6821 24.0001 11.0435 22.5555 12.0281 22.5555C13.0128 22.5555 13.3648 24.0001 13.3648 24.0001Z" fill="#1F323F"/>
</g>
<defs>
<clipPath id="clip0">
<rect width="24" height="24" fill="white"/>
</clipPath>
</defs>
</svg>
