<svg width="24" height="24" viewBox="0 0 24 24" fill="none" xmlns="http://www.w3.org/2000/svg">
<g clip-path="url(#clip0)">
<path d="M21.3332 24.0001V22.6667C21.3332 20.4574 19.5432 18.6667 17.3332 18.6667H6.6665C4.45784 18.6667 2.6665 20.4574 2.6665 22.6667V24.0001H21.3332Z" fill="#E1E8ED"/>
<path d="M20 5C20 7.76133 16.4187 10 12 10C7.582 10 4 7.76133 4 5C4 2.23867 7.582 0 12 0C16.4187 0 20 2.23867 20 5Z" fill="#292F33"/>
<path d="M9.09326 18.734C10.2559 19.5794 10.9919 20.0427 11.9999 20.0427C13.0079 20.0427 13.7439 19.5787 14.9066 18.734V16.1934H9.09326V18.734Z" fill="#F7DECE"/>
<path d="M9.08789 17.3154C9.89856 18.2314 10.9039 18.4794 11.9972 18.4794C13.0899 18.4794 14.0952 18.2307 14.9066 17.3154V14.988H9.08789V17.3154Z" fill="#EEC2AD"/>
<path d="M7.62918 10.6239C7.62918 11.5892 7.13985 12.3719 6.53651 12.3719C5.93318 12.3719 5.44385 11.5892 5.44385 10.6239C5.44385 9.65858 5.93318 8.87524 6.53651 8.87524C7.13985 8.87458 7.62918 9.65791 7.62918 10.6239ZM18.5552 10.6239C18.5552 11.5892 18.0665 12.3719 17.4625 12.3719C16.8592 12.3719 16.3698 11.5892 16.3698 10.6239C16.3698 9.65858 16.8585 8.87524 17.4625 8.87524C18.0665 8.87458 18.5552 9.65791 18.5552 10.6239Z" fill="#F7DECE"/>
<path d="M6.31787 11.3059C6.31787 7.57993 8.86187 4.55859 11.9992 4.55859C15.1379 4.55859 17.6812 7.57993 17.6812 11.3059C17.6812 15.0319 15.1379 18.0533 11.9992 18.0533C8.86187 18.0533 6.31787 15.0326 6.31787 11.3059Z" fill="#F7DECE"/>
<path d="M11.9999 15.868C10.1639 15.868 9.59993 15.398 9.50593 15.3026C9.33526 15.132 9.33526 14.8553 9.50593 14.6846C9.67126 14.5193 9.93593 14.5146 10.1073 14.6693C10.1419 14.694 10.5879 14.994 11.9999 14.994C13.4666 14.994 13.8906 14.6706 13.8946 14.6673C14.0653 14.4973 14.3326 14.5053 14.5033 14.6773C14.6739 14.848 14.6646 15.1326 14.4939 15.3026C14.3999 15.398 13.8359 15.868 11.9999 15.868Z" fill="#C1694F"/>
<path d="M11.9998 2.32007C15.7652 2.32007 18.1185 5.09874 18.1185 7.41407C18.1185 9.7294 17.6478 10.6561 17.1772 9.7294L16.2358 7.8774C16.2358 7.8774 13.4125 7.8774 12.4712 6.95074C12.4712 6.95074 13.8832 9.7294 11.0592 6.95074C11.0592 6.95074 11.5298 8.8034 8.70584 6.48807C8.70584 6.48807 7.29384 7.41407 6.82317 9.7294C6.6925 10.3721 5.88184 9.7294 5.88184 7.41407C5.88117 5.09874 7.76384 2.32007 11.9998 2.32007Z" fill="#292F33"/>
<path d="M9.33317 11.3333C8.9665 11.3333 8.6665 11.0333 8.6665 10.6666V9.99992C8.6665 9.63325 8.9665 9.33325 9.33317 9.33325C9.69984 9.33325 9.99984 9.63325 9.99984 9.99992V10.6666C9.99984 11.0333 9.69984 11.3333 9.33317 11.3333ZM14.6665 11.3333C14.2998 11.3333 13.9998 11.0333 13.9998 10.6666V9.99992C13.9998 9.63325 14.2998 9.33325 14.6665 9.33325C15.0332 9.33325 15.3332 9.63325 15.3332 9.99992V10.6666C15.3332 11.0333 15.0332 11.3333 14.6665 11.3333Z" fill="#662113"/>
<path d="M12.5 13.1667H11.5C11.2247 13.1667 11 12.9421 11 12.6667C11 12.3914 11.2247 12.1667 11.5 12.1667H12.5C12.7753 12.1667 13 12.3914 13 12.6667C13 12.9421 12.7753 13.1667 12.5 13.1667Z" fill="#C1694F"/>
<path d="M5.6665 6.00008C5.6665 5.26341 8.50184 4.66675 11.9998 4.66675C15.4978 4.66675 18.3332 5.26341 18.3332 6.00008C18.3332 6.73675 15.4978 7.33342 11.9998 7.33342C8.50184 7.33342 5.6665 6.73675 5.6665 6.00008Z" fill="#292F33"/>
<path d="M18.3332 5.33342H5.6665V3.03608C5.6665 3.03608 8.30517 0.666748 11.9998 0.666748C15.6945 0.666748 18.3332 3.03608 18.3332 3.03608V5.33342Z" fill="#66757F"/>
<path d="M10 3.3332C10 1.47187 10.8953 2.66654 12 2.66654C13.1047 2.66654 14 1.47187 14 3.3332C14 4.43787 13.1047 4.66654 12 4.66654C10.8953 4.66654 10 4.43787 10 3.3332Z" fill="#FFAC33"/>
<path d="M10.6668 3.33333C10.6668 2.59667 11.2635 2 12.0002 2C12.7368 2 13.3335 2.59667 13.3335 3.33333C13.3335 4.07 12.7368 4.66667 12.0002 4.66667C11.2635 4.66667 10.6668 4.07 10.6668 3.33333ZM18.3335 6H5.66683C5.4835 6 5.3335 5.85 5.3335 5.66667C5.3335 5.48333 5.4835 5.33333 5.66683 5.33333H18.3335C18.5168 5.33333 18.6668 5.48333 18.6668 5.66667C18.6668 5.85 18.5168 6 18.3335 6Z" fill="#FDCB58"/>
<path d="M7.7186 19.3706L3.76793 19.9959C3.5866 20.0246 3.41527 19.8999 3.3866 19.7186L3.28193 19.0599C3.25327 18.8792 3.37793 18.7079 3.55927 18.6792L7.50993 18.0539C7.69127 18.0252 7.8626 18.1506 7.89127 18.3306L7.99593 18.9892C8.0246 19.1699 7.89993 19.3412 7.7186 19.3706Z" fill="#292F33"/>
<path d="M3.88916 18.6266L4.54849 18.522L4.75649 19.838L4.09716 19.9426L3.88916 18.6266ZM5.20449 18.418L5.86249 18.314L6.07116 19.6306L5.41249 19.7353L5.20449 18.418ZM6.52316 18.2093L7.18183 18.106L7.38849 19.4233L6.72983 19.5266L6.52316 18.2093Z" fill="#FDCB58"/>
<path d="M20.2321 19.9959L16.2814 19.3699C16.1001 19.3412 15.9754 19.1699 16.0041 18.9886L16.1088 18.3312C16.1374 18.1499 16.3088 18.0252 16.4901 18.0539L20.4408 18.6792C20.6214 18.7079 20.7468 18.8792 20.7181 19.0606L20.6134 19.7186C20.5848 19.8999 20.4134 20.0246 20.2321 19.9959Z" fill="#292F33"/>
<path d="M16.6108 19.4234L16.8188 18.1067L17.4775 18.2107L17.2688 19.5274L16.6108 19.4234ZM17.9282 19.6314L18.1348 18.314L18.7942 18.4174L18.5875 19.7347L17.9282 19.6314ZM19.2448 19.8414L19.4528 18.524L20.1128 18.628L19.9042 19.9454L19.2448 19.8414Z" fill="#FDCB58"/>
<path d="M12.0006 20.5853C12.0006 20.5853 14.2546 22.248 14.7293 22.4373C14.8333 22.4793 14.4853 20 14.4853 20H9.51592C9.51592 20 9.16659 22.5207 9.36125 22.4167C9.78725 22.188 12.0006 20.5853 12.0006 20.5853Z" fill="#99AAB5"/>
<path d="M12.8749 22.2919C12.8749 22.2919 13.1249 21.8752 13.2289 21.6879C13.3509 21.4686 13.5309 20.6412 13.5309 20.6412L12.0722 19.9999C12.0722 19.9952 11.9655 20.0039 11.9655 20.0039L11.8429 20.0319L11.7282 20.0732C11.5829 20.1199 11.7909 20.0786 11.7909 20.0832L10.4749 20.6412C10.4749 20.6412 10.6662 21.4686 10.7882 21.6879C10.8922 21.8752 11.1402 22.2919 11.1402 22.2919C11.1402 22.2919 10.6382 22.6666 10.4502 24.0006H13.5622C13.3749 22.9372 12.8749 22.2919 12.8749 22.2919Z" fill="#292F33"/>
<path d="M8.86142 17.75C9.23876 18.1273 12.0008 20.0053 12.0008 20.0053C12.0008 20.0053 10.5834 20.8333 9.27809 22.3613C9.14676 22.5146 8.25009 19.278 8.22276 18.5553C8.21476 18.3533 8.68076 17.5693 8.86142 17.75ZM15.1534 17.75C14.7761 18.1273 12.0141 20.0053 12.0141 20.0053C12.0141 20.0053 13.4314 20.8333 14.7368 22.3613C14.8674 22.5146 15.7648 19.278 15.7921 18.5553C15.8001 18.3533 15.3341 17.5693 15.1534 17.75Z" fill="#F5F8FA"/>
<path d="M12.0108 20.4588C12.2708 20.4441 13.0395 20.9728 12.9588 21.2921C12.6515 22.5101 12.3928 22.2195 12.0315 22.2195C11.6241 22.2195 11.3888 22.5348 11.1048 21.3448C11.0421 21.0861 11.6361 20.4795 12.0108 20.4588ZM13.3648 24.0001H10.6821C10.6821 24.0001 11.0435 22.5555 12.0281 22.5555C13.0128 22.5555 13.3648 24.0001 13.3648 24.0001Z" fill="#323A3F"/>
</g>
<defs>
<clipPath id="clip0">
<rect width="24" height="24" fill="white"/>
</clipPath>
</defs>
</svg>
