<svg width="24" height="24" viewBox="0 0 24 24" fill="none" xmlns="http://www.w3.org/2000/svg">
<g clip-path="url(#clip0)">
<path d="M20 8H4V3.33333C4 2.59667 4.55067 2 5.23067 2H18.77C19.4487 2 20 2.59667 20 3.33333V8ZM20 20.6667C20 21.4027 19.4027 22 18.6667 22H5.33333C4.59733 22 4 21.4027 4 20.6667V18.6667H20V20.6667Z" fill="#3F5F6F"/>
<path d="M18 8H6V1.33333C6 0.596667 6.59733 0 7.33333 0H16.6667C17.4027 0 18 0.597333 18 1.33333V8Z" fill="#E9ECED"/>
<path d="M22.6668 16.6667C22.6668 17.3333 22.0002 18.6667 20.6668 18.6667H3.3335C2.00016 18.6667 1.3335 17.3333 1.3335 16.6667V10.6667C1.3335 9.194 2.5275 8 4.00016 8H20.0002C21.4728 8 22.6668 9.194 22.6668 10.6667V16.6667Z" fill="#6AC8C2"/>
<path d="M20 16.6666C20 15.9306 19.348 15.3333 18.5453 15.3333H5.45467C4.65133 15.3333 4 15.9306 4 16.6666V19.3333H20V16.6666Z" fill="#131E26"/>
<path d="M20 9.99992C20 10.7359 19.4027 11.3333 18.6667 11.3333H5.33333C4.59733 11.3333 4 10.7359 4 9.99992V7.33325H20V9.99992Z" fill="#348D88"/>
<path d="M18 22.6666C18 23.4026 17.4027 23.9999 16.6667 23.9999H7.33333C6.59733 23.9999 6 23.4026 6 22.6666V17.3333H18V22.6666Z" fill="#E9ECED"/>
<path d="M16.6668 19.3334C16.6668 19.7021 16.3688 20.0001 16.0002 20.0001H8.00016C7.63216 20.0001 7.3335 19.7021 7.3335 19.3334C7.3335 18.9647 7.63216 18.6667 8.00016 18.6667H16.0002C16.3688 18.6667 16.6668 18.9647 16.6668 19.3334Z" fill="#B0BDC2"/>
<path d="M20.3335 14C20.8858 14 21.3335 13.5523 21.3335 13C21.3335 12.4477 20.8858 12 20.3335 12C19.7812 12 19.3335 12.4477 19.3335 13C19.3335 13.5523 19.7812 14 20.3335 14Z" fill="#E9ECED"/>
<path d="M16.6667 21.3334C16.6667 21.7021 16.3687 22.0001 16 22.0001H8C7.632 22.0001 7.33333 21.7021 7.33333 21.3334C7.33333 20.9647 7.632 20.6667 8 20.6667H16C16.3687 20.6667 16.6667 20.9647 16.6667 21.3334ZM6 16.6667H18V18.0001H6V16.6667Z" fill="#B0BDC2"/>
</g>
<defs>
<clipPath id="clip0">
<rect width="24" height="24" fill="white"/>
</clipPath>
</defs>
</svg>
