<svg width="24" height="24" viewBox="0 0 24 24" fill="none" xmlns="http://www.w3.org/2000/svg">
<g clip-path="url(#clip0)">
<path d="M24 21.3333C24 22.8059 22.806 23.9999 21.3333 23.9999H2.66667C1.194 23.9999 0 22.8059 0 21.3333V15.3333C0 13.8606 0.527333 13.3333 2 13.3333H22C23.4727 13.3333 24 13.8606 24 15.3333V21.3333Z" fill="#B0BDC2"/>
<path d="M16.6668 13.3333C16.6668 15.9106 14.5775 17.9999 12.0002 17.9999C9.42283 17.9999 7.3335 15.9106 7.3335 13.3333H16.6668Z" fill="#294353"/>
<path d="M2.66667 23.9999H21.3333C22.806 23.9999 24 22.8059 24 21.3333H0C0 22.8059 1.194 23.9999 2.66667 23.9999Z" fill="#D5DDE0"/>
<path d="M18.29 5.67401L13.048 0.432012C12.472 -0.144655 11.528 -0.144655 10.9514 0.432012L5.70936 5.67401C5.13336 6.25134 5.3287 6.66668 6.14403 6.66668H9.33336V10.6667C9.33336 11.4027 9.9307 12 10.6667 12H13.3334C14.0694 12 14.6667 11.4027 14.6667 10.6667V6.66668H17.856C18.6714 6.66668 18.8667 6.25134 18.29 5.67401Z" fill="#E14554"/>
</g>
<defs>
<clipPath id="clip0">
<rect width="24" height="24" fill="white"/>
</clipPath>
</defs>
</svg>
