<svg width="27" height="26" viewBox="0 0 27 26" fill="none" xmlns="http://www.w3.org/2000/svg">
<g clip-path="url(#clip0)">
<path d="M13.5 26C20.6797 26 26.5 20.1797 26.5 13C26.5 5.8203 20.6797 0 13.5 0C6.3203 0 0.5 5.8203 0.5 13C0.5 20.1797 6.3203 26 13.5 26Z" fill="#6AC8C2"/>
<path d="M13.5001 23.4722C19.2837 23.4722 23.9723 18.7836 23.9723 12.9999C23.9723 7.21628 19.2837 2.52771 13.5001 2.52771C7.71641 2.52771 3.02783 7.21628 3.02783 12.9999C3.02783 18.7836 7.71641 23.4722 13.5001 23.4722Z" fill="#348D88"/>
<path d="M13.4997 22.3889C18.6851 22.3889 22.8886 18.1853 22.8886 13C22.8886 7.81463 18.6851 3.61108 13.4997 3.61108C8.31439 3.61108 4.11084 7.81463 4.11084 13C4.11084 18.1853 8.31439 22.3889 13.4997 22.3889Z" fill="#E9ECED"/>
<path d="M13.5001 5.77771L14.6058 10.3306L18.6069 7.8931L16.1694 11.8942L20.7223 12.9999L16.1694 14.1057L18.6069 18.1068L14.6058 15.6693L13.5001 20.2222L12.3943 15.6693L8.39322 18.1068L10.8307 14.1057L6.27783 12.9999L10.8307 11.8942L8.39322 7.8931L12.3943 10.3306L13.5001 5.77771Z" fill="#B0BDC2"/>
<path d="M13.0254 14.9846L19.3643 18.8709L15.4795 12.5312L13.0254 14.9846Z" fill="#131E26"/>
<path d="M13.9744 11.0262L7.63477 7.13989L11.5203 13.4803L13.9744 11.0262Z" fill="#E14554"/>
<path d="M13.4998 15.2122C14.7184 15.2122 15.7062 14.2244 15.7062 13.0058C15.7062 11.7873 14.7184 10.7994 13.4998 10.7994C12.2813 10.7994 11.2935 11.7873 11.2935 13.0058C11.2935 14.2244 12.2813 15.2122 13.4998 15.2122Z" fill="#8A9AA1"/>
<path d="M13.4998 14.196C14.1571 14.196 14.69 13.6631 14.69 13.0058C14.69 12.3484 14.1571 11.8156 13.4998 11.8156C12.8425 11.8156 12.3096 12.3484 12.3096 13.0058C12.3096 13.6631 12.8425 14.196 13.4998 14.196Z" fill="#E9ECED"/>
</g>
<defs>
<clipPath id="clip0">
<rect width="26" height="26" fill="white" transform="translate(0.5)"/>
</clipPath>
</defs>
</svg>
