<svg width="27" height="26" viewBox="0 0 27 26" fill="none" xmlns="http://www.w3.org/2000/svg">
<path d="M22.8888 1.44446H4.111C2.91428 1.44446 1.94434 2.4144 1.94434 3.61112V22.3889C1.94434 23.5856 2.91428 24.5556 4.111 24.5556H22.8888C24.0855 24.5556 25.0554 23.5856 25.0554 22.3889V3.61112C25.0554 2.4144 24.0855 1.44446 22.8888 1.44446Z" fill="#B5E3E1"/>
<path d="M22.8888 0.72229H4.11106C2.51567 0.72229 1.22217 2.01579 1.22217 3.61118V22.389C1.22217 23.9843 2.51567 25.2778 4.11106 25.2778H22.8888C24.4842 25.2778 25.7777 23.9843 25.7777 22.389V3.61118C25.7777 2.01579 24.4842 0.72229 22.8888 0.72229ZM22.8888 2.16673C23.6854 2.16673 24.3333 2.81457 24.3333 3.61118V6.50007H19.9999V2.16673H22.8888ZM19.9999 13.7223H24.3333V18.0556H19.9999V13.7223ZM19.9999 12.2778V7.94451H24.3333V12.2778H19.9999ZM18.5555 2.16673V6.50007H14.2222V2.16673H18.5555ZM14.2222 7.94451H18.5555V12.2778H14.2222V7.94451ZM14.2222 13.7223H18.5555V18.0556H14.2222V13.7223ZM12.7777 2.16673V6.50007H8.44439V2.16673H12.7777ZM8.44439 7.94451H12.7777V12.2778H8.44439V7.94451ZM8.44439 13.7223H12.7777V18.0556H8.44439V13.7223ZM2.66661 3.61118C2.66661 2.81457 3.31445 2.16673 4.11106 2.16673H6.99995V6.50007H2.66661V3.61118ZM2.66661 7.94451H6.99995V12.2778H2.66661V7.94451ZM2.66661 13.7223H6.99995V18.0556H2.66661V13.7223ZM4.11106 23.8334C3.31445 23.8334 2.66661 23.1856 2.66661 22.389V19.5001H6.99995V23.8334H4.11106ZM8.44439 23.8334V19.5001H12.7777V23.8334H8.44439ZM14.2222 23.8334V19.5001H18.5555V23.8334H14.2222ZM22.8888 23.8334H19.9999V19.5001H24.3333V22.389C24.3333 23.1856 23.6854 23.8334 22.8888 23.8334Z" fill="#F0F9F9"/>
<path d="M9.889 23.8333H5.55566V11.5555C5.55566 10.7582 6.20278 10.1111 7.00011 10.1111H8.44455C9.24189 10.1111 9.889 10.7582 9.889 11.5555V23.8333Z" fill="#C2A509"/>
<path d="M21.4447 23.8333H17.1113V6.49999C17.1113 5.70265 17.7584 5.05554 18.5558 5.05554H20.0002C20.7976 5.05554 21.4447 5.70265 21.4447 6.49999V23.8333Z" fill="#2D7B76"/>
<path d="M15.6668 23.8333H11.3335V16.6111C11.3335 15.8137 11.9806 15.1666 12.7779 15.1666H14.2224C15.0197 15.1666 15.6668 15.8137 15.6668 16.6111V23.8333Z" fill="#E14554"/>
</svg>
