<svg width="24" height="24" viewBox="0 0 24 24" fill="none" xmlns="http://www.w3.org/2000/svg">
<path d="M22.0002 2C17.3335 0 12.0002 0 12.0002 0C12.0002 0 6.66683 0 2.00016 2C0.000161171 12 2.00016 20.6667 12.0002 24C22.0002 20.6667 24.0002 12 22.0002 2Z" fill="#D5DDE0"/>
<path d="M11.9998 22.5893C4.2745 19.8193 1.30717 13.2206 3.17317 2.96259C7.37517 1.35259 11.9518 1.33325 11.9998 1.33325C12.0472 1.33325 16.6385 1.35992 20.8265 2.96259C22.6925 13.2206 19.7252 19.8193 11.9998 22.5893Z" fill="#6AC8C2"/>
<path d="M20.8267 2.96259C16.6387 1.35992 12.0473 1.33325 12 1.33325V22.5893C19.7253 19.8193 22.6927 13.2206 20.8267 2.96259Z" fill="#2D7B76"/>
</svg>
