<svg width="24" height="24" viewBox="0 0 24 24" fill="none" xmlns="http://www.w3.org/2000/svg">
<g clip-path="url(#clip0)">
<path d="M22.8311 4.216L21.0031 6.04467C21.0031 6.04467 19.7838 6.654 18.5651 5.43467C17.3458 4.216 17.9551 2.99667 17.9551 2.99667L19.7838 1.168C20.3938 0.558667 19.6611 0 19.1111 0C16.4104 0 14.2218 2.18867 14.2218 4.88867C14.2218 5.268 14.2698 5.636 14.3511 5.99067L10.2184 10.1233L13.8751 13.78L18.0078 9.648C18.3631 9.72933 18.7304 9.77733 19.1104 9.77733C21.8104 9.77733 23.9991 7.58867 23.9991 4.88867C23.9998 4.33533 23.4405 3.60667 22.8311 4.216ZM10.1464 10.2427L2.02045 18.368C1.02378 19.3653 1.02378 20.982 2.02045 21.9793C3.01845 22.976 4.63445 22.976 5.63178 21.9793L13.7564 13.854L10.1464 10.2427ZM3.84178 21.2253C3.29578 21.2253 2.85378 20.7827 2.85378 20.2373C2.85378 19.692 3.29645 19.2487 3.84178 19.2487C4.38778 19.2487 4.82978 19.6913 4.82978 20.2373C4.82978 20.7827 4.38778 21.2253 3.84178 21.2253Z" fill="#8A9AA1"/>
<path d="M20.5532 22.186C21.3306 22.9633 22.5679 23 23.3006 22.2666C24.0339 21.5333 23.9972 20.2966 23.2199 19.5193L7.7099 4.00929C6.9319 3.23129 5.6959 3.19529 4.96257 3.92863C4.22923 4.66196 4.2659 5.89863 5.04323 6.67596L20.5532 22.186Z" fill="#6D1727"/>
<path d="M14.2958 0.595285C14.2958 0.595285 10.2958 -1.40471 6.96247 1.92862L2.29581 6.59528C2.29581 6.59528 1.62914 5.92862 0.962475 6.59528L0.295808 7.26195C0.295808 7.26195 -0.370859 7.92862 0.295808 8.59528L2.96247 11.262C2.96247 11.262 3.62914 11.9286 4.29581 11.262L4.96247 10.5953C4.96247 10.5953 5.62914 9.92862 4.96247 9.26195L4.91047 9.20995C5.42381 8.71462 6.19247 8.20995 6.96247 8.59528L9.62914 5.92862C9.62914 5.92862 8.96247 3.92862 10.2958 2.59529C11.6291 1.26195 12.2958 1.26195 13.6291 1.26195C14.9625 1.26195 14.2958 0.595285 14.2958 0.595285Z" fill="#667F8A"/>
</g>
<defs>
<clipPath id="clip0">
<rect width="24" height="24" fill="white"/>
</clipPath>
</defs>
</svg>
