<svg width="24" height="24" viewBox="0 0 24 24" fill="none" xmlns="http://www.w3.org/2000/svg">
<path d="M18 21.3333C18 22.806 16.806 24 15.3333 24H8.66667C7.194 24 6 22.806 6 21.3333V2.66667C6 1.194 7.194 0 8.66667 0H15.3333C16.806 0 18 1.194 18 2.66667V21.3333Z" fill="#1F323F"/>
<path d="M11.9992 16.6667C13.4719 16.6667 14.6659 17.8607 14.6659 19.3334C14.6659 20.8061 13.4719 22.0001 11.9992 22.0001C10.5265 22.0001 9.33252 20.8061 9.33252 19.3334C9.33252 17.8607 10.5265 16.6667 11.9992 16.6667Z" fill="#3BA09A"/>
<path d="M11.9992 9.33325C13.4719 9.33325 14.6659 10.5273 14.6659 11.9999C14.6659 13.4726 13.4719 14.6666 11.9992 14.6666C10.5265 14.6666 9.33252 13.4726 9.33252 11.9999C9.33252 10.5273 10.5265 9.33325 11.9992 9.33325Z" fill="#EDCB1C"/>
<path d="M11.9992 2C13.4719 2 14.6659 3.194 14.6659 4.66667C14.6659 6.13933 13.4719 7.33333 11.9992 7.33333C10.5265 7.33333 9.33252 6.13933 9.33252 4.66667C9.33252 3.194 10.5265 2 11.9992 2Z" fill="#E14554"/>
</svg>
