<svg width="24" height="24" viewBox="0 0 24 24" fill="none" xmlns="http://www.w3.org/2000/svg">
<path d="M9.33333 1.33333C9.33333 1.33333 9.33333 0 10.6667 0C12 0 12 1.33333 12 1.33333V2.66667C12 2.66667 12 4 10.6667 4C9.33333 4 9.33333 2.66667 9.33333 2.66667V1.33333ZM20 9.33333C20 9.33333 21.3333 9.33333 21.3333 10.6667C21.3333 12 20 12 20 12H18.6667C18.6667 12 17.3333 12 17.3333 10.6667C17.3333 9.33333 18.6667 9.33333 18.6667 9.33333H20ZM2.66667 9.33333C2.66667 9.33333 4 9.33333 4 10.6667C4 12 2.66667 12 2.66667 12H1.33333C1.33333 12 0 12 0 10.6667C0 9.33333 1.33333 9.33333 1.33333 9.33333H2.66667ZM5.248 4.02867C5.248 4.02867 6.19067 4.97133 5.248 5.914C4.30533 6.85667 3.36267 5.914 3.36267 5.914L2.41933 4.972C2.41933 4.972 1.47667 4.02933 2.41933 3.086C3.36267 2.14333 4.30533 3.086 4.30533 3.086L5.248 4.02867ZM17.9713 5.914C17.9713 5.914 17.0287 6.85667 16.086 5.914C15.1433 4.97133 16.086 4.02867 16.086 4.02867L17.0287 3.086C17.0287 3.086 17.9713 2.14333 18.914 3.086C19.8567 4.02867 18.914 4.97133 18.914 4.97133L17.9713 5.914Z" fill="#FFDB21"/>
<path d="M10.6665 16.6667C13.9802 16.6667 16.6665 13.9805 16.6665 10.6667C16.6665 7.35304 13.9802 4.66675 10.6665 4.66675C7.3528 4.66675 4.6665 7.35304 4.6665 10.6667C4.6665 13.9805 7.3528 16.6667 10.6665 16.6667Z" fill="#FFDB21"/>
<path d="M18.6667 13.3334C18.1167 13.3334 17.5867 13.4167 17.0873 13.5714C16.496 11.8814 14.892 10.6667 13 10.6667C10.9707 10.6667 9.272 12.0641 8.80067 13.9474C8.298 13.5674 7.67933 13.3334 7 13.3334C5.34333 13.3334 4 14.6767 4 16.3334C4 16.7361 4.082 17.1187 4.226 17.4694C3.94 17.3901 3.64467 17.3334 3.33333 17.3334C1.492 17.3334 0 18.8254 0 20.6667C0 22.5081 1.492 24.0001 3.33333 24.0001H18.6667C21.612 24.0001 24 21.6127 24 18.6667C24 15.7214 21.612 13.3334 18.6667 13.3334Z" fill="#E9ECED"/>
</svg>
