<svg width="24" height="24" viewBox="0 0 24 24" fill="none" xmlns="http://www.w3.org/2000/svg">
<g clip-path="url(#clip0)">
<path d="M20.6273 24V21.6667C20.6273 19.4573 18.1699 18 15.9606 18H7.96061C5.75195 18 3.29395 19.4573 3.29395 21.6667V24H20.6273Z" fill="#2A6797"/>
<path d="M12.002 10.0007C16.4202 10.0007 20.002 7.76216 20.002 5.00073C20.002 2.23931 16.4202 0.000732422 12.002 0.000732422C7.58368 0.000732422 4.00195 2.23931 4.00195 5.00073C4.00195 7.76216 7.58368 10.0007 12.002 10.0007Z" fill="#2A6797"/>
<path d="M11.9244 3.37939C14.6604 3.37939 19.2224 4.74806 19.2224 10.6774C19.2224 16.6081 19.2224 17.9761 17.8538 17.9761C16.4851 17.9761 14.6604 16.6074 11.9238 16.6074C9.18711 16.6074 7.40044 17.9761 5.99377 17.9761C4.46911 17.9761 4.62511 12.5021 4.62511 10.6774C4.62511 4.74806 9.18711 3.37939 11.9244 3.37939Z" fill="#963B22"/>
<path d="M9.5127 19.6527C10.49 20.3627 11.4887 20.306 11.9607 20.306C12.4327 20.306 13.4234 20.3627 14.4007 19.6527V15.8767H9.5127V19.6527Z" fill="#D5AB88"/>
<path d="M9.50928 16.7859C10.1906 17.5559 11.0359 17.7646 11.9546 17.7646C12.8739 17.7646 13.7193 17.5566 14.4013 16.7859V14.8286H9.50928V16.7859Z" fill="#CC9B7A"/>
<path d="M6.4502 10.4788C6.4502 6.58943 8.90086 3.43677 11.9242 3.43677C14.9462 3.43677 17.3969 6.58943 17.3969 10.4788C17.3969 14.3674 14.9462 17.3354 11.9242 17.3354C8.90153 17.3354 6.4502 14.3674 6.4502 10.4788Z" fill="#D5AB88"/>
<path d="M5.11135 12.6667C5.09735 12.0001 5.08202 12.5174 5.08202 12.3567C5.08202 10.0754 6.45068 12.6861 6.45068 11.0614C6.45068 9.4354 7.36268 9.27273 8.27468 8.36073C8.73135 7.90407 9.64335 7.01007 9.64335 7.01007C9.64335 7.01007 11.924 8.38807 13.7487 8.38807C15.5727 8.38807 17.398 9.30473 17.398 11.1294C17.398 12.9534 18.7667 10.0734 18.7667 12.3541C18.7667 12.5167 18.752 12.0001 18.74 12.6667H19.2194C19.2234 11.3334 19.2234 11.3841 19.2234 10.5321C19.2234 4.60207 14.662 2.75073 11.9247 2.75073C9.18868 2.75073 4.62668 4.5654 4.62668 10.4954C4.62668 11.0241 4.61335 11.3334 4.63202 12.6667H5.11135Z" fill="#963B22"/>
<path d="M18.5159 10.6239C18.5159 11.5892 18.0273 12.3719 17.4233 12.3719C16.8199 12.3719 16.3306 11.5892 16.3306 10.6239C16.3306 9.65858 16.8193 8.87524 17.4233 8.87524C18.0273 8.87458 18.5159 9.65791 18.5159 10.6239ZM7.59061 10.6239C7.59061 11.5892 7.10127 12.3719 6.49794 12.3719C5.89461 12.3719 5.40527 11.5892 5.40527 10.6239C5.40527 9.65858 5.89461 8.87524 6.49794 8.87524C7.10127 8.87458 7.59061 9.65791 7.59061 10.6239Z" fill="#D5AB88"/>
<path d="M11.9245 15.6954C10.8538 15.6954 10.2931 15.1661 10.2331 15.1054C10.0545 14.9274 10.0545 14.6387 10.2331 14.4607C10.4105 14.2841 10.6945 14.2827 10.8738 14.4561C10.8971 14.4774 11.2411 14.7834 11.9245 14.7834C12.6165 14.7834 12.9611 14.4681 12.9751 14.4554C13.1571 14.2847 13.4438 14.2901 13.6171 14.4687C13.7905 14.6481 13.7905 14.9294 13.6145 15.1054C13.5545 15.1661 12.9945 15.6954 11.9245 15.6954Z" fill="#DF1F32"/>
<path d="M9.70023 11.9247C9.39023 11.9247 9.13623 11.6707 9.13623 11.36V10.7967C9.13623 10.4867 9.39023 10.2327 9.70023 10.2327C10.0109 10.2327 10.2649 10.4867 10.2649 10.7967V11.36C10.2642 11.6707 10.0109 11.9247 9.70023 11.9247ZM14.2102 11.9247C13.9002 11.9247 13.6462 11.6707 13.6462 11.36V10.7967C13.6462 10.4867 13.9002 10.2327 14.2102 10.2327C14.5202 10.2327 14.7742 10.4867 14.7742 10.7967V11.36C14.7736 11.6707 14.5196 11.9247 14.2102 11.9247Z" fill="#662113"/>
<path d="M12.518 13.6667H11.3914C11.236 13.6667 11.1094 13.54 11.1094 13.3847V13.2827C11.1094 13.1273 11.2354 13 11.3914 13H12.518C12.6734 13 12.8007 13.1267 12.8007 13.2827V13.3847C12.8007 13.54 12.674 13.6667 12.518 13.6667Z" fill="#C1694F"/>
<path d="M5.6665 5.33325V5.99992C5.6665 6.73659 8.50184 7.33325 11.9998 7.33325C15.4978 7.33325 18.3332 6.73659 18.3332 5.99992V5.33325H5.6665Z" fill="#2A6797"/>
<path d="M18.0008 5.33333V4C18.0008 4 15.5008 2.5 12.0001 2.5C8.50146 2.5 6.00146 4 6.00146 4V5.33333H18.0008Z" fill="#4289C1"/>
<path d="M18.3335 5.33325H5.66683C5.4835 5.33325 5.3335 5.48325 5.3335 5.66659C5.3335 5.84992 5.4835 5.99992 5.66683 5.99992H18.3335C18.5168 5.99992 18.6668 5.84992 18.6668 5.66659C18.6668 5.48325 18.5168 5.33325 18.3335 5.33325Z" fill="#FDCB58"/>
<path d="M14.7292 22.0467C14.8332 22.088 14.4852 19.6094 14.4852 19.6094H9.51582C9.51582 19.6094 9.16716 22.13 9.36182 22.026C9.83649 21.7714 9.93982 21.6987 10.7192 21.1287C10.7438 21.198 10.7678 21.26 10.7892 21.2987C10.8932 21.486 11.1412 21.9027 11.1412 21.9027C11.1412 21.9027 10.5945 22.6654 10.4058 24H13.5725C13.3852 22.9367 12.8745 21.9027 12.8745 21.9027C13.3078 21.18 13.3385 21.1014 13.2285 21.2987C13.2498 21.2594 13.2738 21.1974 13.2978 21.128C13.8892 21.5427 14.5058 21.958 14.7292 22.0467Z" fill="#193D59"/>
<path d="M8.86142 17.3619C9.23876 17.7393 12.0008 19.6173 12.0008 19.6173C12.0008 19.6173 10.5834 20.4453 9.27809 21.9733C9.14676 22.1266 8.25009 18.8899 8.22276 18.1673C8.21476 17.9653 8.68076 17.1806 8.86142 17.3619ZM15.1534 17.3619C14.7761 17.7393 12.0141 19.6173 12.0141 19.6173C12.0141 19.6173 13.4314 20.4453 14.7368 21.9733C14.8674 22.1266 15.7648 18.8899 15.7921 18.1673C15.8001 17.9653 15.3341 17.1806 15.1534 17.3619Z" fill="#4289C1"/>
<path d="M12.0108 20.0701C12.2708 20.0555 13.0395 20.5841 12.9588 20.9035C12.6515 22.1215 12.3928 21.8308 12.0315 21.8308C11.6242 21.8308 11.3888 22.1461 11.1042 20.9561C11.0422 20.6981 11.6355 20.0915 12.0108 20.0701ZM13.3335 24.0001C13.3335 24.0001 13.0128 22.1675 12.0282 22.1675C11.0435 22.1675 10.6875 24.0001 10.6875 24.0001H13.3335Z" fill="#1E4B6E"/>
<path d="M13.4998 1.00073H13.4985C13.3432 1.0014 13.2098 1.07673 13.1185 1.18873C12.9312 1.23473 12.6738 1.24473 12.3472 1.1414C12.2565 1.0554 12.1352 1.00073 11.9998 1.00073C11.8658 1.00073 11.7438 1.0554 11.6538 1.14207C11.3265 1.2454 11.0692 1.2354 10.8825 1.1894C10.7905 1.0774 10.6572 1.0014 10.5018 1.0014H10.5005C10.2238 1.0014 10.0005 1.22473 10.0005 1.5014C10.0005 1.7774 10.2238 2.0014 10.5005 2.0014H10.5018C10.5018 4.0014 11.5005 4.5014 11.9998 4.5014C12.5005 4.5014 13.4985 4.0014 13.4985 2.0014H13.4998C13.7772 2.0014 14.0005 1.7774 14.0005 1.5014C14.0005 1.22407 13.7772 1.00073 13.4998 1.00073Z" fill="#FDCB58"/>
<path d="M7.38876 19.2614L4.47009 20.1687C4.29542 20.2254 4.10676 20.1294 4.05009 19.9547L3.84409 19.32C3.78809 19.1467 3.88409 18.9574 4.05876 18.9007L6.97809 17.9927C7.15276 17.9367 7.34142 18.0334 7.39809 18.2067L7.60409 18.8414C7.65942 19.0147 7.56276 19.204 7.38876 19.2614Z" fill="#4289C1"/>
<path d="M6.83468 19.08C7.04676 19.08 7.21868 18.9081 7.21868 18.696C7.21868 18.4839 7.04676 18.312 6.83468 18.312C6.62261 18.312 6.45068 18.4839 6.45068 18.696C6.45068 18.9081 6.62261 19.08 6.83468 19.08Z" fill="white"/>
<path d="M16.5579 19.2614L19.4772 20.1687C19.6519 20.2254 19.8405 20.1294 19.8979 19.9547L20.1039 19.32C20.1599 19.1467 20.0632 18.9574 19.8892 18.9007L16.9699 17.9927C16.7952 17.9367 16.6065 18.0334 16.5499 18.2067L16.3439 18.8414C16.2872 19.0147 16.3839 19.204 16.5579 19.2614Z" fill="#4289C1"/>
<path d="M17.112 19.08C17.3241 19.08 17.496 18.9081 17.496 18.696C17.496 18.4839 17.3241 18.312 17.112 18.312C16.8999 18.312 16.728 18.4839 16.728 18.696C16.728 18.9081 16.8999 19.08 17.112 19.08Z" fill="white"/>
</g>
<defs>
<clipPath id="clip0">
<rect width="24" height="24" fill="white"/>
</clipPath>
</defs>
</svg>
