<svg width="24" height="24" viewBox="0 0 24 24" fill="none" xmlns="http://www.w3.org/2000/svg">
<g clip-path="url(#clip0)">
<path d="M23.3333 24.0001V19.3334C23.3333 17.1234 20.8767 15.6667 18.6667 15.6667H10.6667C8.458 15.6667 6 17.1234 6 19.3334V24.0001H23.3333Z" fill="#9266CC"/>
<path d="M14.6295 1.0459C17.3669 1.0459 21.9282 2.41456 21.9282 8.34457C21.9282 14.2746 21.9282 15.6432 20.5595 15.6432C19.1902 15.6432 17.3662 14.2746 14.6289 14.2746C11.8922 14.2746 10.1062 15.6432 8.69885 15.6432C7.17419 15.6432 7.33019 10.1692 7.33019 8.34457C7.33152 2.41456 11.8929 1.0459 14.6295 1.0459Z" fill="#FFE51E"/>
<path d="M12.2188 15.6799C12.2188 16.6665 13.6668 16.9999 14.6668 16.9999C15.6668 16.9999 17.1068 16.6665 17.1068 15.6799V13.5432H12.2188V15.6799Z" fill="#F3D2A2"/>
<path d="M12.2139 14.4527C12.8959 15.2227 13.7412 15.4314 14.6599 15.4314C15.5792 15.4314 16.4245 15.2234 17.1065 14.4527V12.4954H12.2139V14.4527Z" fill="#E2C196"/>
<path d="M9.15576 8.14454C9.15576 4.25521 11.6064 1.10254 14.6291 1.10254C17.6518 1.10254 20.1031 4.25521 20.1031 8.14454C20.1031 12.0332 17.6518 15.0019 14.6291 15.0019C11.6064 15.0019 9.15576 12.0339 9.15576 8.14454Z" fill="#F3D2A2"/>
<path d="M14.6294 13.3619C13.5594 13.3619 12.9987 12.8326 12.9387 12.7719C12.76 12.5939 12.76 12.3052 12.9387 12.1272C13.116 11.9506 13.4 11.9492 13.5787 12.1226C13.602 12.1439 13.9474 12.4499 14.6294 12.4499C15.322 12.4499 15.6674 12.1346 15.6807 12.1219C15.8627 11.9512 16.1494 11.9566 16.3227 12.1352C16.496 12.3146 16.496 12.5959 16.32 12.7719C16.2607 12.8326 15.7007 13.3619 14.6294 13.3619Z" fill="#DF1F32"/>
<path d="M7.81643 10.3335C7.80243 9.66679 7.7871 10.1841 7.7871 10.0235C7.7871 7.74212 9.15576 10.3528 9.15576 8.72812C9.15576 7.10212 10.0678 6.93946 10.9798 6.02746C11.4364 5.57079 12.3484 4.67679 12.3484 4.67679C12.3484 4.67679 14.6291 6.05479 16.4538 6.05479C18.2778 6.05479 20.1031 6.97146 20.1031 8.79613C20.1031 10.6208 21.4718 7.74012 21.4718 10.0208C21.4718 10.1835 21.4571 9.66679 21.4451 10.3335H21.9238C21.9284 9.00012 21.9284 9.05079 21.9284 8.19879C21.9284 2.26879 17.3664 0.060791 14.6298 0.060791C11.8931 0.060791 7.33176 2.23212 7.33176 8.16212C7.33176 8.69079 7.31843 9.00012 7.3371 10.3335H7.81643Z" fill="#FFE51E"/>
<path d="M12.4053 9.59075C12.0953 9.59075 11.8413 9.33675 11.8413 9.02675V8.46341C11.8413 8.15341 12.0953 7.89941 12.4053 7.89941C12.7153 7.89941 12.97 8.15341 12.97 8.46341V9.02675C12.97 9.33675 12.7153 9.59075 12.4053 9.59075ZM16.9153 9.59075C16.6053 9.59075 16.3513 9.33675 16.3513 9.02675V8.46341C16.3513 8.15341 16.6053 7.89941 16.9153 7.89941C17.2253 7.89941 17.4793 8.15341 17.4793 8.46341V9.02675C17.4793 9.33675 17.2253 9.59075 16.9153 9.59075Z" fill="#662113"/>
<path d="M15.2248 11.3334H14.0974C13.9421 11.3334 13.8154 11.2067 13.8154 11.0514V10.9494C13.8154 10.7941 13.9414 10.6667 14.0974 10.6667H15.2248C15.3794 10.6667 15.5068 10.7934 15.5068 10.9494V11.0514C15.5068 11.2067 15.3794 11.3334 15.2248 11.3334Z" fill="#C1694F"/>
<path d="M10.2962 8.95741C10.2962 9.92274 9.80684 10.7054 9.20351 10.7054C8.60017 10.7054 8.11084 9.92274 8.11084 8.95741C8.11084 7.99207 8.60017 7.20874 9.20351 7.20874C9.80684 7.20807 10.2962 7.99141 10.2962 8.95741ZM21.2222 8.95741C21.2222 9.92274 20.7335 10.7054 20.1295 10.7054C19.5262 10.7054 19.0368 9.92274 19.0368 8.95741C19.0368 7.99207 19.5255 7.20874 20.1295 7.20874C20.7335 7.20807 21.2222 7.99141 21.2222 8.95741Z" fill="#F3D2A2"/>
<path d="M22 23.3334C22 23.7021 21.702 24.0001 21.3333 24.0001H14.6667C14.298 24.0001 14 23.7021 14 23.3334C14 22.9647 14.298 22.6667 14.6667 22.6667H21.3333C21.702 22.6667 22 22.9647 22 23.3334Z" fill="#E1E8ED"/>
<path d="M13.4934 14.6667H2.50607C1.49007 14.6667 0.187404 15.1807 0.85407 17.0207L2.90207 22.6707C2.90274 22.6707 3.16674 24.0001 4.66674 24.0001H18.0001L15.3334 16.5067C15.0414 15.6254 14.5101 14.6667 13.4934 14.6667Z" fill="#E1E8ED"/>
<path d="M12.8269 14.6667H1.83957C0.823566 14.6667 -0.4791 15.1807 0.187566 17.0207L2.23557 22.6707C2.23623 22.6707 2.50023 24.0001 4.00023 24.0001H17.3336L14.6669 16.5067C14.3749 15.6254 13.8436 14.6667 12.8269 14.6667Z" fill="#99AAB5"/>
<path d="M9.346 19.522C9.69533 20.57 9.41267 21.6087 8.71333 21.8413C8.01533 22.0747 7.16533 21.414 6.816 20.366C6.46667 19.318 6.75 18.2793 7.44867 18.0467C8.14733 17.814 8.99733 18.474 9.346 19.522ZM12.6667 16.5H2C1.724 16.5 1.5 16.276 1.5 16C1.5 15.724 1.724 15.5 2 15.5H12.6667C12.9427 15.5 13.1667 15.724 13.1667 16C13.1667 16.276 12.9427 16.5 12.6667 16.5Z" fill="#E1E8ED"/>
</g>
<defs>
<clipPath id="clip0">
<rect width="24" height="24" fill="white"/>
</clipPath>
</defs>
</svg>
