<svg width="24" height="24" viewBox="0 0 24 24" fill="none" xmlns="http://www.w3.org/2000/svg">
<path d="M20.6667 18.3833C20.0273 18.1353 19.336 18 18.6667 18H10.6667C9.99733 18 9.306 18.1353 8.66667 18.3833C7.19533 18.9533 6 20.126 6 21.6667V24H23.3333V21.6667C23.3333 20.126 22.1387 18.9533 20.6667 18.3833Z" fill="#CCD6DD"/>
<path d="M18.6665 18V20.6667H10.6665V18C9.99717 18 9.30584 18.1353 8.6665 18.3833V24H20.6665V18.3833C20.0272 18.1353 19.3358 18 18.6665 18Z" fill="#226699"/>
<path d="M18.5 23.3334C19.3284 23.3334 20 22.9603 20 22.5001C20 22.0398 19.3284 21.6667 18.5 21.6667C17.6716 21.6667 17 22.0398 17 22.5001C17 22.9603 17.6716 23.3334 18.5 23.3334Z" fill="#F5F8FA"/>
<path d="M14.63 3.38745C11.8933 3.38745 7.33067 4.75612 7.33067 10.6855C7.33067 12.5101 7.17467 17.9841 8.69934 17.9841C10.1067 17.9841 11.8927 16.6155 14.63 16.6155C17.366 16.6155 19.1913 17.9841 20.56 17.9841C21.9287 17.9841 21.9287 16.6155 21.9287 10.6855C21.928 4.75612 17.3667 3.38745 14.63 3.38745Z" fill="#FFE51E"/>
<path d="M12.2188 18.012C12.6668 19.3334 14.1948 20.3334 14.6668 20.3334C15.1388 20.3334 16.6668 19.3334 17.1068 18.012V15.8767H12.2188V18.012Z" fill="#F3D2A2"/>
<path d="M12.2148 16.7859C12.8962 17.5559 13.7415 17.7646 14.6602 17.7646C15.5795 17.7646 16.4248 17.5566 17.1068 16.7859V14.8286H12.2148V16.7859Z" fill="#E2C196"/>
<path d="M9.15576 10.4788C9.15576 6.58943 11.6064 3.43677 14.6298 3.43677C17.6518 3.43677 20.1024 6.58943 20.1024 10.4788C20.1024 14.3674 17.6518 17.3354 14.6298 17.3354C11.6064 17.3354 9.15576 14.3674 9.15576 10.4788Z" fill="#F3D2A2"/>
<path d="M14.63 15.6954C13.5594 15.6954 12.9987 15.1661 12.9387 15.1054C12.76 14.9274 12.76 14.6387 12.9387 14.4607C13.116 14.2841 13.4 14.2827 13.5794 14.4561C13.6027 14.4774 13.9467 14.7834 14.63 14.7834C15.322 14.7834 15.6667 14.4681 15.6807 14.4554C15.8627 14.2847 16.1494 14.2901 16.3227 14.4687C16.496 14.6481 16.496 14.9294 16.32 15.1054C16.2607 15.1661 15.7007 15.6954 14.63 15.6954Z" fill="#DF1F32"/>
<path d="M7.81643 12.6747C7.80243 12.008 7.7871 12.5253 7.7871 12.3647C7.7871 10.0833 9.15576 12.694 9.15576 11.0693C9.15576 9.44333 10.0678 9.28067 10.9798 8.36867C11.4364 7.91267 12.3484 7.018 12.3484 7.018C12.3484 7.018 14.6291 8.396 16.4538 8.396C18.2778 8.396 20.1031 9.31267 20.1031 11.1373C20.1031 12.9613 21.4718 10.0813 21.4718 12.362C21.4718 12.5247 21.4571 12.008 21.4451 12.6747H21.9244C21.9284 11.3413 21.9284 11.392 21.9284 10.54C21.9284 4.61 17.3671 4 14.6298 4C11.8938 4 7.33176 4.57267 7.33176 10.5033C7.33176 11.032 7.31843 11.3413 7.3371 12.6747H7.81643Z" fill="#FFE51E"/>
<path d="M10.2962 10.6239C10.2962 11.5892 9.80684 12.3719 9.20351 12.3719C8.60017 12.3719 8.11084 11.5892 8.11084 10.6239C8.11084 9.65858 8.60017 8.87524 9.20351 8.87524C9.80684 8.87458 10.2962 9.65791 10.2962 10.6239ZM21.2222 10.6239C21.2222 11.5892 20.7335 12.3719 20.1295 12.3719C19.5262 12.3719 19.0368 11.5892 19.0368 10.6239C19.0368 9.65858 19.5255 8.87524 20.1295 8.87524C20.7335 8.87458 21.2222 9.65791 21.2222 10.6239Z" fill="#F3D2A2"/>
<path d="M12.4053 11.9247C12.0953 11.9247 11.8413 11.6707 11.8413 11.36V10.7967C11.8413 10.4867 12.0953 10.2327 12.4053 10.2327C12.716 10.2327 12.97 10.4867 12.97 10.7967V11.36C12.97 11.6707 12.716 11.9247 12.4053 11.9247ZM16.9153 11.9247C16.6053 11.9247 16.3513 11.6707 16.3513 11.36V10.7967C16.3513 10.4867 16.6053 10.2327 16.9153 10.2327C17.2253 10.2327 17.4793 10.4867 17.4793 10.7967V11.36C17.4793 11.6707 17.2253 11.9247 16.9153 11.9247Z" fill="#662113"/>
<path d="M15.2241 13.6667H14.0974C13.9421 13.6667 13.8154 13.54 13.8154 13.3847V13.2827C13.8154 13.1273 13.9414 13 14.0974 13H15.2241C15.3794 13 15.5068 13.1267 15.5068 13.2827V13.3847C15.5068 13.54 15.3794 13.6667 15.2241 13.6667Z" fill="#C1694F"/>
<path d="M20.6665 6.33342C20.6665 7.21342 8.6665 7.21342 8.6665 6.33342C8.6665 3.96941 9.33317 0.666748 14.6665 0.666748C19.3332 0.666748 20.6665 3.96941 20.6665 6.33342Z" fill="#3B88C3"/>
<path d="M8.70403 6.33325C8.70403 6.33325 8.3707 8.33325 9.70403 8.33325C10.3707 8.33325 11.3707 6.99992 14.704 6.99992C18.0374 6.99992 19.0374 8.33325 19.704 8.33325C21.0374 8.33325 20.704 6.33325 20.704 6.33325C20.704 6.33325 19.704 6.66659 14.704 6.66659C9.70403 6.66659 8.70403 6.33325 8.70403 6.33325Z" fill="#226699"/>
<path d="M8.66643 6C8.66643 6 8.3331 8 9.66643 8C10.3331 8 11.3331 6.66667 14.6664 6.66667C17.9998 6.66667 18.9998 8 19.6664 8C20.9998 8 20.6664 6 20.6664 6C20.6664 6 19.6664 6.33333 14.6664 6.33333C9.66643 6.33333 8.66643 6 8.66643 6Z" fill="#55ACEE"/>
<path d="M13.6665 1C13.6665 1 13.6665 0 14.6665 0C15.6665 0 15.6665 1 15.6665 1H13.6665Z" fill="#226699"/>
<path d="M6.334 15.7567C6.33067 14.5534 5.65 13.5214 4.66 12.988L4.668 15.9274C4.668 16.296 3.99734 16.596 3.16867 16.5974C2.34067 16.5994 1.66867 16.302 1.668 15.934L1.66134 12.9954C0.674669 13.5327 -0.00133136 14.5674 1.96885e-06 15.7707C0.00400197 17.1647 0.913335 18.334 2.16667 18.754V24H4.16667V18.754C5.42534 18.3327 6.33734 17.156 6.334 15.7567Z" fill="#66757F"/>
</svg>
