<svg width="24" height="24" viewBox="0 0 24 24" fill="none" xmlns="http://www.w3.org/2000/svg">
<path d="M23.3333 12.6667C23.3333 13.0354 23.0353 13.3334 22.6667 13.3334H20.6667C20.298 13.3334 20 13.0354 20 12.6667V11.3334C20 10.9654 20.298 10.6667 20.6667 10.6667H22.6667C23.0353 10.6667 23.3333 10.9654 23.3333 11.3334V12.6667Z" fill="#335567"/>
<path d="M21.3335 12H22.6668V16.6667H21.3335V12Z" fill="#335567"/>
<path d="M4 12.8127C4 12.8127 7.33333 10 10.6667 10H10.686L10.6667 13.3333C10.6667 13.3333 10.6667 14 8 14C5.33333 14 4 12.8127 4 12.8127Z" fill="#DFE6E8"/>
<path d="M4.83203 12.734C7.1987 10.94 9.33336 10.6953 10 10.6953V13.3333C10 15.4413 4.83203 12.734 4.83203 12.734Z" fill="#B5E3E1"/>
<path d="M21.9998 16.6427C21.9998 16.6427 22.3332 13.9674 21.3332 12.822L0.666504 12.0574C0.666504 12.0574 1.99984 14.35 4.6665 15.8787C7.33317 17.406 21.9998 16.6427 21.9998 16.6427Z" fill="#ABB9BE"/>
<path d="M4.66659 15.878C7.33325 17.406 21.9999 16.642 21.9999 16.642C21.9999 16.642 22.1919 15.0853 21.8399 13.838L1.38525 13.0593C2.03659 13.8627 3.12792 14.996 4.66659 15.878Z" fill="#E14554"/>
<path d="M0 16H24V24H0V16Z" fill="#50BFB8"/>
</svg>
