<svg width="32" height="32" viewBox="0 0 32 32" fill="none" xmlns="http://www.w3.org/2000/svg">
<g clip-path="url(#clip0)">
<rect width="32" height="32" rx="2.78261" fill="#3BA09A"/>
<path fill-rule="evenodd" clip-rule="evenodd" d="M4 2V24.2554H10.8937C11.9239 24.25 12.8984 24.1219 13.8173 23.871L17.419 34.2554H22.2033L29.953 12H24.8477L19.8036 28.7374L17.7172 21.7725C18.5266 21.0464 19.197 20.1773 19.7286 19.1654C20.5846 17.5554 21.0126 15.716 21.0126 13.6474V12.6233C21.0126 10.5547 20.5795 8.71026 19.7133 7.09001C18.8471 5.45958 17.6396 4.20618 16.0907 3.32982C14.552 2.44327 12.8043 2 10.8478 2H4ZM16.0829 16.3162C16.2627 15.5656 16.3571 14.7218 16.3658 13.785V12.608C16.3658 10.3458 15.8971 8.63383 14.9596 7.47215C14.0221 6.30027 12.6515 5.71433 10.8478 5.71433H8.5856V20.5717H10.802C11.4547 20.5717 12.0515 20.4941 12.5922 20.3388L9.69995 12H14.79L16.0829 16.3162Z" fill="#F0F9F9"/>
</g>
<defs>
<clipPath id="clip0">
<rect width="32" height="32" fill="white"/>
</clipPath>
</defs>
</svg>
