<svg width="32" height="32" viewBox="0 0 32 32" fill="none" xmlns="http://www.w3.org/2000/svg">
<path d="M2 15.9984C2 8.26757 8.26732 2 16.0011 2C23.7327 2 30 8.26757 30 15.9984C30 23.7313 23.7327 30 16.0011 30C8.26841 29.9989 2 23.7292 2 15.9984Z" fill="#4ACDD3"/>
<path d="M16 20.448C15.7329 20.448 13.2583 20.448 13.2583 20.448C10.5489 21.1934 13.4932 24.9091 10.0714 24.9091C8.86809 24.9091 8.04547 24.5993 8.04547 22.6818C8.04547 17.794 11.8458 22.5897 11.8502 18.5674L11.8513 12.6201C11.9615 11.4664 13.5444 11.813 14.1088 11.3266C15.7451 9.9205 13.8127 7.09091 16.0022 7.09091C18.1896 7.09091 16.2572 9.9205 17.8913 11.3266C18.4545 11.8141 20.0396 11.4642 20.1487 12.6201V18.5674C20.1521 22.5887 23.9568 17.7929 23.9546 22.6818C23.9546 24.5993 23.1308 24.9069 21.9264 24.9069C18.5046 24.9069 21.45 21.1912 18.7439 20.447C18.7417 20.448 16.2661 20.448 16 20.448Z" fill="white"/>
</svg>
