<svg width="27" height="26" viewBox="0 0 27 26" fill="none" xmlns="http://www.w3.org/2000/svg">
<path d="M13.4997 25.9999C15.0952 25.9999 16.3886 25.5149 16.3886 24.9166C16.3886 24.3183 15.0952 23.8333 13.4997 23.8333C11.9042 23.8333 10.6108 24.3183 10.6108 24.9166C10.6108 25.5149 11.9042 25.9999 13.4997 25.9999Z" fill="#1F323F"/>
<path d="M10.856 7.74585C10.856 7.74585 12.7012 25.2763 13.5007 25.2778C14.2995 25.2785 16.1441 7.74585 16.1441 7.74585H10.856Z" fill="#8A9AA1"/>
<path d="M13.4999 11.5556C16.6909 11.5556 19.2777 8.96876 19.2777 5.77778C19.2777 2.5868 16.6909 0 13.4999 0C10.309 0 7.72217 2.5868 7.72217 5.77778C7.72217 8.96876 10.309 11.5556 13.4999 11.5556Z" fill="#BF2A46"/>
</svg>
