<svg width="24" height="24" viewBox="0 0 24 24" fill="none" xmlns="http://www.w3.org/2000/svg">
<g clip-path="url(#clip0)">
<path d="M20.6667 16.6666H7.33333V15.9999C7.33333 14.5273 6.13933 13.3333 4.66667 13.3333H2.66667C1.194 13.3333 0 14.5273 0 15.9999V17.9999C0 19.4726 1.194 20.6666 2.66667 20.6666H21.3333C22.806 20.6666 24 19.4726 24 17.9999V16.6666H20.6667Z" fill="#8A9AA1"/>
<path d="M6.66667 8H4.764C2.66667 8 2 9.33333 2 9.33333L0 13.306V16.6667H8.66667V10C8.66667 8.89533 7.77133 8 6.66667 8Z" fill="#3F5F6F"/>
<path d="M6.00016 13.3333H1.3335L2.66683 10.6666C2.66683 10.6666 3.3335 9.33325 4.66683 9.33325H6.00016V13.3333Z" fill="#DEF4F3"/>
<path d="M4.00016 23.3333C5.47292 23.3333 6.66683 22.1394 6.66683 20.6667C6.66683 19.1939 5.47292 18 4.00016 18C2.5274 18 1.3335 19.1939 1.3335 20.6667C1.3335 22.1394 2.5274 23.3333 4.00016 23.3333Z" fill="#131E26"/>
<path d="M3.99984 21.9999C4.73622 21.9999 5.33317 21.403 5.33317 20.6666C5.33317 19.9302 4.73622 19.3333 3.99984 19.3333C3.26346 19.3333 2.6665 19.9302 2.6665 20.6666C2.6665 21.403 3.26346 21.9999 3.99984 21.9999Z" fill="#E9ECED"/>
<path d="M20.0002 23.3333C21.4729 23.3333 22.6668 22.1394 22.6668 20.6667C22.6668 19.1939 21.4729 18 20.0002 18C18.5274 18 17.3335 19.1939 17.3335 20.6667C17.3335 22.1394 18.5274 23.3333 20.0002 23.3333Z" fill="#131E26"/>
<path d="M19.9998 21.9999C20.7362 21.9999 21.3332 21.403 21.3332 20.6666C21.3332 19.9302 20.7362 19.3333 19.9998 19.3333C19.2635 19.3333 18.6665 19.9302 18.6665 20.6666C18.6665 21.403 19.2635 21.9999 19.9998 21.9999Z" fill="#E9ECED"/>
<path d="M13.3332 23.3333C14.8059 23.3333 15.9998 22.1394 15.9998 20.6667C15.9998 19.1939 14.8059 18 13.3332 18C11.8604 18 10.6665 19.1939 10.6665 20.6667C10.6665 22.1394 11.8604 23.3333 13.3332 23.3333Z" fill="#131E26"/>
<path d="M13.3333 21.9999C14.0697 21.9999 14.6667 21.403 14.6667 20.6666C14.6667 19.9302 14.0697 19.3333 13.3333 19.3333C12.597 19.3333 12 19.9302 12 20.6666C12 21.403 12.597 21.9999 13.3333 21.9999Z" fill="#E9ECED"/>
<path d="M21.3333 5.33325H12.6667C11.194 5.33325 10 6.52725 10 7.99992V16.6666H24V7.99992C24 6.52725 22.806 5.33325 21.3333 5.33325Z" fill="#50BFB8"/>
</g>
<defs>
<clipPath id="clip0">
<rect width="24" height="24" fill="white"/>
</clipPath>
</defs>
</svg>
