<svg width="420" height="368" viewBox="0 0 420 368" fill="none" xmlns="http://www.w3.org/2000/svg">
<path d="M154.722 112.623H49.4531V315.327H154.722V112.623Z" fill="#F3F3F3"/>
<path d="M49.7428 112.623H25.2568V315.327H49.7428V112.623Z" fill="#DFDFDF"/>
<path d="M207.621 57.7615V190.062H215.215" stroke="#DFDFDF" stroke-width="2.40688" stroke-miterlimit="10" stroke-dasharray="9.63 9.63"/>
<path d="M332.899 335.25L306.833 291.394" stroke="#ED7562" stroke-width="1.60458" stroke-linecap="round" stroke-linejoin="round"/>
<path d="M344.203 335.25L318.137 291.394" stroke="#ED7562" stroke-width="1.60458" stroke-linecap="round" stroke-linejoin="round"/>
<path d="M260.994 335.25L287.057 291.394" stroke="#ED7562" stroke-width="1.60458" stroke-linecap="round" stroke-linejoin="round"/>
<path d="M320.917 198.982H359.455L333.573 292.77H267.913V289.429H316.608L320.917 198.982Z" fill="#ED7562"/>
<path d="M263.629 331.864L256.323 333L257.339 339.529L264.644 338.393L263.629 331.864Z" fill="#DE8E68"/>
<path d="M220.617 327.735L214.416 323.709L210.817 329.25L217.018 333.276L220.617 327.735Z" fill="#DE8E68"/>
<path d="M244.932 260.534C239.536 260.534 212.607 323.221 212.607 325.511C212.607 327.801 218.452 330.4 219.315 330.4C220.658 329.153 246.436 291.895 249.12 289.296C251.803 286.697 244.932 260.534 244.932 260.534Z" fill="#273477"/>
<path d="M287.782 214.5C286.009 215.058 277.352 222.474 275.84 231.382C274.3 231.198 265.057 230.813 261.206 230.657C259.947 228.695 257.295 227.335 254.218 227.335C249.93 227.335 246.452 229.971 246.452 233.219C246.452 233.292 246.452 233.36 246.452 233.432H261.956C261.956 233.36 261.956 233.292 261.956 233.219C261.951 232.399 261.73 231.593 261.315 230.885L274.785 233.031L290.787 234.696L292.436 220.721L287.782 214.5Z" fill="#D37C59"/>
<path d="M301.068 204.574C301.068 203.446 298.26 202.167 296.198 202.167C290.694 202.167 281.384 212.194 281.384 213.454C281.384 214.713 288.087 220.32 293.238 220.657C298.388 220.994 301.068 204.574 301.068 204.574Z" fill="#CADAAF"/>
<path d="M314.74 196.536C345.849 196.536 338.74 266.803 334.797 269.771C330.854 272.739 296.287 273.012 294.037 270.044C291.786 267.076 277.822 196.536 314.74 196.536Z" fill="#D5E3BD"/>
<path d="M320.207 183.095H307.771V199.752C307.771 202.396 320.207 202.416 320.207 199.752V183.095Z" fill="#D37C59"/>
<path d="M323.748 176.785C325.337 166.821 321.191 157.877 314.487 156.808C307.784 155.739 301.061 162.95 299.472 172.915C297.883 182.879 302.029 191.823 308.733 192.892C315.436 193.961 322.158 186.749 323.748 176.785Z" fill="#DE8E68"/>
<path d="M340.773 147.923C346.791 147.923 352.808 151.132 360.43 151.132C366.447 151.132 372.063 148.725 379.283 148.725C392.12 148.725 396.132 157.148 396.132 162.362C396.132 175.599 385.301 180.813 377.278 180.813C364.441 180.813 362.836 171.989 347.593 171.989C332.75 171.989 334.756 159.956 331.547 159.956C329.942 159.956 328.94 160.156 328.338 160.758C327.736 161.36 324.728 159.154 324.728 158.352C324.728 157.549 328.739 147.923 340.773 147.923Z" fill="black"/>
<path d="M313.897 152.335C299.709 152.335 296.74 163.129 296.74 166.245C296.74 169.362 298.71 171.672 299.717 171.748C300.343 168.022 303.327 162.88 303.467 162.764C304.27 163.566 307.242 166.141 310.287 166.373C312.823 166.504 315.286 167.271 317.447 168.604C317.626 169.64 318.017 170.629 318.595 171.507C319.416 172.83 320.655 173.839 322.117 174.375C322.473 175.271 322.678 176.22 322.722 177.183C322.722 181.467 322.321 183.199 321.92 184.403C328.459 184.403 331.548 177.668 331.548 169.161C331.548 155.155 319.152 152.335 313.897 152.335Z" fill="black"/>
<path d="M322.702 180.734C324.616 180.734 326.168 179.182 326.168 177.268C326.168 175.353 324.616 173.802 322.702 173.802C320.788 173.802 319.236 175.353 319.236 177.268C319.236 179.182 320.788 180.734 322.702 180.734Z" fill="#DE8E68"/>
<path d="M311.089 222.474C309.689 222.811 304.077 226.289 300.711 232.289C297.401 231.671 283.939 228.306 271.989 228.306C270.866 228.306 267.949 227.383 266.774 227.383C259.766 227.383 258.302 231.17 258.302 232.289C258.302 233.408 258.542 233.44 258.759 233.44C282.828 233.44 288.881 243.592 302.42 243.592C306.8 243.592 315.83 240.419 321.274 232.293C319.364 225.819 311.089 222.474 311.089 222.474Z" fill="#DE8E68"/>
<path d="M334.748 208.797C342.265 216.093 323.255 236.288 320.206 235.991C317.158 235.694 306.166 224.123 306.062 220.605C305.958 217.087 327.483 201.742 334.748 208.797Z" fill="#DBE7C8"/>
<path d="M350.201 234.339H180.424V239.818H350.201V234.339Z" fill="#FD8369"/>
<path d="M334.728 273.265C334.728 271.54 335.029 269.542 333.954 269.097C308.433 258.577 271.071 257.213 265.314 257.213C259.558 257.213 242.726 257.798 242.726 262.616C242.726 280.015 252.421 333.581 254.391 335.582C255.326 336.525 263.477 335.895 264.492 334.877C264.424 330.464 266.987 286.148 264.648 280.781C286.097 288.643 310.455 292.365 316.873 292.365C335.475 292.345 334.728 275.31 334.728 273.265Z" fill="#344392"/>
<path d="M217.629 332.45L211.155 328.134L193.729 324.484L192.072 327.22L212.607 339.914L217.629 332.45Z" fill="black"/>
<path d="M265.25 336.669L257.568 337.877L242.272 346.99L242.906 350.13L266.614 345.566L265.25 336.669Z" fill="black"/>
<path d="M341.078 321.528V238.285" stroke="#FD8369" stroke-width="1.60458" stroke-linecap="round" stroke-linejoin="round"/>
<path d="M200.016 321.528V238.285" stroke="#FD8369" stroke-width="1.60458" stroke-linecap="round" stroke-linejoin="round"/>
<path d="M329.157 338.21V238.285" stroke="#FD8369" stroke-width="1.60458" stroke-linecap="round" stroke-linejoin="round"/>
<path d="M187.42 338.21V238.285" stroke="#FD8369" stroke-width="1.60458" stroke-linecap="round" stroke-linejoin="round"/>
<path d="M272.591 335.25L298.653 291.394" stroke="#ED7562" stroke-width="1.60458" stroke-linecap="round" stroke-linejoin="round"/>
<path d="M270.914 233.332H242.726V234.339H270.914V233.332Z" fill="#344392"/>
<path d="M273 167.717H211.456V212.403H273V167.717Z" fill="#DFDFDF"/>
<path d="M233.583 204L225.095 234.339H239.973L248.213 204H233.583Z" fill="#D3D3D3"/>
<path d="M240.764 59.9193C243.718 57.0295 245.585 53.2084 246.047 49.1017C246.51 44.9951 245.54 40.8547 243.302 37.3802C241.064 33.9057 237.696 31.3103 233.765 30.0324C229.834 28.7545 225.583 28.8727 221.729 30.3668C219.265 26.5912 215.821 23.5564 211.765 21.587C207.709 19.6177 203.194 18.7878 198.703 19.1862C194.212 19.5846 189.913 21.1962 186.267 23.8488C182.621 26.5014 179.765 30.095 178.004 34.2453C174.535 32.8423 170.713 32.5592 167.074 33.4359C163.435 34.3126 160.162 36.3051 157.712 39.1344C155.262 41.9638 153.758 45.4883 153.411 49.2146C153.064 52.9409 153.891 56.6824 155.777 59.9153L240.764 59.9193Z" fill="#DFDFDF"/>
<path d="M192.931 56.5222V85.2886H104.65V112.623" stroke="#DFDFDF" stroke-width="2.40688" stroke-miterlimit="10"/>
<path d="M50.874 294.503L59.5147 288.221" stroke="#ECF2E2" stroke-width="1.20344" stroke-linecap="round" stroke-linejoin="round"/>
<path d="M145.997 125.446H58.1738V142.372H145.997V125.446Z" fill="#DFDFDF"/>
<path d="M139.691 134.752C141.331 134.752 142.66 133.423 142.66 131.783C142.66 130.144 141.331 128.815 139.691 128.815C138.052 128.815 136.723 130.144 136.723 131.783C136.723 133.423 138.052 134.752 139.691 134.752Z" fill="#F3F3F3"/>
<path d="M88.501 131.783H134.224" stroke="#F3F3F3" stroke-width="1.60458" stroke-linecap="round" stroke-linejoin="round"/>
<path d="M145.997 154.06H58.1738V170.986H145.997V154.06Z" fill="#DFDFDF"/>
<path d="M139.691 163.366C141.331 163.366 142.66 162.037 142.66 160.397C142.66 158.758 141.331 157.429 139.691 157.429C138.052 157.429 136.723 158.758 136.723 160.397C136.723 162.037 138.052 163.366 139.691 163.366Z" fill="#F3F3F3"/>
<path d="M88.501 160.397H134.224" stroke="#F3F3F3" stroke-width="1.60458" stroke-linecap="round" stroke-linejoin="round"/>
<path d="M145.997 182.67H58.1738V199.596H145.997V182.67Z" fill="#DFDFDF"/>
<path d="M139.691 191.976C141.331 191.976 142.66 190.647 142.66 189.008C142.66 187.368 141.331 186.039 139.691 186.039C138.052 186.039 136.723 187.368 136.723 189.008C136.723 190.647 138.052 191.976 139.691 191.976Z" fill="#F3F3F3"/>
<path d="M88.501 189.007H134.224" stroke="#F3F3F3" stroke-width="1.60458" stroke-linecap="round" stroke-linejoin="round"/>
<path d="M145.997 211.284H58.1738V228.21H145.997V211.284Z" fill="#DFDFDF"/>
<path d="M139.691 220.59C141.331 220.59 142.66 219.261 142.66 217.621C142.66 215.982 141.331 214.653 139.691 214.653C138.052 214.653 136.723 215.982 136.723 217.621C136.723 219.261 138.052 220.59 139.691 220.59Z" fill="#F3F3F3"/>
<path d="M88.501 217.621H134.224" stroke="#F3F3F3" stroke-width="1.60458" stroke-linecap="round" stroke-linejoin="round"/>
<path d="M145.997 239.894H58.1738V256.82H145.997V239.894Z" fill="#DFDFDF"/>
<path d="M139.691 249.204C141.331 249.204 142.66 247.875 142.66 246.235C142.66 244.596 141.331 243.267 139.691 243.267C138.052 243.267 136.723 244.596 136.723 246.235C136.723 247.875 138.052 249.204 139.691 249.204Z" fill="#F3F3F3"/>
<path d="M88.501 246.235H134.224" stroke="#F3F3F3" stroke-width="1.60458" stroke-linecap="round" stroke-linejoin="round"/>
<path d="M30.9121 137.623H44.0857" stroke="#F3F3F3" stroke-width="0.802292" stroke-linecap="round" stroke-linejoin="round"/>
<path d="M30.9121 141.032H44.0857" stroke="#F3F3F3" stroke-width="0.802292" stroke-linecap="round" stroke-linejoin="round"/>
<path d="M30.9121 160.818H44.0857" stroke="#F3F3F3" stroke-width="0.802292" stroke-linecap="round" stroke-linejoin="round"/>
<path d="M30.9121 164.228H44.0857" stroke="#F3F3F3" stroke-width="0.802292" stroke-linecap="round" stroke-linejoin="round"/>
<path d="M30.9121 189.007H44.0857" stroke="#F3F3F3" stroke-width="0.802292" stroke-linecap="round" stroke-linejoin="round"/>
<path d="M30.9121 192.42H44.0857" stroke="#F3F3F3" stroke-width="0.802292" stroke-linecap="round" stroke-linejoin="round"/>
<path d="M30.9121 216.281H44.0857" stroke="#F3F3F3" stroke-width="0.802292" stroke-linecap="round" stroke-linejoin="round"/>
<path d="M30.9121 219.695H44.0857" stroke="#F3F3F3" stroke-width="0.802292" stroke-linecap="round" stroke-linejoin="round"/>
<path d="M304.113 140.102L309.437 120.825L298.098 120.271L304.113 140.102Z" fill="#DFDFDF"/>
<path d="M304.007 130.476C315.716 130.476 325.207 120.986 325.207 109.279C325.207 97.5725 315.716 88.0823 304.007 88.0823C292.299 88.0823 282.808 97.5725 282.808 109.279C282.808 120.986 292.299 130.476 304.007 130.476Z" fill="#DFDFDF"/>
<path d="M302.098 115.694V115.551C302.114 114.033 302.273 112.824 302.575 111.926C302.877 111.027 303.307 110.3 303.863 109.743C304.42 109.187 305.088 108.674 305.867 108.205C306.336 107.919 306.757 107.581 307.131 107.191C307.505 106.793 307.799 106.336 308.013 105.82C308.236 105.303 308.347 104.73 308.347 104.102C308.347 103.323 308.164 102.647 307.799 102.075C307.433 101.502 306.944 101.061 306.332 100.751C305.72 100.441 305.04 100.286 304.292 100.286C303.64 100.286 303.012 100.421 302.408 100.691C301.804 100.962 301.299 101.387 300.893 101.967C300.488 102.548 300.253 103.307 300.19 104.245H297.184C297.248 102.894 297.598 101.737 298.234 100.775C298.878 99.8127 299.725 99.0772 300.774 98.5684C301.832 98.0595 303.004 97.8051 304.292 97.8051C305.692 97.8051 306.908 98.0834 307.942 98.6399C308.983 99.1965 309.786 99.9597 310.351 100.93C310.923 101.9 311.21 103.005 311.21 104.245C311.21 105.12 311.074 105.911 310.804 106.619C310.542 107.326 310.16 107.958 309.659 108.515C309.166 109.071 308.57 109.564 307.87 109.994C307.171 110.431 306.61 110.892 306.189 111.377C305.767 111.854 305.461 112.423 305.27 113.083C305.08 113.743 304.976 114.565 304.96 115.551V115.694H302.098ZM303.625 122.755C303.036 122.755 302.531 122.544 302.11 122.123C301.689 121.701 301.478 121.196 301.478 120.608C301.478 120.02 301.689 119.515 302.11 119.093C302.531 118.672 303.036 118.461 303.625 118.461C304.213 118.461 304.718 118.672 305.139 119.093C305.561 119.515 305.771 120.02 305.771 120.608C305.771 120.998 305.672 121.355 305.473 121.681C305.282 122.007 305.024 122.27 304.698 122.469C304.38 122.659 304.022 122.755 303.625 122.755Z" fill="white"/>
<path d="M200.974 117.24L215.415 131.681" stroke="#FD8369" stroke-width="2.15805" stroke-linecap="round" stroke-linejoin="round"/>
<path d="M200.974 131.681L215.415 117.24" stroke="#FD8369" stroke-width="2.15805" stroke-linecap="round" stroke-linejoin="round"/>
</svg>
