<svg width="136" height="65" viewBox="0 0 136 65" fill="none" xmlns="http://www.w3.org/2000/svg">
<g clip-path="url(#clip0_225_1899)">
<path d="M135.167 45.8512H90.0936L88.1919 44.9969H135.167V45.8512ZM70.4304 44.9969H0.714844V45.8512H67.8677L70.4304 44.9969ZM81.6691 49.3455L78.8941 50.5968L67.8677 45.8512V47.6384L78.8941 52.3855L81.6691 51.1326V49.3455ZM75.5201 46.5308L83.6997 50.2733L86.065 49.218V47.4815L83.6997 48.5385L77.6388 45.7614L75.5201 46.5308ZM90.0936 45.8512L88.063 46.6762L82.4591 44.1147L80.2636 44.8335L88.063 48.4013L90.0936 47.5747V45.8512Z" fill="#273477"/>
<path d="M128.206 15.3834C128.935 14.4327 129.688 13.4983 130.388 12.5246C131.952 10.3487 133.419 8.11399 134.562 5.67996C134.968 4.8158 135.331 3.93203 135.481 2.98456C135.545 2.58492 135.558 2.17869 135.52 1.77571C135.5 1.50592 135.398 1.24866 135.229 1.03802C135.059 0.827389 134.829 0.67333 134.57 0.596269C134.022 0.422222 133.44 0.381345 132.872 0.477018C131.134 0.702451 129.51 1.30687 127.912 1.97991C124.53 3.41419 121.315 5.17355 118.142 7.01296C114.19 9.29996 110.319 11.7231 106.531 14.2824C106.122 14.5584 105.715 14.8411 105.305 15.1237C105.224 15.1792 105.142 15.2462 105.018 15.3507C105.118 15.3767 105.22 15.3948 105.323 15.4046C108.523 15.4046 111.721 15.4046 114.917 15.4046C114.875 15.388 114.832 15.376 114.788 15.3687C111.552 15.3687 108.317 15.3687 105.08 15.3687C105.043 15.3687 105.004 15.3687 104.964 15.3687C101.779 17.5675 98.7155 19.9392 95.7889 22.4731C95.0919 23.0808 94.4064 23.7032 93.7044 24.3076C93.378 24.5935 93.0319 24.8876 92.5749 24.9611C92.1733 24.9121 92.0019 24.6164 91.8909 24.288C91.7277 23.7816 91.5742 23.2687 91.4241 22.7574C90.6397 20.137 89.4807 17.6439 87.9831 15.3556C87.353 14.4261 86.7556 13.4738 86.0847 12.5786C85.2963 11.5233 84.4719 10.4908 83.6101 9.49599C82.7521 8.54319 81.7686 7.71169 80.6865 7.02439C78.6869 5.70119 76.5029 4.79619 74.2111 4.12969C72.5466 3.65244 70.8508 3.29218 69.1361 3.05153C68.0669 2.88818 66.9896 2.79996 65.9122 2.71338C64.8741 2.63171 63.831 2.57943 62.7896 2.55003C61.5637 2.51409 60.3411 2.48795 59.1103 2.50429C57.8795 2.52062 56.6618 2.57943 55.4375 2.65458C54.1316 2.73625 52.8388 2.8359 51.5428 2.96986C50.0802 3.12014 48.6203 3.29603 47.1632 3.4975C45.3464 3.7458 43.528 3.98757 41.721 4.30612C39.4651 4.69818 37.2173 5.14088 34.9729 5.59501C31.7572 6.24844 28.5627 6.99063 25.3894 7.82158C22.695 8.52837 20.0065 9.2613 17.324 10.0204C13.0799 11.2292 8.86687 12.5655 4.68971 14.0014C3.71031 14.3412 2.72111 14.6891 1.73681 15.0371C1.57358 15.0926 1.42993 15.1612 1.2063 15.2527C1.26384 15.285 1.32528 15.3097 1.38912 15.3262L6.63056 15.3132H0.0179557L0 15.2592C0.0443839 15.229 0.0913619 15.2028 0.140381 15.1808C3.70541 13.838 7.32267 12.6439 10.953 11.4955C16.3462 9.79113 21.7874 8.25938 27.2764 6.90024C30.8251 6.02301 34.3918 5.22256 37.9845 4.54789C40.1849 4.13623 42.3919 3.77194 44.6053 3.42562C46.2768 3.16425 47.9565 2.94699 49.6378 2.74606C50.8539 2.60067 52.0749 2.49775 53.2959 2.40464C54.7519 2.29192 56.208 2.16777 57.6673 2.12693C59.4008 2.07629 61.1393 2.06485 62.8745 2.11549C64.4105 2.1596 65.9482 2.26415 67.476 2.42261C70.6313 2.74932 73.7262 3.37008 76.6971 4.51849C78.8261 5.31157 80.8087 6.4532 82.5637 7.89672C83.6721 8.82459 84.5895 9.92726 85.4824 11.0544C86.576 12.4364 87.5799 13.8821 88.5348 15.3638C88.8417 15.8947 89.1584 16.4191 89.4538 16.9565C90.3685 18.5844 91.1104 20.3035 91.6673 22.086C91.8648 22.7394 92.0607 23.3928 92.2615 24.0316C92.2791 24.1339 92.3193 24.231 92.3791 24.3157C92.439 24.4005 92.517 24.4709 92.6075 24.5216C92.7616 24.4456 92.9095 24.3576 93.0499 24.2586C93.5396 23.8535 94.0293 23.4418 94.519 23.0204C95.5376 22.1448 96.5382 21.2463 97.5747 20.3903C99.6184 18.7056 101.726 17.1036 103.898 15.5843C103.979 15.5148 104.054 15.4394 104.124 15.3589H103.654C102.622 15.3589 101.59 15.3589 100.552 15.3589C99.5139 15.3589 98.4644 15.3589 97.4213 15.372C99.576 15.372 101.731 15.372 103.885 15.372C104.081 15.3713 104.27 15.307 104.426 15.189C109.913 11.3716 115.603 7.85317 121.469 4.64917C123.947 3.29494 126.467 2.03545 129.116 1.03407C130.194 0.609104 131.312 0.295993 132.453 0.0996617C133.137 -0.00815436 133.821 -0.063696 134.506 0.124165C135.438 0.383904 135.966 1.0553 135.997 2.03218C136.026 2.93718 135.789 3.78664 135.479 4.6214C134.839 6.34156 133.932 7.92449 132.965 9.47639C131.694 11.4968 130.319 13.4499 128.845 15.3279C128.825 15.3487 128.803 15.3673 128.779 15.3834H128.206Z" fill="#273477"/>
<path d="M87.9835 15.3558C87.866 15.3558 87.7484 15.3672 87.6325 15.3672C84.9424 15.3672 82.2523 15.3672 79.5622 15.3672L43.2574 15.3558H25.7473L7.18268 15.3329C6.99986 15.3329 6.81867 15.3166 6.63911 15.3084L1.39767 15.3215C1.33383 15.3049 1.27238 15.2802 1.21484 15.248C1.43847 15.1565 1.59028 15.0846 1.74535 15.0323C2.72476 14.6844 3.71232 14.3364 4.69826 13.9967C8.87541 12.5607 13.0852 11.2196 17.3326 10.0156C20.0129 9.25329 22.7013 8.52036 25.398 7.81684C28.5712 6.98371 31.7657 6.24153 34.9814 5.59027C37.2259 5.13614 39.4736 4.69344 41.7295 4.30138C43.5365 3.9861 45.3549 3.74106 47.1717 3.49276C48.63 3.29346 50.0898 3.11758 51.5513 2.96512C52.8474 2.83116 54.1467 2.73151 55.4461 2.64983C56.6687 2.57469 57.8946 2.51752 59.1188 2.49955C60.3431 2.48158 61.5673 2.50935 62.7981 2.54529C63.8395 2.57796 64.8826 2.63023 65.9208 2.70864C66.9981 2.79522 68.0755 2.8916 69.1447 3.04679C70.8593 3.28744 72.5551 3.6477 74.2196 4.12495C76.5049 4.79145 78.6955 5.69646 80.6951 7.01965C81.7779 7.7047 82.7625 8.534 83.6219 9.48472C84.4837 10.4796 85.3081 11.512 86.0965 12.5673C86.7592 13.4674 87.3567 14.4198 87.9835 15.3558ZM130.388 12.5248C131.952 10.3489 133.42 8.11415 134.562 5.68012C134.969 4.81596 135.331 3.93219 135.481 2.98472C135.546 2.58508 135.559 2.17885 135.52 1.77587C135.5 1.50608 135.399 1.24882 135.229 1.03818C135.059 0.827549 134.83 0.673491 134.57 0.59643C134.022 0.422383 133.44 0.381505 132.873 0.477179C131.134 0.702612 129.51 1.30704 127.912 1.98007C124.53 3.41435 121.316 5.17371 118.143 7.01312C114.19 9.30012 110.32 11.7233 106.532 14.2825C106.122 14.5586 105.716 14.8412 105.306 15.1238C105.224 15.1794 105.143 15.2463 105.019 15.3509C105.119 15.3769 105.221 15.3949 105.324 15.4048C108.523 15.4048 111.721 15.4048 114.917 15.4048H127.778C127.92 15.4048 128.064 15.3966 128.206 15.3901C128.936 14.4328 129.688 13.4984 130.388 12.5248ZM88.5352 15.364C88.8421 15.8949 89.1588 16.4193 89.4542 16.9567C90.3689 18.5845 91.1107 20.3037 91.6677 22.0861C91.8652 22.7396 92.0611 23.393 92.2618 24.0317C92.2794 24.134 92.3196 24.2311 92.3795 24.3159C92.4394 24.4007 92.5174 24.471 92.6079 24.5218C92.7619 24.4457 92.9098 24.3578 93.0503 24.2588C93.54 23.8537 94.0297 23.442 94.5194 23.0205C95.5379 22.1449 96.5386 21.2465 97.5751 20.3905C99.6188 18.7057 101.727 17.1037 103.899 15.5845C103.979 15.515 104.055 15.4396 104.124 15.3591H103.654C102.622 15.3591 101.591 15.3591 100.552 15.3591C99.5143 15.3591 98.4647 15.3591 97.4217 15.3721L88.5352 15.364Z" fill="#273477"/>
<path d="M84.4718 32.6551C84.4718 32.5995 84.4849 32.5228 84.4865 32.4444C84.5126 31.5916 84.2661 31.2061 83.2378 31.0297C83.1987 31.0264 83.1593 31.0264 83.1202 31.0297C81.8291 31.0297 80.5362 31.0297 79.2451 31.0297C79.076 31.0351 78.9085 31.0637 78.7472 31.1146C78.3652 31.2257 78.042 31.4038 78.0257 31.8791H76.9549C76.9326 31.6293 76.9883 31.3787 77.1143 31.1619C77.2403 30.9451 77.4304 30.7728 77.6584 30.6687C78.0717 30.4415 78.5353 30.3219 79.0067 30.3207C80.4693 30.3109 81.9314 30.3109 83.3928 30.3207C83.8243 30.3254 84.2491 30.4282 84.635 30.6213C84.908 30.7378 85.1408 30.9319 85.3045 31.1797C85.4681 31.4274 85.5555 31.7178 85.5557 32.0147C85.5785 33.2285 85.5557 34.4439 85.5557 35.6592C85.5492 35.7004 85.5371 35.7406 85.5198 35.7785H84.5404C84.5126 35.6641 84.4881 35.5563 84.4555 35.4207C83.9658 35.7475 83.4418 35.7932 82.9015 35.7916C81.5695 35.7916 80.2392 35.8014 78.9072 35.7834C78.491 35.7778 78.0765 35.7302 77.6699 35.6413C76.9304 35.4779 76.5958 35.027 76.5892 34.2756C76.5892 34.0926 76.5892 33.9097 76.5892 33.7267C76.5828 33.5164 76.6385 33.3089 76.7494 33.1302C76.8604 32.9514 77.0216 32.8095 77.2128 32.7221C77.5584 32.5355 77.9448 32.4373 78.3375 32.4362C80.0612 32.4362 81.785 32.4215 83.5071 32.4362C83.814 32.446 84.1241 32.575 84.4718 32.6551ZM81.0162 35.0483C81.7197 35.0483 82.4232 35.0483 83.1268 35.0483C83.3731 35.046 83.6182 35.013 83.8564 34.9503C84.2727 34.8375 84.4506 34.5827 84.4702 34.1531C84.4913 33.9699 84.4499 33.785 84.3527 33.6284C84.2555 33.4718 84.1082 33.3528 83.9348 33.2906C83.6326 33.1697 83.3083 33.114 82.9831 33.1272H79.8213C79.4312 33.1272 79.0394 33.1272 78.6493 33.1468C77.8625 33.1893 77.6323 33.4457 77.6552 34.2135C77.6682 34.6235 77.8184 34.8441 78.2183 34.947C78.4704 35.0098 78.729 35.0427 78.9888 35.045C79.658 35.0564 80.3387 35.0483 81.0162 35.0483ZM21.7492 35.7752H20.7698L20.7061 35.4077C20.1609 35.7981 19.5504 35.7948 18.9367 35.7932C17.67 35.7932 16.4049 35.803 15.1382 35.785C14.722 35.7802 14.3074 35.7326 13.9009 35.6429C13.1386 35.4697 12.8186 35.0303 12.8137 34.2446C12.8137 34.0812 12.8137 33.9048 12.8137 33.7349C12.806 33.5176 12.8642 33.3031 12.9808 33.1197C13.0974 32.9362 13.2668 32.7925 13.4667 32.7074C13.8291 32.525 14.2297 32.4314 14.6354 32.4346C16.3184 32.4346 18.003 32.4346 19.6859 32.4346C20.0248 32.4354 20.3566 32.5311 20.6441 32.7106C20.915 31.804 20.4808 31.1718 19.5129 31.0378C19.4479 31.0292 19.3825 31.0253 19.317 31.0264C18.0519 31.0264 16.7852 31.0264 15.5202 31.0362C15.3246 31.0409 15.1307 31.0728 14.9439 31.131C14.5767 31.2404 14.2698 31.425 14.2584 31.884H13.212C13.1272 31.394 13.3312 31.0526 13.7017 30.7863C14.1334 30.4879 14.6462 30.3294 15.1708 30.3321C16.6595 30.3109 18.1482 30.3174 19.6353 30.3321C20.0805 30.3353 20.5182 30.4475 20.9102 30.6589C21.166 30.7806 21.3822 30.9721 21.5341 31.2114C21.686 31.4507 21.7673 31.728 21.7688 32.0115C21.7867 33.2268 21.7688 34.4422 21.7688 35.656C21.7663 35.6963 21.7597 35.7362 21.7492 35.7752ZM17.2178 33.1256V33.1452C16.4016 33.1452 15.6001 33.1125 14.7954 33.155C14.1066 33.1925 13.8291 33.431 13.8715 34.1678C13.8715 34.1939 13.8715 34.2201 13.8715 34.2462C13.8911 34.6105 14.0347 34.8408 14.3938 34.9356C14.657 35.0057 14.9279 35.0419 15.2002 35.0434C16.5823 35.0543 17.9643 35.0543 19.3464 35.0434C19.5799 35.0421 19.8124 35.0119 20.0385 34.9535C20.489 34.8375 20.711 34.5598 20.6914 34.1122C20.6718 33.6646 20.5135 33.4016 20.0826 33.2611C19.7971 33.1753 19.5008 33.1308 19.2027 33.1288C18.5482 33.1125 17.8838 33.1256 17.2178 33.1256ZM40.9814 33.0324H33.058C33.035 33.35 33.035 33.6689 33.058 33.9865C33.0846 34.1893 33.1693 34.3802 33.302 34.5359C33.4347 34.6916 33.6096 34.8054 33.8056 34.8637C34.0995 34.9668 34.407 35.0257 34.7181 35.0385C35.9848 35.0581 37.2515 35.0385 38.5182 35.0385C38.608 35.0385 38.6994 35.0385 38.7908 35.0221C39.4747 34.9503 39.7931 34.6742 39.9449 34.011H40.9716C40.9948 34.2338 40.9611 34.4588 40.8738 34.6651C40.7864 34.8714 40.6482 35.0521 40.4721 35.1904C40.1169 35.4809 39.6845 35.6609 39.2283 35.7082C38.8668 35.7565 38.5025 35.781 38.1379 35.7818C37.1193 35.7818 36.1007 35.7932 35.0821 35.7818C34.4955 35.7955 33.9103 35.7189 33.3469 35.5547C32.632 35.3211 32.1145 34.8849 31.9823 34.0992C31.9647 33.9835 31.9559 33.8666 31.9562 33.7496C31.9562 33.3314 31.9676 32.9116 31.9562 32.495C31.943 32.18 32.0112 31.8668 32.1541 31.5858C32.2971 31.3048 32.51 31.0655 32.7724 30.8908C33.2184 30.5441 33.7606 30.3438 34.3247 30.3174C35.5098 30.2766 36.6981 30.2619 37.8848 30.2652C38.314 30.2723 38.7417 30.3171 39.163 30.3991C39.6521 30.4863 40.1056 30.7133 40.4688 31.0526C40.6264 31.1901 40.7536 31.3591 40.8421 31.5487C40.9306 31.7383 40.9786 31.9443 40.983 32.1536C40.9863 32.4297 40.9814 32.7025 40.9814 33.0324ZM39.8894 32.2843C39.8929 32.1255 39.8598 31.9681 39.7927 31.8241C39.7256 31.6802 39.6263 31.5537 39.5025 31.4544C39.2002 31.1808 38.8083 31.0274 38.4007 31.0231C37.0948 31.0084 35.7889 31.0052 34.4928 31.0231C34.2639 31.0239 34.0379 31.0747 33.8306 31.1721C33.6234 31.2694 33.4399 31.4109 33.2931 31.5867C33.2015 31.6765 33.1324 31.7866 33.0913 31.908C33.0502 32.0295 33.0382 32.1589 33.0564 32.2859L39.8894 32.2843ZM89.7949 30.2782H90.7743C90.7939 30.4187 90.8151 30.5543 90.8396 30.7226C91.6672 30.2652 92.5486 30.2554 93.435 30.2635C94.1646 30.2635 94.9041 30.2374 95.6256 30.275C96.1449 30.2933 96.6605 30.3689 97.1633 30.5004C97.8439 30.6899 98.3696 31.1065 98.572 31.8318C98.6023 31.9176 98.621 32.0072 98.6275 32.098C98.6275 32.7237 98.6634 33.3526 98.6275 33.975C98.5916 34.5974 98.2112 35.0287 97.684 35.3309C97.2867 35.5569 96.8438 35.6909 96.3879 35.7229C95.8427 35.7654 95.2959 35.7785 94.7556 35.7883C94.2152 35.7981 93.6325 35.7883 93.0726 35.7883C92.3397 35.7883 91.6149 35.7311 90.9506 35.3881C90.9294 35.3766 90.9 35.3881 90.833 35.3881V37.9691H89.8259C89.7328 37.7028 89.7133 30.7111 89.7949 30.2782ZM94.2022 35.0483C94.6919 35.0483 95.1946 35.0483 95.6909 35.0483C96.0701 35.0573 96.4473 34.989 96.7992 34.8474C97.0287 34.7652 97.2271 34.614 97.3674 34.4145C97.5077 34.2151 97.5829 33.9771 97.5828 33.7333C97.5975 33.2775 97.5975 32.8201 97.5828 32.3627C97.5815 32.1259 97.5109 31.8946 97.3798 31.6975C97.2487 31.5004 97.0628 31.346 96.8449 31.2535C96.4883 31.0838 96.0971 30.9993 95.7023 31.0068C94.6576 31.0068 93.6129 31.0068 92.5682 31.0068C92.1776 31.0028 91.7906 31.083 91.4337 31.242C91.2493 31.3128 91.0893 31.4357 90.9734 31.5958C90.8574 31.7559 90.7905 31.9463 90.7808 32.1438C90.7514 32.7025 90.7563 33.2644 90.7808 33.8231C90.7955 34.3393 91.1154 34.6579 91.5627 34.8506C91.9017 34.9891 92.2658 35.0559 92.6319 35.0466C93.1591 35.0466 93.6798 35.0483 94.2022 35.0483ZM107.024 30.2407C107.765 30.2668 108.51 30.2684 109.249 30.3256C109.902 30.3779 110.527 30.569 111.017 31.0542C111.181 31.2134 111.312 31.4034 111.403 31.6133C111.494 31.8232 111.542 32.049 111.546 32.2777C111.559 32.7678 111.556 33.2448 111.546 33.7267C111.547 34.0349 111.468 34.3382 111.317 34.6069C111.167 34.8757 110.949 35.1009 110.686 35.2606C110.288 35.5113 109.838 35.6662 109.37 35.7131C108.982 35.7602 108.592 35.7853 108.201 35.7883C107.367 35.7997 106.531 35.8014 105.697 35.7883C105.111 35.7984 104.526 35.7213 103.962 35.5596C102.922 35.2247 102.481 34.5092 102.516 33.5862C102.53 33.1811 102.516 32.7694 102.516 32.3708C102.516 31.5737 102.896 31.0068 103.596 30.6523C104.204 30.3436 104.868 30.2913 105.532 30.2684C106.022 30.2521 106.523 30.2684 107.019 30.2684L107.024 30.2407ZM107.024 35.0483H108.627C109.021 35.0584 109.412 34.9785 109.77 34.8147C109.983 34.7272 110.164 34.5775 110.291 34.3852C110.417 34.1928 110.482 33.9667 110.478 33.7365C110.478 33.3053 110.468 32.874 110.478 32.4444C110.497 32.168 110.42 31.8936 110.262 31.6668C110.103 31.4401 109.871 31.2746 109.605 31.1979C109.273 31.088 108.927 31.0269 108.578 31.0166C107.536 30.9937 106.493 30.9937 105.449 31.0166C105.112 31.0242 104.778 31.0792 104.457 31.18C103.862 31.3646 103.601 31.755 103.591 32.379C103.591 32.8086 103.591 33.2399 103.591 33.6695C103.582 33.9261 103.655 34.1789 103.798 34.3915C103.942 34.6041 104.15 34.7655 104.391 34.8523C104.73 34.9887 105.092 35.0559 105.457 35.0499C105.975 35.0466 106.495 35.0483 107.018 35.0483H107.024ZM64.8348 34.9944C64.6687 35.0276 64.4998 35.0445 64.3304 35.045C63.1175 35.045 61.9031 35.0597 60.6903 35.045C60.3922 35.0353 60.0987 34.9694 59.8251 34.8506C59.5907 34.7625 59.3905 34.6019 59.2534 34.3922C59.1163 34.1824 59.0496 33.9345 59.0628 33.6842C59.0628 33.253 59.0628 32.8217 59.0628 32.3905C59.0775 31.6929 59.4105 31.2747 60.0945 31.1081C60.3341 31.0509 60.5794 31.0213 60.8257 31.0199C61.9472 31.0101 63.0702 31.0199 64.1916 31.0199C64.3486 31.0155 64.5058 31.0226 64.6617 31.0411C65.3147 31.144 65.9072 31.3678 65.9676 32.1846C65.9676 32.2026 66.0003 32.2206 66.0101 32.2304H67.0156C67.0156 31.4136 66.6091 30.8761 65.8125 30.5625C65.2722 30.3672 64.7008 30.272 64.1263 30.2815C63.0441 30.2635 61.9602 30.2652 60.8763 30.2815C60.3277 30.2696 59.7822 30.3674 59.2718 30.569C58.5535 30.8794 58.0508 31.3711 58.0067 32.2026C57.9662 32.7489 57.9607 33.2973 57.9904 33.8443C58.0736 34.8555 58.5911 35.4289 59.5852 35.6527C59.9513 35.7429 60.3263 35.7922 60.7033 35.7997C62.099 35.7997 63.4946 35.7834 64.8886 35.7344C65.4409 35.723 65.9751 35.5353 66.4132 35.1986C66.6199 35.0376 66.7838 34.8283 66.8906 34.589C66.9973 34.3497 67.0436 34.0878 67.0254 33.8264H65.9725C65.9464 34.5517 65.4746 34.8653 64.8282 34.9944H64.8348ZM129.802 29.2687C129.444 29.2352 129.083 29.2352 128.725 29.2687V30.3142H127.881V31.1097H128.733V31.5279C128.733 32.2336 128.725 32.9377 128.733 33.6434C128.742 34.2446 128.86 34.8114 129.356 35.2247C129.723 35.5227 130.173 35.6996 130.644 35.7311C131.774 35.8357 132.91 35.8357 134.039 35.7311C134.577 35.7002 135.087 35.485 135.484 35.1218C135.713 34.9013 135.887 34.6497 135.84 34.2854H134.777C134.474 34.8343 134.226 35.0221 133.617 35.0385C132.743 35.063 131.868 35.0728 130.995 35.0385C130.316 35.0107 129.794 34.6088 129.805 33.7741C129.818 32.9785 129.805 32.1814 129.805 31.3858C129.812 31.2903 129.825 31.1954 129.844 31.1016H135.097V30.3174H129.795L129.802 29.2687ZM46.1412 35.3587C46.1412 34.4308 46.151 33.5029 46.1412 32.5816C46.1314 31.9592 46.4269 31.5426 46.9574 31.2747C47.3472 31.0905 47.7754 31.0026 48.2061 31.0182C49.1072 31.0182 50.0017 31.0182 50.9093 31.0182C51.184 31.0198 51.4577 31.0515 51.7255 31.113C52.3425 31.2584 52.9824 31.6635 52.9481 32.6371C52.9138 33.5519 52.9399 34.4667 52.9481 35.3815C52.9481 35.5089 52.9595 35.6347 52.9644 35.7687H54.0042C54.0042 34.6334 54.014 33.5242 54.0042 32.415C53.9944 31.6406 53.601 31.0869 52.9334 30.7177C52.4861 30.4709 51.9848 30.3384 51.4741 30.3321C50.2335 30.3125 48.9935 30.3125 47.754 30.3321C47.4788 30.3276 47.2058 30.381 46.9526 30.4891C46.6995 30.5972 46.472 30.7575 46.2849 30.9594C46.2636 30.9823 46.2245 30.9888 46.1543 31.0215V30.3403H45.1275C45.0492 31.0084 45.0786 35.5122 45.1634 35.785H46.1592L46.1412 35.3587ZM115.638 35.7916H116.681V35.3538C116.681 34.4537 116.681 33.5568 116.681 32.6518C116.681 32.4885 116.701 32.3398 116.714 32.1846C116.727 31.955 116.811 31.735 116.954 31.5551C117.097 31.3752 117.293 31.2441 117.514 31.18C117.871 31.0573 118.247 30.9987 118.625 31.0068C119.577 31.0068 120.53 31.0068 121.482 31.0068C121.645 31.0068 121.795 31.0068 121.95 31.028C122.869 31.1326 123.312 31.5377 123.475 32.4133H124.513C124.513 31.5475 124.1 30.9807 123.37 30.6164C122.793 30.3354 122.169 30.2733 121.546 30.2603C120.566 30.2407 119.587 30.2407 118.607 30.2603C117.954 30.2733 117.301 30.3305 116.774 30.7944C116.764 30.8042 116.73 30.783 116.697 30.7748L116.655 30.2733H115.636L115.638 35.7916ZM5.27397 34.8735L5.03401 34.8523L1.89992 30.3321H0.714844L4.48881 35.7752H5.82407C6.41497 35.063 9.45602 30.5903 9.52948 30.324H8.43091C7.38077 31.8465 6.32846 33.363 5.27397 34.8735ZM26.5319 35.7605H27.5374V28.0974H26.5319V35.7605ZM71.3086 35.772C71.6552 35.8014 72.0035 35.8014 72.3501 35.772V30.3272H71.3086V35.772ZM72.3484 28.8881V28.0974H71.3037V28.8946L72.3484 28.8881Z" fill="#2A292D"/>
<path d="M3.1011 58.7565H4.54083L6.92731 64.8873H5.46147L4.97993 63.5233H2.59181L2.09232 64.8873H0.678711L3.1011 58.7565ZM2.96725 62.5138H4.61265L3.80791 60.2643H3.78995L2.96725 62.5138ZM11.6823 64.8841H10.4679V64.2666H10.4466C10.2992 64.5122 10.0806 64.707 9.81981 64.8253C9.57209 64.9349 9.30389 64.9906 9.03302 64.9886C8.7489 64.997 8.46565 64.9533 8.19727 64.8596C7.99369 64.7903 7.81226 64.6679 7.67165 64.5051C7.54148 64.3359 7.45159 64.1393 7.40885 63.9301C7.35571 63.6832 7.32998 63.4312 7.33213 63.1786V60.4424H8.60209V62.9499C8.58297 63.2337 8.64526 63.5171 8.78164 63.7667C8.9008 63.9464 9.10811 64.0363 9.41499 64.0363C9.76105 64.0363 10.0113 63.9377 10.1659 63.7406C10.3204 63.5435 10.3982 63.2167 10.3993 62.7604V60.4424H11.6676L11.6823 64.8841ZM14.25 60.4424H15.1804V61.2592H14.25V63.458C14.2331 63.6058 14.2741 63.7545 14.3642 63.8729C14.4907 63.9568 14.6428 63.9933 14.7936 63.9758C14.8654 63.9758 14.9339 63.9758 14.9992 63.9676C15.0645 63.9595 15.1282 63.9529 15.1869 63.9415V64.8857C15.0686 64.9047 14.9492 64.9162 14.8295 64.92C14.6989 64.92 14.5699 64.9298 14.4459 64.9298C14.2585 64.9305 14.0714 64.9174 13.886 64.8906C13.7231 64.8689 13.5655 64.818 13.4208 64.7403C13.2875 64.6659 13.1778 64.5555 13.1041 64.4218C13.0201 64.2543 12.9802 64.0682 12.9882 63.8811V61.2592H12.2112V60.4424H12.98V59.111H14.25V60.4424ZM15.644 62.6657C15.6369 62.3364 15.6923 62.0088 15.8072 61.7002C15.9148 61.4214 16.0819 61.1693 16.2969 60.9619C16.5112 60.7541 16.7663 60.5933 17.0462 60.4898C17.3599 60.3756 17.6919 60.3202 18.0256 60.3264C18.362 60.3199 18.6967 60.3753 19.0131 60.4898C19.2953 60.5924 19.5528 60.7532 19.7689 60.9619C19.9834 61.1698 20.1505 61.4217 20.2586 61.7002C20.3728 62.009 20.4281 62.3365 20.4219 62.6657C20.4283 62.9938 20.3729 63.3202 20.2586 63.6279C20.1496 63.9046 19.9827 64.1547 19.7689 64.3613C19.5529 64.5693 19.2953 64.7291 19.0131 64.8302C18.6961 64.9423 18.3618 64.9976 18.0256 64.9935C17.692 64.9973 17.3605 64.942 17.0462 64.8302C16.7665 64.7287 16.5112 64.5695 16.2969 64.363C16.0827 64.1567 15.9156 63.9065 15.8072 63.6295C15.6926 63.3237 15.6372 62.9988 15.644 62.6722V62.6657ZM16.9123 62.6657C16.912 62.8403 16.93 63.0144 16.9662 63.1852C16.9996 63.3467 17.0615 63.5011 17.149 63.6409C17.2353 63.7764 17.3536 63.8886 17.4934 63.9676C17.6592 64.0533 17.8441 64.0949 18.0305 64.0885C18.2179 64.0945 18.4038 64.0529 18.5708 63.9676C18.7132 63.8904 18.8335 63.7779 18.9201 63.6409C19.0083 63.5014 19.0702 63.347 19.1029 63.1852C19.1391 63.0144 19.1572 62.8403 19.1568 62.6657C19.1569 62.49 19.1388 62.3149 19.1029 62.1429C19.0717 61.9807 19.0096 61.826 18.9201 61.6872C18.8321 61.5514 18.7121 61.4392 18.5708 61.3605C18.4046 61.2725 18.2183 61.2297 18.0305 61.2363C17.8436 61.2293 17.6583 61.2722 17.4934 61.3605C17.3545 61.4407 17.2365 61.5526 17.149 61.6872C17.0602 61.8263 16.9981 61.9809 16.9662 62.1429C16.9298 62.317 16.9118 62.4944 16.9123 62.6722V62.6657ZM21.2478 60.4424H22.4558V61.2592H22.4737C22.5336 61.1198 22.6151 60.9908 22.7153 60.8769C22.8162 60.7606 22.9333 60.6594 23.063 60.5763C23.1939 60.4941 23.3349 60.4293 23.4825 60.3836C23.6333 60.3377 23.7901 60.3146 23.9477 60.315C24.0417 60.3168 24.135 60.3311 24.2252 60.3574V61.4911C24.1664 61.4797 24.0946 61.4699 24.0114 61.4617C23.9281 61.4536 23.8481 61.4487 23.7698 61.4487C23.5671 61.443 23.3657 61.4809 23.1789 61.5597C23.0264 61.6283 22.893 61.7332 22.7904 61.8652C22.69 61.9994 22.6183 62.1529 22.5798 62.3161C22.5387 62.5054 22.5206 62.6991 22.5259 62.8927V64.8922H21.256L21.2478 60.4424ZM26.0306 59.7546H24.7622V58.75H26.0306V59.7546ZM24.7622 60.4424H26.0306V64.8808H24.7622V60.4424ZM30.3302 64.314H30.3122C30.1764 64.5439 29.972 64.7256 29.7278 64.8334C29.4701 64.9442 29.1921 64.9998 28.9117 64.9968C28.5966 65.0032 28.2843 64.9367 27.9992 64.8024C27.7435 64.682 27.5197 64.5029 27.3462 64.2797C27.1726 64.0521 27.0421 63.7946 26.961 63.52C26.8752 63.23 26.8317 62.929 26.8321 62.6265C26.832 62.3341 26.8754 62.0434 26.961 61.7639C27.0422 61.4969 27.1729 61.2475 27.3462 61.0288C27.5195 60.8135 27.7379 60.6389 27.9861 60.5175C28.2646 60.3844 28.5704 60.3184 28.879 60.3248C29.1484 60.3219 29.4152 60.3777 29.6609 60.4881C29.8994 60.5914 30.103 60.7616 30.2469 60.9782H30.2649V58.7565H31.5348V64.8873H30.3269L30.3302 64.314ZM30.3122 62.6493C30.3125 62.4716 30.295 62.2943 30.26 62.1201C30.2276 61.961 30.165 61.8096 30.0755 61.6741C29.9841 61.5329 29.8569 61.4185 29.707 61.3424C29.557 61.2664 29.3896 61.2315 29.2218 61.2412C29.0387 61.235 28.8572 61.2761 28.6946 61.3605C28.5557 61.4372 28.4375 61.5465 28.3501 61.679C28.2609 61.8167 28.1973 61.9695 28.1624 62.1299C28.1241 62.3031 28.1049 62.4801 28.1053 62.6575C28.1049 62.8309 28.1257 63.0037 28.1673 63.1721C28.2066 63.3363 28.2745 63.4923 28.3681 63.6328C28.4594 63.7658 28.5786 63.8773 28.7174 63.9595C28.8711 64.0461 29.0454 64.0896 29.2218 64.0853C29.404 64.0914 29.5847 64.0497 29.7458 63.9644C29.8829 63.8853 29.998 63.7729 30.0804 63.6377C30.1664 63.4962 30.2272 63.3409 30.26 63.1786C30.2942 63.0065 30.3116 62.8314 30.3122 62.6559V62.6493ZM32.4342 61.8081C32.4411 61.5539 32.5185 61.3067 32.6579 61.0942C32.7877 60.9068 32.9585 60.7514 33.1574 60.64C33.3703 60.5212 33.6014 60.4384 33.8413 60.395C34.093 60.3461 34.3488 60.3215 34.6053 60.3215C34.8416 60.322 35.0777 60.3378 35.3121 60.3689C35.5378 60.3967 35.758 60.4589 35.965 60.5535C36.157 60.6389 36.3252 60.7701 36.4547 60.9357C36.5884 61.1265 36.6545 61.3565 36.6424 61.5892V63.899C36.6419 64.0912 36.6534 64.2833 36.6767 64.474C36.6892 64.6186 36.732 64.7589 36.8024 64.8857H35.5161C35.4918 64.8174 35.4722 64.7476 35.4573 64.6766C35.4421 64.6044 35.4317 64.5313 35.4263 64.4577C35.227 64.6555 34.9811 64.7998 34.7114 64.8775C34.4383 64.9577 34.1552 64.9984 33.8707 64.9984C33.6624 65 33.4549 64.9736 33.2537 64.92C33.0724 64.8739 32.9021 64.7923 32.7525 64.6799C32.6096 64.5715 32.4948 64.4303 32.4179 64.2682C32.3336 64.0822 32.2923 63.8795 32.2971 63.6752C32.2886 63.4592 32.3364 63.2447 32.4359 63.0528C32.5229 62.8965 32.6453 62.7628 32.7934 62.6624C32.9469 62.5618 33.1163 62.4878 33.2945 62.4435C33.481 62.3945 33.6701 62.3558 33.8609 62.3275C34.0524 62.2981 34.2402 62.2753 34.4241 62.2589C34.5888 62.2445 34.7525 62.2188 34.9138 62.1821C35.0363 62.1566 35.152 62.1054 35.2533 62.0319C35.2951 61.9971 35.3277 61.9525 35.3479 61.902C35.3681 61.8515 35.3755 61.7967 35.3692 61.7427C35.3741 61.6347 35.3511 61.5272 35.3023 61.4307C35.2599 61.3551 35.1979 61.2924 35.1227 61.2494C35.0431 61.2044 34.9555 61.1755 34.8648 61.1644C34.7567 61.1486 34.6476 61.141 34.5383 61.1416C34.3305 61.1301 34.1243 61.1844 33.9491 61.2967C33.872 61.3592 33.8096 61.4378 33.7662 61.527C33.7228 61.6161 33.6994 61.7138 33.6977 61.813L32.4342 61.8081ZM35.3725 62.7082C35.3136 62.7574 35.2453 62.7941 35.1717 62.816C35.0865 62.8429 34.9999 62.8647 34.9121 62.8813C34.8191 62.8976 34.7228 62.9124 34.6216 62.9238C34.5204 62.9352 34.4192 62.9499 34.318 62.9663C34.2227 62.9841 34.1284 63.007 34.0356 63.0349C33.9496 63.0609 33.8681 63.1 33.794 63.1508C33.719 63.2028 33.6587 63.2733 33.6189 63.3554C33.5792 63.4376 33.5613 63.5286 33.5671 63.6197C33.5637 63.715 33.585 63.8096 33.6291 63.8941C33.668 63.9656 33.7241 64.0262 33.7924 64.0706C33.8698 64.1148 33.9543 64.1452 34.0421 64.1604C34.1397 64.1774 34.2385 64.1862 34.3376 64.1865C34.5384 64.1972 34.7387 64.1555 34.9187 64.0657C35.0431 63.9978 35.1477 63.8987 35.2223 63.7781C35.2851 63.6742 35.3262 63.5586 35.3431 63.4384C35.3562 63.3474 35.3638 63.2558 35.3659 63.1639L35.3725 62.7082ZM40.9224 64.314H40.9045C40.768 64.5441 40.5631 64.7257 40.3184 64.8334C40.0607 64.9442 39.7827 64.9998 39.5023 64.9968C39.1872 65.0032 38.8749 64.9367 38.5898 64.8024C38.3341 64.682 38.1104 64.5029 37.9369 64.2797C37.7637 64.052 37.6337 63.7945 37.5533 63.52C37.4666 63.2301 37.4232 62.9291 37.4243 62.6265C37.4233 62.3341 37.4668 62.0432 37.5533 61.7639C37.6339 61.497 37.764 61.2476 37.9369 61.0288C38.1105 60.8139 38.3288 60.6394 38.5767 60.5175C38.8558 60.3844 39.1621 60.3184 39.4713 60.3248C39.7406 60.3222 40.0073 60.378 40.2532 60.4881C40.4912 60.5914 40.6943 60.7617 40.8375 60.9782H40.8555V58.7565H42.1254V64.8873H40.9191L40.9224 64.314ZM40.9045 62.6493C40.9051 62.4715 40.887 62.2941 40.8506 62.1201C40.8187 61.9611 40.7567 61.8097 40.6678 61.6741C40.576 61.5333 40.4488 61.4191 40.2989 61.3431C40.149 61.2671 39.9818 61.232 39.814 61.2412C39.631 61.2348 39.4493 61.2759 39.2868 61.3605C39.1476 61.4367 39.0293 61.5461 38.9424 61.679C38.8525 61.8164 38.7888 61.9693 38.7547 62.1299C38.715 62.3029 38.6953 62.48 38.6959 62.6575C38.6964 62.8309 38.7172 63.0036 38.7579 63.1721C38.797 63.3366 38.8656 63.4927 38.9603 63.6328C39.0506 63.7661 39.1694 63.8777 39.308 63.9595C39.4622 64.0464 39.6371 64.0899 39.814 64.0853C39.9957 64.0912 40.1758 64.0495 40.3364 63.9644C40.4709 63.8846 40.5832 63.7723 40.6629 63.6377C40.7489 63.4962 40.8097 63.3409 40.8424 63.1786C40.8812 63.007 40.9025 62.8318 40.9061 62.6559L40.9045 62.6493ZM45.7052 58.7565H48.583C48.9298 58.7456 49.2755 58.8011 49.6016 58.9199C49.8588 59.0155 50.0922 59.166 50.2855 59.361C50.458 59.5395 50.5895 59.7536 50.6707 59.9882C50.8318 60.46 50.8318 60.972 50.6707 61.4438C50.5907 61.68 50.4591 61.8954 50.2855 62.0743C50.0928 62.2703 49.8592 62.4215 49.6016 62.517C49.2753 62.6351 48.9297 62.6905 48.583 62.6804H47.1139V64.8775H45.7052V58.7565ZM47.1073 61.6414H48.1977C48.3535 61.6419 48.509 61.6304 48.663 61.6071C48.8012 61.5882 48.9347 61.5433 49.0564 61.4748C49.1711 61.4084 49.2654 61.3118 49.329 61.1955C49.3968 61.0473 49.4319 60.8863 49.4319 60.7234C49.4319 60.5604 49.3968 60.3994 49.329 60.2513C49.2654 60.1349 49.1711 60.0383 49.0564 59.9719C48.9345 59.9036 48.8012 59.8582 48.663 59.838C48.509 59.8147 48.3535 59.8032 48.1977 59.8037H47.109L47.1073 61.6414ZM51.389 62.6722C51.3827 62.343 51.4381 62.0156 51.5522 61.7068C51.6603 61.4282 51.8274 61.1763 52.0419 60.9684C52.2567 60.7606 52.5124 60.5998 52.7928 60.4963C53.1065 60.3821 53.4385 60.3268 53.7722 60.3329C54.1086 60.3266 54.4433 60.382 54.7598 60.4963C55.0414 60.599 55.2984 60.7598 55.5139 60.9684C55.7289 61.1759 55.8961 61.4279 56.0036 61.7068C56.1185 62.0154 56.1739 62.343 56.1668 62.6722C56.1742 63.0004 56.1188 63.327 56.0036 63.6344C55.8952 63.9114 55.7281 64.1616 55.5139 64.3679C55.2986 64.576 55.0415 64.7358 54.7598 64.8367C54.4427 64.9487 54.1084 65.004 53.7722 65.0001C53.4386 65.0038 53.1071 64.9485 52.7928 64.8367C52.5123 64.735 52.2565 64.5752 52.0419 64.3679C51.8282 64.1612 51.6612 63.9111 51.5522 63.6344C51.4385 63.3267 51.3836 63.0002 51.3906 62.6722H51.389ZM52.6589 62.6722C52.6586 62.8468 52.6766 63.0209 52.7128 63.1917C52.7455 63.3535 52.8075 63.5079 52.8956 63.6475C52.9813 63.7835 53.0997 63.8958 53.24 63.9742C53.4058 64.0598 53.5907 64.1015 53.7771 64.0951C53.9645 64.101 54.1504 64.0594 54.3174 63.9742C54.4595 63.8964 54.5796 63.7841 54.6667 63.6475C54.7542 63.5076 54.8161 63.3533 54.8495 63.1917C54.8857 63.0209 54.9038 62.8468 54.9034 62.6722C54.9035 62.4966 54.8854 62.3214 54.8495 62.1495C54.8176 61.9875 54.7556 61.8329 54.6667 61.6937C54.5782 61.5583 54.4584 61.4462 54.3174 61.367C54.1512 61.2791 53.9649 61.2363 53.7771 61.2428C53.5902 61.2358 53.4049 61.2787 53.24 61.367C53.1008 61.4468 52.9827 61.5588 52.8956 61.6937C52.8061 61.8325 52.744 61.9872 52.7128 62.1495C52.6774 62.3215 52.6599 62.4966 52.6606 62.6722H52.6589ZM56.9961 60.4424H58.2024V61.2592H58.2203C58.2814 61.1204 58.3628 60.9916 58.4619 60.8769C58.5631 60.7602 58.6807 60.6589 58.8112 60.5763C58.9421 60.4941 59.0831 60.4293 59.2307 60.3836C59.3815 60.3375 59.5383 60.3144 59.6959 60.315C59.7899 60.3168 59.8832 60.3311 59.9734 60.3574V61.4911C59.9125 61.4792 59.8407 61.4694 59.758 61.4617C59.6747 61.4536 59.5947 61.4487 59.5164 61.4487C59.3143 61.443 59.1133 61.4809 58.9271 61.5597C58.7743 61.6278 58.6409 61.7328 58.5386 61.8652C58.4376 61.9991 58.3659 62.1527 58.328 62.3161C58.2861 62.5053 58.268 62.699 58.2742 62.8927V64.8922H57.0042L56.9961 60.4424ZM62.0824 60.4424H63.008V61.2592H62.0775V63.458C62.0607 63.6058 62.1016 63.7545 62.1918 63.8729C62.3182 63.9571 62.4703 63.9936 62.6211 63.9758C62.6913 63.9758 62.7598 63.9758 62.8268 63.9676C62.8937 63.9595 62.9541 63.9529 63.0145 63.9415V64.8857C62.8962 64.9047 62.7768 64.9162 62.657 64.92C62.5248 64.92 62.3975 64.9298 62.2718 64.9298C62.085 64.9305 61.8984 64.9174 61.7135 64.8906C61.5506 64.8694 61.3929 64.8184 61.2483 64.7403C61.1146 64.6664 61.0048 64.5559 60.9316 64.4218C60.8463 64.2548 60.8058 64.0684 60.8141 63.8811V61.2592H60.0453V60.4424H60.8141V59.111H62.0841L62.0824 60.4424ZM67.9588 64.8808H66.7525V64.2633H66.7248C66.5784 64.5091 66.3602 64.7041 66.0996 64.822C65.8518 64.9315 65.5837 64.9872 65.3128 64.9854C65.0287 64.9939 64.7454 64.9501 64.4771 64.8563C64.2763 64.782 64.0989 64.6557 63.9629 64.4904C63.8321 64.3216 63.7421 64.1248 63.7001 63.9154C63.6461 63.6686 63.6204 63.4165 63.6234 63.1639V60.4424H64.8933V62.9499C64.8746 63.2335 64.9363 63.5166 65.0712 63.7667C65.1904 63.9464 65.3977 64.0363 65.7062 64.0363C66.0523 64.0363 66.3026 63.9377 66.4571 63.7406C66.6116 63.5435 66.6889 63.2167 66.6889 62.7604V60.4424H67.9588V64.8808ZM68.8713 61.8081C68.8785 61.5542 68.9553 61.3072 69.0933 61.0942C69.2242 60.9071 69.3955 60.7518 69.5945 60.64C69.8074 60.5212 70.0385 60.4384 70.2784 60.395C70.5301 60.3461 70.7859 60.3215 71.0423 60.3215C71.2787 60.322 71.5148 60.3378 71.7491 60.3689C71.9749 60.3967 72.1951 60.4589 72.4021 60.5535C72.5945 60.6382 72.7628 60.7696 72.8918 60.9357C73.0262 61.1261 73.0923 61.3564 73.0795 61.5892V63.899C73.0795 64.0913 73.0915 64.2833 73.1154 64.474C73.1279 64.6186 73.1707 64.7589 73.2411 64.8857H71.9532C71.9301 64.8172 71.9111 64.7474 71.896 64.6766C71.8808 64.6044 71.8705 64.5313 71.865 64.4577C71.6654 64.6551 71.4196 64.7994 71.1501 64.8775C70.877 64.9577 70.594 64.9984 70.3094 64.9984C70.1012 65 69.8936 64.9736 69.6924 64.92C69.5111 64.8739 69.3408 64.7923 69.1913 64.6799C69.0483 64.5715 68.9335 64.4303 68.8566 64.2682C68.7723 64.0822 68.731 63.8795 68.7358 63.6752C68.7273 63.4592 68.7751 63.2447 68.8746 63.0528C68.9607 62.8958 69.0833 62.7619 69.2321 62.6624C69.3855 62.5616 69.555 62.4876 69.7332 62.4435C69.9197 62.3944 70.1088 62.3557 70.2996 62.3275C70.4901 62.2981 70.6778 62.2753 70.8628 62.2589C71.0276 62.2445 71.1912 62.2189 71.3525 62.1821C71.4755 62.1566 71.5918 62.1054 71.6936 62.0319C71.7355 61.9971 71.768 61.9525 71.7882 61.902C71.8085 61.8515 71.8158 61.7967 71.8095 61.7427C71.8145 61.6347 71.7914 61.5272 71.7426 61.4307C71.7003 61.3551 71.6382 61.2924 71.5631 61.2494C71.483 61.2042 71.3948 61.1753 71.3035 61.1644C71.1987 61.149 71.0928 61.1413 70.9868 61.1416C70.779 61.1301 70.5728 61.1844 70.3976 61.2967C70.3205 61.3592 70.2581 61.4378 70.2147 61.527C70.1713 61.6161 70.1479 61.7138 70.1462 61.813L68.8713 61.8081ZM71.8095 62.7082C71.7507 62.7574 71.6823 62.7941 71.6088 62.816C71.5236 62.8427 71.4369 62.8646 71.3492 62.8813C71.2562 62.8976 71.1599 62.9124 71.0587 62.9238C70.9575 62.9352 70.8562 62.9499 70.755 62.9663C70.6598 62.9841 70.5655 63.007 70.4727 63.0349C70.3865 63.0605 70.305 63.0997 70.2311 63.1508C70.1636 63.1995 70.1078 63.2625 70.0678 63.3354C70.023 63.4233 70.0016 63.5212 70.0058 63.6197C70.0024 63.715 70.0238 63.8096 70.0678 63.8941C70.1062 63.966 70.1624 64.0267 70.2311 64.0706C70.3085 64.1148 70.393 64.1452 70.4808 64.1604C70.5784 64.1774 70.6772 64.1862 70.7763 64.1865C70.9771 64.1972 71.1774 64.1555 71.3574 64.0657C71.4818 63.9978 71.5864 63.8987 71.661 63.7781C71.7238 63.6742 71.7649 63.5586 71.7818 63.4384C71.7949 63.3474 71.8025 63.2558 71.8046 63.1639L71.8095 62.7082ZM74.0524 60.4424H75.2587V61.2592H75.2766C75.3377 61.1204 75.4191 60.9916 75.5182 60.8769C75.6192 60.7606 75.7363 60.6594 75.8659 60.5763C75.9975 60.4944 76.139 60.4296 76.287 60.3836C76.4378 60.3375 76.5946 60.3144 76.7523 60.315C76.8457 60.3168 76.9385 60.3311 77.0281 60.3574V61.4911C76.9694 61.4797 76.8975 61.4699 76.8143 61.4617C76.731 61.4536 76.6511 61.4487 76.5727 61.4487C76.3706 61.443 76.1696 61.4809 75.9834 61.5597C75.8305 61.6282 75.6965 61.7331 75.5933 61.8652C75.4928 61.9992 75.4216 62.1528 75.3844 62.3161C75.3406 62.4991 75.3192 62.6867 75.3207 62.8748V64.8743H74.0524V60.4424ZM78.8351 59.7546H77.5652V58.75H78.8417L78.8351 59.7546ZM77.5652 60.4424H78.8417V64.8808H77.5717L77.5652 60.4424ZM79.7819 61.8081C79.7895 61.5541 79.8669 61.3071 80.0055 61.0942C80.1359 60.9067 80.3073 60.7514 80.5066 60.64C80.7195 60.5209 80.9506 60.4381 81.1906 60.395C81.4423 60.3461 81.6981 60.3215 81.9545 60.3215C82.1904 60.322 82.4259 60.3379 82.6597 60.3689C82.8855 60.3965 83.1058 60.4587 83.3126 60.5535C83.5049 60.6384 83.6732 60.7698 83.8023 60.9357C83.9367 61.1261 84.0029 61.3564 83.9901 61.5892V63.899C83.9893 64.0913 84.0013 64.2834 84.026 64.474C84.0369 64.6189 84.0798 64.7595 84.1517 64.8857H82.8572C82.8336 64.8172 82.814 64.7474 82.7984 64.6766C82.784 64.6043 82.7736 64.5312 82.7674 64.4577C82.5681 64.6555 82.3222 64.7998 82.0525 64.8775C81.7794 64.9578 81.4964 64.9985 81.2118 64.9984C81.0036 65 80.796 64.9736 80.5948 64.92C80.414 64.8739 80.2442 64.7923 80.0953 64.6799C79.9518 64.5716 79.8365 64.4305 79.759 64.2682C79.6747 64.0822 79.6334 63.8795 79.6382 63.6752C79.6305 63.4593 79.6783 63.245 79.777 63.0528C79.864 62.8965 79.9864 62.7628 80.1345 62.6624C80.288 62.5618 80.4574 62.4878 80.6356 62.4435C80.8227 62.3944 81.0123 62.3556 81.2037 62.3275C81.3941 62.2981 81.5818 62.2753 81.7668 62.2589C81.9316 62.2444 82.0952 62.2188 82.2565 62.1821C82.3791 62.157 82.4949 62.1057 82.596 62.0319C82.6379 61.9971 82.6704 61.9525 82.6906 61.902C82.7109 61.8515 82.7182 61.7967 82.7119 61.7427C82.7176 61.6346 82.6945 61.5269 82.645 61.4307C82.6032 61.3552 82.5417 61.2925 82.4671 61.2494C82.3868 61.2046 82.2987 61.1758 82.2075 61.1644C82.1021 61.1489 81.9958 61.1413 81.8892 61.1416C81.6814 61.1303 81.4753 61.1846 81.3 61.2967C81.223 61.3591 81.1607 61.4377 81.1175 61.527C81.0744 61.6162 81.0514 61.7138 81.0502 61.813L79.7819 61.8081ZM82.7201 62.7082C82.6612 62.7574 82.5929 62.7941 82.5193 62.816C82.4342 62.8431 82.3476 62.8649 82.2598 62.8813C82.1684 62.8976 82.0704 62.9124 81.9692 62.9238C81.868 62.9352 81.7668 62.9499 81.6656 62.9663C81.5709 62.9841 81.4771 63.007 81.3848 63.0349C81.2987 63.0605 81.2172 63.0997 81.1433 63.1508C81.0763 63.2 81.0206 63.2629 80.98 63.3354C80.936 63.4235 80.9146 63.5212 80.918 63.6197C80.9154 63.7149 80.9367 63.8093 80.98 63.8941C81.019 63.9656 81.0751 64.0262 81.1433 64.0706C81.2204 64.1153 81.305 64.1457 81.393 64.1604C81.49 64.1775 81.5883 64.1862 81.6868 64.1865C81.8877 64.1976 82.0881 64.156 82.2679 64.0657C82.3927 63.9977 82.4978 63.8987 82.5732 63.7781C82.636 63.6742 82.6771 63.5586 82.694 63.4384C82.7067 63.3474 82.7138 63.2558 82.7152 63.1639L82.7201 62.7082ZM90.7577 64.3205H90.7398C90.6034 64.5506 90.3985 64.7322 90.1538 64.84C89.896 64.9507 89.6181 65.0063 89.3376 65.0033C89.0225 65.0097 88.7103 64.9432 88.4251 64.8089C88.1694 64.6885 87.9457 64.5094 87.7722 64.2862C87.5991 64.0585 87.4691 63.8011 87.3886 63.5266C87.3014 63.2368 87.2574 62.9357 87.258 62.633C87.2575 62.3405 87.3016 62.0497 87.3886 61.7705C87.4692 61.5035 87.5994 61.2541 87.7722 61.0354C87.9458 60.8204 88.1642 60.6459 88.4121 60.5241C88.6906 60.3911 88.9964 60.3251 89.305 60.3313C89.5748 60.3287 89.8421 60.3844 90.0885 60.4947C90.3266 60.5979 90.5296 60.7682 90.6729 60.9847H90.6908V58.7565H91.9608V64.8873H90.7577V64.3205ZM90.7398 62.6559C90.7404 62.478 90.7223 62.3007 90.6859 62.1266C90.6535 61.9675 90.5909 61.8161 90.5015 61.6806C90.4182 61.5524 90.3065 61.445 90.175 61.367C90.0156 61.2819 89.8364 61.2407 89.6559 61.2477C89.4729 61.2417 89.2913 61.2828 89.1287 61.367C88.9899 61.4433 88.8721 61.5527 88.7859 61.6855C88.6961 61.8232 88.632 61.9759 88.5965 62.1364C88.5582 62.3097 88.539 62.4866 88.5394 62.664C88.5399 62.8374 88.5607 63.0101 88.6014 63.1786C88.6407 63.3428 88.7086 63.4988 88.8022 63.6393C88.8935 63.7723 89.0127 63.8838 89.1515 63.966C89.3053 64.0526 89.4795 64.0961 89.6559 64.0918C89.8381 64.0979 90.0188 64.0563 90.1799 63.9709C90.3144 63.8912 90.4267 63.7788 90.5064 63.6442C90.5924 63.5028 90.6531 63.3474 90.6859 63.1852C90.7196 63.0108 90.7355 62.8335 90.7332 62.6559H90.7398ZM93.9653 62.9646C93.9838 63.36 94.0883 63.6464 94.2787 63.8239C94.4906 63.9819 94.7444 64.0739 95.0083 64.0884C95.2722 64.1029 95.5345 64.0393 95.7625 63.9056C95.9172 63.8176 96.037 63.6792 96.102 63.5135H97.2202C97.0916 63.9792 96.8025 64.3843 96.404 64.657C95.999 64.8967 95.5342 65.0162 95.0639 65.0017C94.7301 65.0079 94.3981 64.9525 94.0844 64.8383C93.8054 64.7358 93.5523 64.5729 93.3434 64.3613C93.1373 64.1504 92.9773 63.899 92.8733 63.623C92.7614 63.3209 92.706 63.0008 92.71 62.6787C92.7048 62.3619 92.7602 62.0469 92.8733 61.7509C92.9832 61.4723 93.1499 61.2197 93.363 61.0092C93.5763 60.7976 93.83 60.6309 94.1089 60.5192C94.4141 60.3951 94.741 60.3335 95.0704 60.3378C95.425 60.3301 95.7765 60.405 96.0971 60.5567C96.3788 60.6951 96.6251 60.8963 96.817 61.1448C97.0066 61.3957 97.1447 61.6816 97.2234 61.9861C97.3086 62.3082 97.339 62.6423 97.3132 62.9744L93.9653 62.9646ZM96.0302 62.1919C95.9939 61.9318 95.884 61.6875 95.7135 61.4879C95.621 61.4021 95.5118 61.3364 95.3926 61.2951C95.2735 61.2538 95.1471 61.2376 95.0214 61.2477C94.8475 61.2419 94.6745 61.2754 94.5154 61.3458C94.3899 61.4025 94.2785 61.4861 94.1889 61.5908C94.1143 61.6817 94.0588 61.7867 94.0257 61.8995C93.9958 61.9946 93.9761 62.0927 93.9669 62.1919H96.0302ZM103.639 64.8873H102.057L99.9902 58.7565H101.43L102.852 63.0675H102.87L104.306 58.7565H105.754L103.639 64.8873ZM105.612 61.8146C105.618 61.5606 105.695 61.3134 105.834 61.1007C105.965 60.9136 106.136 60.7584 106.335 60.6466C106.548 60.5277 106.779 60.4449 107.019 60.4015C107.271 60.3527 107.527 60.328 107.783 60.328C108.019 60.3285 108.256 60.3443 108.49 60.3754C108.716 60.4032 108.936 60.4655 109.143 60.56C109.335 60.6448 109.503 60.7761 109.632 60.9423C109.767 61.1327 109.833 61.3629 109.82 61.5957V63.9056C109.82 64.0978 109.832 64.2898 109.856 64.4806C109.868 64.6253 109.911 64.7657 109.982 64.8922H108.694C108.671 64.8237 108.652 64.7539 108.637 64.6831C108.622 64.611 108.611 64.5378 108.606 64.4642C108.406 64.6617 108.16 64.806 107.891 64.8841C107.618 64.9642 107.335 65.0049 107.05 65.005C106.842 65.0065 106.634 64.9802 106.433 64.9266C106.252 64.8805 106.081 64.7988 105.932 64.6864C105.789 64.5781 105.674 64.4369 105.597 64.2748C105.513 64.0887 105.472 63.886 105.477 63.6818C105.466 63.465 105.513 63.2493 105.612 63.0561C105.698 62.8991 105.821 62.7652 105.97 62.6657C106.123 62.5648 106.292 62.4908 106.471 62.4468C106.657 62.3976 106.846 62.3589 107.037 62.3308C107.227 62.3014 107.415 62.2785 107.6 62.2622C107.765 62.2478 107.929 62.2221 108.09 62.1854C108.213 62.1599 108.329 62.1087 108.431 62.0351C108.473 62.0011 108.506 61.9571 108.527 61.9072C108.547 61.8573 108.556 61.803 108.55 61.7492C108.555 61.6412 108.532 61.5337 108.483 61.4372C108.441 61.3616 108.379 61.299 108.304 61.2559C108.224 61.2107 108.135 61.1818 108.044 61.171C107.939 61.1555 107.834 61.1479 107.728 61.1481C107.52 61.1366 107.314 61.1909 107.138 61.3033C107.061 61.3657 106.999 61.4443 106.955 61.5335C106.912 61.6227 106.889 61.7203 106.887 61.8195L105.612 61.8146ZM108.55 62.7147C108.491 62.764 108.423 62.8007 108.349 62.8225C108.264 62.8493 108.178 62.8711 108.09 62.8878C107.997 62.9042 107.901 62.9189 107.799 62.9303C107.698 62.9418 107.597 62.9565 107.496 62.9728C107.4 62.9906 107.306 63.0135 107.213 63.0414C107.127 63.067 107.046 63.1062 106.972 63.1574C106.904 63.206 106.849 63.2691 106.809 63.342C106.764 63.4298 106.742 63.5277 106.747 63.6262C106.743 63.7215 106.764 63.8161 106.809 63.9007C106.847 63.9725 106.903 64.0333 106.972 64.0771C107.049 64.1213 107.134 64.1517 107.222 64.1669C107.319 64.184 107.418 64.1927 107.517 64.1931C107.718 64.2037 107.918 64.1621 108.098 64.0722C108.223 64.0044 108.327 63.9053 108.402 63.7847C108.465 63.6808 108.506 63.5652 108.522 63.4449C108.536 63.354 108.543 63.2623 108.545 63.1705L108.55 62.7147ZM110.836 58.7565H112.104V64.8873H110.836V58.7565ZM114.151 62.9646C114.168 63.36 114.273 63.6464 114.464 63.8239C114.676 63.9819 114.93 64.0739 115.194 64.0884C115.458 64.1029 115.72 64.0393 115.948 63.9056C116.103 63.8176 116.223 63.6792 116.288 63.5135H117.406C117.277 63.9792 116.988 64.3843 116.59 64.657C116.182 64.8973 115.715 65.0163 115.243 65.0001C114.909 65.0062 114.577 64.9508 114.263 64.8367C113.984 64.7342 113.731 64.5713 113.522 64.3597C113.316 64.1492 113.156 63.8976 113.052 63.6213C112.94 63.3195 112.884 62.9993 112.889 62.6771C112.884 62.3602 112.939 62.0453 113.052 61.7492C113.162 61.4706 113.329 61.218 113.542 61.0076C113.755 60.7959 114.009 60.6293 114.288 60.5175C114.59 60.3915 114.915 60.3271 115.243 60.328C115.597 60.3203 115.949 60.3952 116.27 60.5469C116.551 60.6853 116.798 60.8865 116.989 61.135C117.179 61.3859 117.317 61.6718 117.396 61.9763C117.48 62.2985 117.511 62.6325 117.486 62.9646H114.151ZM116.222 62.1919C116.183 61.9308 116.07 61.6864 115.896 61.4879C115.803 61.4022 115.694 61.3367 115.575 61.2954C115.456 61.2541 115.329 61.2378 115.204 61.2477C115.03 61.2414 114.857 61.2749 114.698 61.3458C114.572 61.4025 114.461 61.4861 114.371 61.5908C114.297 61.6817 114.241 61.7867 114.208 61.8995C114.178 61.9946 114.158 62.0927 114.149 62.1919H116.222ZM118.238 60.4424H119.444V61.0599H119.472C119.619 60.8139 119.837 60.6181 120.097 60.4979C120.344 60.3826 120.612 60.3224 120.884 60.3215C121.169 60.3119 121.453 60.3574 121.72 60.4554C121.921 60.5315 122.098 60.6588 122.234 60.8246C122.366 60.9933 122.456 61.1901 122.499 61.3997C122.551 61.6466 122.576 61.8986 122.574 62.1511V64.8808H121.304V62.3798C121.322 62.0962 121.261 61.8131 121.126 61.563C121.007 61.3833 120.799 61.2935 120.491 61.2935C120.145 61.2935 119.894 61.392 119.74 61.5892C119.585 61.7863 119.508 62.113 119.508 62.5693V64.8955H118.238V60.4424ZM126.686 62.0041C126.603 61.4955 126.29 61.2412 125.747 61.2412C125.568 61.235 125.391 61.2809 125.238 61.3735C125.102 61.461 124.987 61.5783 124.903 61.7166C124.815 61.8595 124.753 62.0164 124.719 62.1805C124.683 62.3459 124.665 62.5145 124.665 62.6836C124.665 62.8485 124.683 63.0128 124.719 63.1737C124.752 63.3326 124.811 63.4849 124.893 63.6246C124.974 63.758 125.086 63.87 125.22 63.9513C125.371 64.0407 125.545 64.0854 125.721 64.0804C125.848 64.0885 125.976 64.0711 126.097 64.029C126.217 63.9869 126.328 63.9211 126.423 63.8353C126.593 63.6566 126.702 63.4273 126.731 63.1819H127.955C127.931 63.4426 127.855 63.6959 127.732 63.9272C127.61 64.1585 127.443 64.3632 127.241 64.5296C126.804 64.8522 126.271 65.0159 125.729 64.9935C125.404 64.9991 125.082 64.9437 124.777 64.8302C124.503 64.7297 124.254 64.5722 124.045 64.3681C123.836 64.1639 123.673 63.9177 123.566 63.6458C123.453 63.3544 123.398 63.0437 123.403 62.731C123.402 62.4049 123.457 62.0811 123.566 61.7737C123.664 61.4892 123.821 61.2286 124.026 61.0092C124.235 60.7906 124.487 60.6196 124.768 60.5077C125.086 60.382 125.427 60.3204 125.77 60.3264C126.037 60.3255 126.302 60.3601 126.56 60.4293C126.803 60.4932 127.033 60.5993 127.239 60.743C127.438 60.8809 127.604 61.0597 127.729 61.2673C127.859 61.4936 127.932 61.7481 127.942 62.009L126.686 62.0041ZM129.975 59.7546H128.706V58.75H129.975V59.7546ZM128.706 60.4424H129.975V64.8808H128.706V60.4424ZM130.923 61.8081C130.93 61.5539 131.007 61.3067 131.147 61.0942C131.277 60.9068 131.447 60.7514 131.646 60.64C131.859 60.5214 132.09 60.4387 132.33 60.395C132.582 60.3462 132.839 60.3216 133.096 60.3215C133.332 60.322 133.567 60.3379 133.801 60.3689C134.027 60.3965 134.247 60.4587 134.454 60.5535C134.646 60.6389 134.814 60.7701 134.944 60.9357C135.077 61.1265 135.143 61.3565 135.131 61.5892V63.899C135.13 64.0913 135.142 64.2834 135.167 64.474C135.178 64.6186 135.221 64.759 135.291 64.8857H133.998C133.974 64.8174 133.954 64.7476 133.94 64.6766C133.925 64.6043 133.915 64.5312 133.909 64.4577C133.709 64.6555 133.463 64.7998 133.194 64.8775C132.921 64.9577 132.638 64.9984 132.353 64.9984C132.145 65 131.937 64.9736 131.736 64.92C131.557 64.8763 131.389 64.7981 131.24 64.6897C131.097 64.5813 130.982 64.4401 130.905 64.278C130.821 64.092 130.78 63.8893 130.784 63.685C130.772 63.4678 130.817 63.2511 130.913 63.0561C131 62.8998 131.123 62.766 131.271 62.6657C131.424 62.565 131.594 62.491 131.772 62.4468C131.959 62.3976 132.149 62.3589 132.34 62.3308C132.529 62.3014 132.717 62.2785 132.903 62.2622C133.068 62.2477 133.231 62.222 133.393 62.1854C133.515 62.1599 133.631 62.1087 133.732 62.0351C133.774 62.0011 133.807 61.9571 133.828 61.9072C133.849 61.8573 133.857 61.803 133.852 61.7492C133.856 61.6412 133.833 61.5337 133.785 61.4372C133.743 61.3613 133.681 61.2985 133.605 61.2559C133.525 61.2109 133.438 61.1821 133.347 61.171C133.242 61.1555 133.135 61.1479 133.029 61.1481C132.821 61.1366 132.615 61.1909 132.44 61.3033C132.363 61.3657 132.3 61.4443 132.257 61.5335C132.214 61.6227 132.191 61.7204 132.19 61.8195L130.923 61.8081ZM133.861 62.7082C133.802 62.7574 133.734 62.7941 133.661 62.816C133.575 62.8431 133.489 62.8649 133.401 62.8813C133.308 62.8976 133.212 62.9124 133.11 62.9238C133.009 62.9352 132.908 62.9499 132.807 62.9663C132.712 62.9841 132.617 63.007 132.524 63.0349C132.439 63.0608 132.358 63.1 132.284 63.1508C132.217 63.2 132.162 63.2629 132.121 63.3354C132.077 63.4235 132.056 63.5212 132.059 63.6197C132.057 63.7149 132.078 63.8093 132.121 63.8941C132.16 63.9656 132.216 64.0262 132.284 64.0706C132.362 64.115 132.447 64.1455 132.536 64.1604C132.633 64.1775 132.731 64.1862 132.83 64.1865C133.031 64.1974 133.231 64.1557 133.411 64.0657C133.535 63.9978 133.64 63.8987 133.714 63.7781C133.778 63.6746 133.819 63.5588 133.835 63.4384C133.848 63.3474 133.856 63.2558 133.858 63.1639L133.861 62.7082Z" fill="#273477"/>
</g>
<defs>
<clipPath id="clip0_225_1899">
<rect width="136" height="65" fill="white"/>
</clipPath>
</defs>
</svg>
