<svg width="355" height="367" viewBox="0 0 355 367" fill="none" xmlns="http://www.w3.org/2000/svg">
<path d="M124.19 17.3262C131.576 17.7194 142.145 23.5811 142.145 33.799C142.145 44.0169 131.505 48.029 121.945 49.6955C128.43 57.4337 131.09 58.9304 130.425 62.2589C129.76 65.5874 123.775 74.742 123.284 85.2279C122.793 95.7138 94.353 153.38 88.9525 155.046C83.552 156.713 94.2013 167.377 56.9512 168.575C47.0205 168.575 29.0024 153.831 29.0024 134.619C28.5561 92.7427 72.0369 84.7945 96.2142 38.0747C107.31 16.6292 120.762 17.1386 124.19 17.3262Z" fill="black"/>
<path d="M17.6436 211.784H337.657V349.589H17.6436V211.784Z" fill="#F3F3F3"/>
<path d="M55.2998 247.15H310.007" stroke="white" stroke-width="6.2642" stroke-linecap="round" stroke-linejoin="round"/>
<path d="M214.521 251.551L223.551 246.332L229.946 257.43L220.917 262.644L214.521 251.551Z" fill="#E49D75"/>
<path d="M76.0498 283.746H276.511" stroke="white" stroke-width="6.2642" stroke-linecap="round" stroke-linejoin="round"/>
<path d="M147.269 272.518L156.673 277.044L151.179 288.575L141.771 284.076L147.269 272.518Z" fill="#E49D75"/>
<path d="M199.569 174.664C208.718 174.664 222.175 229.551 227.959 245.644C226.75 249.013 219.885 254.258 216.118 254.258C208.852 242.07 192.575 215.942 189.683 211.903C187.366 208.687 190.419 174.664 199.569 174.664Z" fill="#273477"/>
<path opacity="0.27" d="M196.119 66.3559C197.681 65.3775 196.944 66.0342 198.176 64.2292L196.119 66.3559Z" fill="black"/>
<path d="M94.6392 164.581C86.708 164.581 80.1738 162.869 80.1738 181.558C80.1738 200.247 100.553 215.813 124.739 215.813C148.925 215.813 159.628 215.169 161.833 214.633C162.485 220.812 148.229 263.154 146.698 274.055C147.792 276.968 154.866 280.596 157.856 280.596C160.847 280.596 200.632 215.907 199.596 175.933C199.735 169.678 176.749 167.949 162.226 167.949C147.702 167.949 116.79 169.625 112.88 169.625" fill="#344392"/>
<path d="M82.9401 166.417C81.9314 162.257 76.4952 72.8699 109.108 74.4649C141.721 76.0599 141.386 155.716 137.673 168.289C122.788 174.597 84.0024 170.809 82.9401 166.417Z" fill="#D5E3BD"/>
<path d="M120.11 67.3744C119.597 68.5941 116.83 75.0903 116.317 77.7442C115.803 80.398 101.784 77.0427 102.57 75.7158C107.212 67.8703 107.97 59.6317 108.725 55.5079C109.416 51.7371 123.507 59.2966 120.11 67.3744Z" fill="#D18C65"/>
<path d="M116.085 119.889L95.9647 122.034C94.5944 123.723 95.188 127.717 95.1657 129.772C95.0765 137.367 95.4157 145.856 100.004 152.254C101.789 154.742 104.713 157.169 107.591 157.128C112.099 158.915 119.62 160.975 119.62 160.975L131.032 163.495C131.032 163.495 150.287 166.913 159.793 166.689C162.958 166.609 166.176 166.243 169.336 166.332C171.17 166.381 174.08 166.953 175.794 166.332C176.294 166.149 176.173 165.045 176.053 164.612C175.642 163.097 174.196 162.034 172.866 161.373C169.778 159.836 168.028 160.81 164.859 160.863C162.266 160.908 159.173 159.586 154.674 157.821C149.367 155.739 143.315 153.197 137.906 151.374C131.742 149.296 125.453 147.053 119.437 144.587C118.25 144.1 116.986 143.747 115.741 143.359C116.311 140.111 116.633 136.825 116.705 133.529C116.844 129.955 116.902 126.202 116.379 122.682C116.246 121.775 116.464 120.729 116.085 119.889Z" fill="#E49D75"/>
<path d="M90.6083 122.588C87.185 113.482 90.162 85.0224 101.275 83.1593C116.736 80.8629 121.36 116.82 119.829 121.024C117.093 122.668 101.766 128.105 90.6083 122.588Z" fill="#DBE7C8"/>
<path d="M136.646 36.6763C128.338 44.6089 117.394 49.1883 105.917 49.5346C105.382 50.2099 105.09 51.0454 105.087 51.907C105.092 52.8686 105.44 53.7967 106.07 54.523C106.7 55.2492 107.569 55.7255 108.519 55.8655C109.514 61.9551 112.732 66.7267 117.472 68.1698C125.06 70.4841 133.723 63.358 136.794 52.251C138.347 46.6395 138.173 41.0949 136.646 36.6763Z" fill="#E49D75"/>
<path d="M148.47 167.283C156.504 167.283 185.515 167.051 190.839 167.051L148.47 167.283Z" fill="#FFC88E"/>
<path d="M143.507 167.659C151.987 167.659 181.257 166.966 186.113 166.966C189.88 161.158 207.376 130.563 208.532 128.248" stroke="#9D9D9D" stroke-width="2.79428" stroke-linecap="round" stroke-linejoin="round"/>
<path d="M143.145 281.257L137.021 292.972L168.175 309.288L169.911 305.969L154.486 287.204L143.145 281.257Z" fill="black"/>
<path d="M219.02 259.664L225.826 270.995L255.957 252.86L254.029 249.647L229.99 253.061L219.02 259.664Z" fill="black"/>
<path d="M52.6577 268.037L32.6758 248.039L52.6577 228.037" stroke="#DFDFDF" stroke-width="6.2642" stroke-linecap="round" stroke-linejoin="round"/>
<path d="M300.808 339.486L320.781 319.488L300.804 299.49" stroke="#DFDFDF" stroke-width="6.2642" stroke-linecap="round" stroke-linejoin="round"/>
<path d="M55.2998 319.242H284.928" stroke="white" stroke-width="6.2642" stroke-linecap="round" stroke-linejoin="round"/>
</svg>
