<svg width="24" height="24" viewBox="0 0 24 24" fill="none" xmlns="http://www.w3.org/2000/svg">
<path d="M24 21.3333C24 22.806 22.806 24 21.3333 24H2.66667C1.194 24 0 22.806 0 21.3333V2.66667C0 1.194 1.194 0 2.66667 0H21.3333C22.806 0 24 1.194 24 2.66667V21.3333Z" fill="#348D88"/>
<path d="M19.3335 5.33333H18.0002V17.3333H19.3335C20.0695 17.3333 20.6668 16.736 20.6668 16V6.66667C20.6668 5.93067 20.0695 5.33333 19.3335 5.33333ZM4.66683 5.33333C3.93083 5.33333 3.3335 5.93067 3.3335 6.66667V16C3.3335 16.736 3.93083 17.3333 4.66683 17.3333H6.00016V5.33333H4.66683ZM15.3335 5.33333V3.33333C15.3335 2.59667 14.7362 2 14.0002 2H10.0002C9.26416 2 8.66683 2.59667 8.66683 3.33333V5.33333H7.3335V17.3333H16.6668V5.33333H15.3335ZM10.0002 4C10.0002 3.632 10.2988 3.33333 10.6668 3.33333H13.3335C13.7022 3.33333 14.0002 3.632 14.0002 4V5.33333H10.0002V4ZM22.0002 18.6667H2.00016C1.63216 18.6667 1.3335 18.9647 1.3335 19.3333C1.3335 19.702 1.63216 20 2.00016 20H2.66683C2.66683 20.736 3.26416 21.3333 4.00016 21.3333C4.73616 21.3333 5.3335 20.736 5.3335 20H6.66683C6.66683 20.736 7.26416 21.3333 8.00016 21.3333C8.73616 21.3333 9.3335 20.736 9.3335 20H10.6668C10.6668 20.736 11.2642 21.3333 12.0002 21.3333C12.7362 21.3333 13.3335 20.736 13.3335 20H14.6668C14.6668 20.736 15.2642 21.3333 16.0002 21.3333C16.7362 21.3333 17.3335 20.736 17.3335 20H18.6668C18.6668 20.736 19.2642 21.3333 20.0002 21.3333C20.7362 21.3333 21.3335 20.736 21.3335 20H22.0002C22.3688 20 22.6668 19.702 22.6668 19.3333C22.6668 18.9647 22.3688 18.6667 22.0002 18.6667Z" fill="#F5FAFA"/>
</svg>
