<svg width="24" height="24" viewBox="0 0 24 24" fill="none" xmlns="http://www.w3.org/2000/svg">
<path d="M24 21.3333C24 22.806 22.806 24 21.3333 24H2.66667C1.194 24 0 22.806 0 21.3333V2.66667C0 1.194 1.194 0 2.66667 0H21.3333C22.806 0 24 1.194 24 2.66667V21.3333Z" fill="#348D88"/>
<path d="M20.6666 7.33325C20.6666 9.54259 18.8753 11.3333 16.6666 11.3333C14.4579 11.3333 12.6666 9.54259 12.6666 7.33325H20.6666ZM20.6666 3.33325H12.6666C12.2979 3.33325 11.9999 3.63192 11.9999 3.99992C11.9999 4.12125 12.0326 4.37925 12.0893 4.67125C12.0593 4.66992 12.0306 4.66659 11.9999 4.66659C11.2639 4.66659 10.6666 4.96525 10.6666 5.33325C10.6666 5.70125 11.2639 5.99992 11.9999 5.99992C12.2466 5.99992 12.4559 5.99792 12.6473 5.99459C12.6533 5.99592 12.6599 5.99992 12.6666 5.99992H20.6666C21.0353 5.99992 21.3333 4.36792 21.3333 3.99992C21.3333 3.63192 21.0353 3.33325 20.6666 3.33325ZM9.99993 17.3333C6.65793 17.3333 4.96126 14.8459 4.89059 14.7393C4.48193 14.1266 4.64793 13.2986 5.26059 12.8899C5.87326 12.4799 6.70126 12.6473 7.10926 13.2599C7.14193 13.3066 8.11526 14.6666 9.99993 14.6666C11.8999 14.6666 12.8813 13.2746 12.8906 13.2606C13.2986 12.6479 14.1266 12.4806 14.7399 12.8906C15.3526 13.2986 15.5179 14.1266 15.1099 14.7399C15.0393 14.8459 13.3419 17.3333 9.99993 17.3333Z" fill="#F5FAFA"/>
<path d="M18.6665 12.6667H13.9998C13.2638 12.6667 12.6665 13.264 12.6665 14V18.6667L18.6665 12.6667ZM20.5465 13.4533L12.6665 21.3333C12.6665 22.0693 13.2638 22.6667 13.9998 22.6667H19.3332C20.0692 22.6667 20.6665 22.0693 20.6665 21.3333V14C20.6665 13.8047 20.6225 13.6207 20.5465 13.4533ZM7.99982 2.02667L3.99982 2.98C3.89715 3.00933 3.80315 3.06333 3.71582 3.12933L7.33315 3.97333C7.70115 4.078 7.99982 4.462 7.99982 4.83V8.69333C8.36782 8.58867 8.66649 8.20533 8.66649 7.83667V2.50333C8.66649 2.13467 8.36782 1.922 7.99982 2.02667Z" fill="#F5FAFA"/>
<path d="M6.66667 11.17C6.66667 11.5387 6.368 11.7513 6 11.6467L2.66667 10.6933C2.29867 10.5887 2 10.2053 2 9.83667V4.50333C2 4.13467 2.29867 3.922 2.66667 4.02667L6 4.98C6.368 5.08466 6.66667 5.46867 6.66667 5.83667V11.17Z" fill="#F5FAFA"/>
</svg>
