<svg width="24" height="24" viewBox="0 0 24 24" fill="none" xmlns="http://www.w3.org/2000/svg">
<path d="M24 21.3333C24 22.806 22.806 24 21.3333 24H2.66667C1.194 24 0 22.806 0 21.3333V2.66667C0 1.194 1.194 0 2.66667 0H21.3333C22.806 0 24 1.194 24 2.66667V21.3333Z" fill="#348D88"/>
<path d="M17.3335 11.3334H16.6668V20.0001H17.3335C18.0695 20.0001 18.6668 19.4027 18.6668 18.6667V12.6667C18.6668 11.9307 18.0695 11.3334 17.3335 11.3334ZM6.66683 11.3334C5.93083 11.3334 5.3335 11.9307 5.3335 12.6667V18.6667C5.3335 19.4027 5.93083 20.0001 6.66683 20.0001H7.3335V11.3334H6.66683ZM14.6668 11.3334V10.0001C14.6668 9.26408 14.0695 8.66675 13.3335 8.66675H10.6668C9.93083 8.66675 9.3335 9.26408 9.3335 10.0001V11.3334H8.66683V20.0001H15.3335V11.3334H14.6668ZM10.6668 10.6667C10.6668 10.2981 10.9655 10.0001 11.3335 10.0001H12.6668C13.0355 10.0001 13.3335 10.2981 13.3335 10.6667V11.3334H10.6668V10.6667Z" fill="#F5FAFA"/>
<path d="M21.3335 6.66659H2.66683C1.93083 6.66659 1.3335 7.26392 1.3335 7.99992V21.3333C1.3335 22.0693 1.93083 22.6666 2.66683 22.6666H21.3335C22.0695 22.6666 22.6668 22.0693 22.6668 21.3333V7.99992C22.6668 7.26392 22.0695 6.66659 21.3335 6.66659ZM21.3335 20.6666C21.3335 21.0353 21.0355 21.3333 20.6668 21.3333H3.3335C2.9655 21.3333 2.66683 21.0353 2.66683 20.6666V8.66659C2.66683 8.29792 2.9655 7.99992 3.3335 7.99992H20.6668C21.0355 7.99992 21.3335 8.29792 21.3335 8.66659V20.6666ZM16.0002 2.66659H11.7668C11.3915 1.88059 10.5962 1.33325 9.66683 1.33325C8.37816 1.33325 7.3335 2.37792 7.3335 3.66659C7.3335 4.95525 8.37816 5.99992 9.66683 5.99992C10.8415 5.99992 11.8035 5.12925 11.9668 3.99992H13.1128C13.2775 4.61725 13.6108 5.33325 14.0002 5.33325C14.3895 5.33325 14.7228 4.61725 14.8875 3.99992H15.3335C15.3335 4.73592 15.6322 5.33325 16.0002 5.33325C16.3682 5.33325 16.6668 4.66659 16.6668 3.33325C16.6668 2.59659 16.3682 2.66659 16.0002 2.66659ZM9.00016 4.66659C8.4475 4.66659 8.00016 4.21925 8.00016 3.66659C8.00016 3.11392 8.4475 2.66659 9.00016 2.66659C9.55283 2.66659 10.0002 3.11392 10.0002 3.66659C10.0002 4.21925 9.55283 4.66659 9.00016 4.66659Z" fill="#F5FAFA"/>
</svg>
