<svg width="24" height="24" viewBox="0 0 24 24" fill="none" xmlns="http://www.w3.org/2000/svg">
<g clip-path="url(#clip0)">
<path d="M22.7735 19.208L20.8295 1.78533C20.7162 0.768667 19.8569 0 18.8342 0H5.10954C4.07954 0 3.21688 0.778667 3.11154 1.80267L1.33154 19.208H22.7735Z" fill="#E14554"/>
<path d="M12.0458 15.5774C15.4942 15.5774 18.2898 12.7818 18.2898 9.33336C18.2898 5.88489 15.4942 3.08936 12.0458 3.08936C8.59729 3.08936 5.80176 5.88489 5.80176 9.33336C5.80176 12.7818 8.59729 15.5774 12.0458 15.5774Z" fill="#972136"/>
<path d="M23.6807 19.4534H0.319333L0 22.6667C0 24 1.33333 24 1.33333 24H22.6667C22.6667 24 24 24 24 22.6667L23.6807 19.4534Z" fill="#ABB9BE"/>
<path d="M23.7292 19.9414L23.6805 19.4534C23.5865 18.9614 23.1672 18.6667 22.6665 18.6667H1.33317C0.832508 18.6667 0.413174 18.9614 0.319174 19.4534L0.270508 19.9414H23.7292Z" fill="#DFE6E8"/>
<path d="M19.7645 9.08661L14.6525 8.25461L17.6785 4.04927C17.7499 3.95061 17.7392 3.81327 17.6525 3.72661C17.5652 3.64061 17.4285 3.62927 17.3299 3.70061L13.1239 6.72594L12.2925 1.61461C12.2732 1.49394 12.1679 1.40527 12.0459 1.40527C11.9239 1.40527 11.8185 1.49394 11.7992 1.61461L10.9672 6.72594L6.76185 3.70061C6.66252 3.62927 6.52652 3.64061 6.43919 3.72661C6.35252 3.81394 6.34185 3.94994 6.41319 4.04927L9.43852 8.25461L4.32652 9.08661C4.20585 9.10594 4.11719 9.21061 4.11719 9.33327C4.11719 9.45594 4.20585 9.56061 4.32652 9.57994L9.43852 10.4119L6.41319 14.6173C6.34185 14.7166 6.35252 14.8533 6.43919 14.9399C6.52652 15.0259 6.66252 15.0373 6.76185 14.9659L10.9672 11.9406L11.7992 17.0519C11.8185 17.1733 11.9239 17.2613 12.0459 17.2613C12.1679 17.2613 12.2732 17.1719 12.2925 17.0519L13.1239 11.9406L17.3292 14.9659C17.4279 15.0366 17.5652 15.0259 17.6519 14.9399C17.7385 14.8526 17.7492 14.7166 17.6779 14.6173L14.6525 10.4119L19.7645 9.57994C19.8859 9.56061 19.9739 9.45527 19.9739 9.33327C19.9739 9.21127 19.8859 9.10594 19.7645 9.08661Z" fill="#F7CBD0"/>
</g>
<defs>
<clipPath id="clip0">
<rect width="24" height="24" fill="white"/>
</clipPath>
</defs>
</svg>
