<svg width="24" height="24" viewBox="0 0 24 24" fill="none" xmlns="http://www.w3.org/2000/svg">
<path d="M1.76849 23.3332C0.540493 23.3332 -0.000840425 22.4412 0.564493 21.3512L10.9705 1.31457C11.5365 0.22457 12.4625 0.22457 13.0285 1.31457L23.4345 21.3519C24.0012 22.4412 23.4592 23.3332 22.2312 23.3332H1.76849Z" fill="#FFDB21"/>
<path d="M10.3887 19.3021C10.3887 18.4134 11.112 17.6901 12.0013 17.6901C12.89 17.6901 13.6133 18.4134 13.6133 19.3021C13.6133 20.1914 12.8893 20.9147 12.0013 20.9147C11.112 20.9147 10.3887 20.1914 10.3887 19.3021ZM10.5127 7.10675C10.5127 6.23875 11.1533 5.70142 12.0007 5.70142C12.828 5.70142 13.4893 6.25942 13.4893 7.10675V15.0654C13.4893 15.9127 12.828 16.4707 12.0007 16.4707C11.1533 16.4707 10.5127 15.9327 10.5127 15.0654V7.10675Z" fill="#131E26"/>
</svg>
