<svg width="24" height="24" viewBox="0 0 24 24" fill="none" xmlns="http://www.w3.org/2000/svg">
<path d="M7.16422 14.3474C8.27622 14.3474 12.1176 17.2441 12.1156 20.8147C12.1176 24.3867 2.21356 24.3867 2.21289 20.8141C2.21356 17.2434 6.05222 14.3474 7.16422 14.3474Z" fill="#8A9AA1"/>
<path d="M5.69398 16.7879C11.5866 22.6812 17.252 20.2299 19.0493 18.4339C20.846 16.6366 18.944 11.8232 14.802 7.68122C10.6586 3.53855 5.84465 1.63655 4.04798 3.43322C2.25131 5.22988 -0.199352 10.8952 5.69398 16.7879Z" fill="#D5DDE0"/>
<path d="M8.29555 14.1852C12.4382 18.3279 17.2516 20.2292 19.0489 18.4332C20.8456 16.6359 18.9436 11.8226 14.8016 7.68056C10.6589 3.53856 5.84489 1.63656 4.04822 3.43323C2.25155 5.2299 4.15355 10.0439 8.29555 14.1852Z" fill="#3F5F6F"/>
<path d="M14.8014 7.68074C15.0967 7.97674 15.0967 8.45607 14.8014 8.75207L9.97937 13.5727C9.68337 13.8687 9.20404 13.8687 8.90804 13.5727C8.61204 13.2774 8.61204 12.7974 8.90804 12.5014L13.7294 7.68074C14.026 7.38474 14.5047 7.38474 14.8014 7.68074Z" fill="#CCD6DD"/>
<path d="M15.8725 6.61003C16.4638 7.20136 16.4638 8.16136 15.8725 8.75269C15.2805 9.34469 14.3211 9.34469 13.7291 8.75269C13.1378 8.16136 13.1378 7.20136 13.7291 6.61003C14.3205 6.01736 15.2805 6.01736 15.8725 6.61003Z" fill="#CCD6DD"/>
<path d="M18.858 8.71858L18.824 8.71791C18.456 8.69991 18.1733 8.38658 18.1913 8.01925C18.192 8.00858 18.2333 6.58125 17.138 5.48591C16.046 4.39458 14.6233 4.43324 14.604 4.43258C14.2373 4.45458 13.9233 4.16724 13.9046 3.80058C13.8866 3.43258 14.1693 3.11924 14.5373 3.10124C14.6186 3.09324 16.556 3.01924 18.08 4.54324C19.6046 6.06858 19.5266 8.00391 19.5226 8.08591C19.5053 8.44125 19.2106 8.71858 18.858 8.71858Z" fill="#50BFB8"/>
<path d="M21.2307 8.34794C21.158 8.34794 21.0833 8.33528 21.0107 8.30994C20.6633 8.18794 20.48 7.80794 20.602 7.46061C20.6247 7.38928 21.1973 5.54328 19.1387 3.48528C17.0547 1.40061 15.0547 1.87594 14.9707 1.89728C14.618 1.98861 14.2527 1.77461 14.16 1.42061C14.0667 1.06661 14.2747 0.704611 14.6273 0.609277C14.7407 0.578611 17.4307 -0.108723 20.0813 2.54328C22.7587 5.21928 21.8987 7.79394 21.86 7.90261C21.764 8.17594 21.506 8.34794 21.2307 8.34794Z" fill="#50BFB8"/>
<path d="M7.27622 21.6807C5.34289 21.6807 3.58089 21.242 2.23222 20.5227C2.22689 20.62 2.21289 20.716 2.21289 20.8147C2.21356 24.3874 12.1176 24.3874 12.1156 20.8154C12.1156 20.7554 12.1056 20.6974 12.1036 20.638C10.7856 21.2887 9.10622 21.6807 7.27622 21.6807Z" fill="#667F8A"/>
</svg>
