<svg width="24" height="24" viewBox="0 0 24 24" fill="none" xmlns="http://www.w3.org/2000/svg">
<g clip-path="url(#clip0)">
<path d="M19.21 2.66675H20.5406V3.33341H19.21V2.66675Z" fill="#66757F"/>
<path d="M1.3335 8V21.3333C1.3335 22.806 2.5275 24 4.00016 24H20.0002C21.4728 24 22.6668 22.806 22.6668 21.3333V8H1.3335Z" fill="#DFE6E8"/>
<path d="M20.0002 2.66675H4.00016C2.5275 2.66675 1.3335 3.86075 1.3335 5.33341V8.66675H22.6668V5.33341C22.6668 3.86075 21.4728 2.66675 20.0002 2.66675Z" fill="#50BFB8"/>
<path d="M5.89079 5.82078C5.42279 5.82078 5.04346 5.37678 5.04346 4.82812C5.04346 4.28012 5.42279 3.83545 5.89079 3.83545C6.35812 3.83545 6.73746 4.28012 6.73746 4.82812C6.73746 5.37612 6.35812 5.82078 5.89079 5.82078ZM9.89079 5.82078C9.42279 5.82078 9.04346 5.37678 9.04346 4.82812C9.04346 4.28012 9.42279 3.83545 9.89079 3.83545C10.3581 3.83545 10.7375 4.28012 10.7375 4.82812C10.7375 5.37612 10.3581 5.82078 9.89079 5.82078ZM13.8908 5.82078C13.4228 5.82078 13.0435 5.37678 13.0435 4.82812C13.0435 4.28012 13.4228 3.83545 13.8908 3.83545C14.3581 3.83545 14.7381 4.28012 14.7381 4.82812C14.7375 5.37612 14.3581 5.82078 13.8908 5.82078ZM17.8908 5.82078C17.4228 5.82078 17.0435 5.37678 17.0435 4.82812C17.0435 4.28012 17.4228 3.83545 17.8908 3.83545C18.3581 3.83545 18.7381 4.28012 18.7381 4.82812C18.7375 5.37612 18.3581 5.82078 17.8908 5.82078Z" fill="#3F5F6F"/>
<path d="M18.2098 0.119385C17.3585 0.119385 16.6211 0.654051 16.2138 1.43272C15.8098 0.670718 15.0691 0.119385 14.2098 0.119385C13.3585 0.119385 12.6211 0.654051 12.2138 1.43272C11.8098 0.670718 11.0691 0.119385 10.2098 0.119385C9.35846 0.119385 8.62113 0.654051 8.2138 1.43272C7.8098 0.670718 7.06913 0.119385 6.2098 0.119385C4.92046 0.119385 3.87646 1.33205 3.87646 2.78938C3.87646 4.02538 4.57313 5.03672 5.58913 5.40672C6.09513 5.59005 6.40513 5.10872 6.3618 4.72272C6.32513 4.40272 6.11246 4.19405 5.8758 4.04405C5.55246 3.83939 5.20913 3.37205 5.20913 2.79272C5.20913 2.05672 5.65646 1.39605 6.20913 1.39605C6.7618 1.39605 7.20913 1.99938 7.20913 2.66605H7.88646C7.88446 2.70739 7.8758 2.74672 7.8758 2.78872C7.8758 4.02472 8.57246 5.03605 9.58847 5.40605C10.0945 5.58939 10.4045 5.10805 10.3611 4.72205C10.3245 4.40272 10.1118 4.19405 9.87513 4.04405C9.5518 3.83939 9.20846 3.37205 9.20846 2.79272C9.20846 2.05672 9.6558 1.39605 10.2085 1.39605C10.7611 1.39605 11.2098 2.00005 11.2098 2.66672H11.8871C11.8851 2.70805 11.8765 2.74739 11.8765 2.78938C11.8765 4.02538 12.5731 5.03672 13.5891 5.40672C14.0951 5.59005 14.4051 5.10872 14.3618 4.72272C14.3251 4.40339 14.1125 4.19472 13.8758 4.04472C13.5525 3.84005 13.2091 3.37272 13.2091 2.79339C13.2091 2.05738 13.6565 1.39672 14.2091 1.39672C14.7618 1.39672 15.2098 2.00005 15.2098 2.66672H15.8871C15.8851 2.70805 15.8765 2.74739 15.8765 2.78938C15.8765 4.02538 16.5731 5.03672 17.5891 5.40672C18.0951 5.59005 18.4051 5.10872 18.3618 4.72272C18.3251 4.40339 18.1125 4.19472 17.8758 4.04472C17.5525 3.84005 17.2091 3.37272 17.2091 2.79339C17.2091 2.05738 17.6565 1.39672 18.2091 1.39672C18.7618 1.39672 19.2098 2.00005 19.2098 2.66672H20.5405C20.5265 1.33338 19.4898 0.119385 18.2098 0.119385Z" fill="#7B8A8E"/>
<path d="M7.33333 10H10V12.6667H7.33333V10ZM10.6667 10H13.3333V12.6667H10.6667V10ZM14 10H16.6667V12.6667H14V10ZM17.3333 10H20V12.6667H17.3333V10ZM4 13.3333H6.66667V16H4V13.3333ZM7.33333 13.3333H10V16H7.33333V13.3333ZM10.6667 13.3333H13.3333V16H10.6667V13.3333ZM14 13.3333H16.6667V16H14V13.3333ZM17.3333 13.3333H20V16H17.3333V13.3333ZM4 16.6667H6.66667V19.3333H4V16.6667ZM7.33333 16.6667H10V19.3333H7.33333V16.6667ZM10.6667 16.6667H13.3333V19.3333H10.6667V16.6667ZM14 16.6667H16.6667V19.3333H14V16.6667ZM17.3333 16.6667H20V19.3333H17.3333V16.6667ZM4 20H6.66667V22.6667H4V20ZM7.33333 20H10V22.6667H7.33333V20ZM10.6667 20H13.3333V22.6667H10.6667V20Z" fill="white"/>
</g>
<defs>
<clipPath id="clip0">
<rect width="24" height="24" fill="white"/>
</clipPath>
</defs>
</svg>
