<svg width="24" height="24" viewBox="0 0 24 24" fill="none" xmlns="http://www.w3.org/2000/svg">
<path d="M23.3332 12.6667C23.3332 11.2921 23.0885 9.97408 22.6398 8.75474C22.3332 12.3474 20.4178 14.1927 18.4165 13.3334C16.5418 12.5281 17.8052 9.38874 17.8985 7.89074C18.0558 5.35141 17.8905 2.44474 13.2778 0.0280762C15.1945 3.69474 13.4998 5.97274 11.7225 6.11141C9.7505 6.26541 7.9445 4.41674 8.61117 1.41674C6.4525 3.00741 6.38984 5.68474 7.05584 7.41674C7.7505 9.22208 7.02784 10.7221 5.33384 10.8887C3.4405 11.0754 2.3885 8.86141 3.3585 5.33341C1.67984 7.31008 0.666504 9.87008 0.666504 12.6667C0.666504 18.9261 5.7405 24.0001 11.9998 24.0001C18.2592 24.0001 23.3332 18.9261 23.3332 12.6667Z" fill="#E14554"/>
<path d="M18.9293 15.9992C19.028 18.0552 17.222 18.8612 16.25 18.4719C14.846 17.9099 15.2227 16.9446 14.8613 14.9446C14.5 12.9446 13.1113 11.5559 11.056 10.9446C12.556 15.1666 10.2247 16.7226 9.00267 17.0006C7.75467 17.2846 6.50067 16.9999 6.35733 14.3292C4.90133 15.7786 4 17.7839 4 19.9999C4 20.2452 4.01533 20.4866 4.03667 20.7266C6.08333 22.7492 8.89467 23.9999 12 23.9999C15.1053 23.9999 17.9167 22.7492 19.9633 20.7266C19.9847 20.4866 20 20.2452 20 19.9999C20 18.5419 19.6107 17.1759 18.9293 15.9992Z" fill="#F7CBD0"/>
</svg>
