<svg width="24" height="24" viewBox="0 0 24 24" fill="none" xmlns="http://www.w3.org/2000/svg">
<path d="M21.4356 16C21.4356 15.3333 22.4509 11.8587 23.4669 10.8433C24.4816 9.828 23.4669 8.73267 22.4516 8.73267C20.1816 8.73267 16.3589 13.3333 16.3589 16C16.3589 19.3333 20.1809 22.9493 22.4516 22.9493C23.4669 22.9493 24.4822 22.0133 23.4669 20.9973C22.4516 19.9827 21.4356 17.3333 21.4356 16Z" fill="#3BA09A"/>
<path d="M6.01416 9.58934C6.01416 7.55868 7.01216 5.52734 8.02749 5.52734C11.0735 5.52734 16.9088 8.74268 17.9242 13.82C18.9402 18.8973 6.01416 9.58934 6.01416 9.58934ZM9.25016 21.7747C10.2655 22.79 12.2968 23.806 14.3282 23.806C16.3588 23.806 12.2542 21.0133 13.3128 19.7447C14.7662 18 9.25016 21.7747 9.25016 21.7747Z" fill="#3BA09A"/>
<path d="M1.38057 19.1512C1.88791 17.6279 1.50724 16.5279 0.618573 15.4285C-0.270093 14.3279 3.19991 14.1592 4.34191 15.6825C5.48391 17.2059 8.15057 19.8699 5.78057 19.8292C3.41191 19.7859 1.38057 19.1512 1.38057 19.1512Z" fill="#131E26"/>
<path d="M0.111816 15.6586C0.75115 16.2413 4.92715 18.5313 4.88848 19.0833C4.84982 19.6353 3.36915 19.0246 2.81848 18.8973C1.82848 18.6693 1.54848 18.4986 1.27382 18.5466C0.713816 18.7606 0.904483 19.3473 1.11248 19.6826C2.11115 21.4226 5.96982 22.7906 9.21915 22.7906C14.8272 22.7906 20.4205 17.714 20.4205 15.6826C20.4205 13.652 14.1905 8.57397 8.58248 8.57397C2.98848 8.57331 0.119816 12.6146 0.111816 15.6586Z" fill="#6AC8C2"/>
<path d="M4.66683 11.3333C5.40283 11.3333 6.00016 11.9293 6.00016 12.6666C6.00016 13.4033 5.40283 13.9999 4.66683 13.9999C3.93016 13.9999 3.3335 13.4026 3.3335 12.6666C3.3335 11.9293 3.93016 11.3333 4.66683 11.3333Z" fill="#131E26"/>
<path d="M10.0533 19.9867C9.9493 19.9867 9.84397 19.9627 9.7453 19.9114C9.41864 19.7407 9.29264 19.3381 9.4633 19.0114C10.52 16.9887 10.942 15.1661 9.56597 12.8494C9.37797 12.5327 9.48197 12.1241 9.79864 11.9354C10.1153 11.7467 10.524 11.8527 10.7126 12.1681C12.508 15.1914 11.686 17.6361 10.6446 19.6287C10.526 19.8567 10.2933 19.9867 10.0533 19.9867Z" fill="#348D88"/>
</svg>
