<svg width="24" height="24" viewBox="0 0 24 24" fill="none" xmlns="http://www.w3.org/2000/svg">
<path d="M5.33317 10.6667C4.96517 10.6667 4.6665 10.368 4.6665 10V2.66667C4.6665 2.29867 4.96517 2 5.33317 2C5.70117 2 5.99984 2.29867 5.99984 2.66667V10C5.99984 10.368 5.70117 10.6667 5.33317 10.6667Z" fill="#D5DDE0"/>
<path d="M1.3335 22C1.3335 20.5093 4.00016 18 6.00016 18V21.3333C5.3335 21.3333 3.3335 22 2.66683 22.6667C2.00016 23.3333 1.3335 22.6667 1.3335 22ZM10.6668 22C10.6668 20.5093 8.00016 18 6.00016 18V21.3333C6.66683 21.3333 8.66683 22 9.3335 22.6667C10.0002 23.3333 10.6668 22.6667 10.6668 22Z" fill="#3BA09A"/>
<path d="M9.99984 9.33325C11.3332 9.33325 12.6665 9.99992 12.6665 10.6666C12.6665 12.6666 10.5552 18.3613 7.22184 19.0279C3.8885 19.6946 9.99984 9.33325 9.99984 9.33325ZM1.99984 13.3333C1.33317 13.9999 0.666504 15.3333 0.666504 16.6666C0.666504 17.9999 2.49984 15.3053 3.33317 15.9999C4.4785 16.9546 1.99984 13.3333 1.99984 13.3333Z" fill="#3BA09A"/>
<path d="M3.72216 8.16676C4.72216 8.50009 5.44416 8.25009 6.16683 7.66676C6.8895 7.08342 7.00016 9.36142 6.00016 10.1114C5.00016 10.8614 3.25016 12.6114 3.27816 11.0561C3.3055 9.50009 3.72216 8.16676 3.72216 8.16676Z" fill="#131E26"/>
<path d="M6.0155 7.33398C5.63283 7.75398 4.77816 8.88865 4.3615 10.2773C3.77816 10.6107 3.80616 9.47198 3.8895 9.11065C4.0395 8.46065 4.22683 8.45932 4.12016 8.09665C3.98016 7.72932 3.59416 7.85398 3.37416 7.99065C2.23216 8.64665 1.3335 9.86665 1.3335 12C1.3335 15.6813 4.66683 20.6667 6.00016 20.6667C7.3335 20.6667 10.6668 15.6813 10.6668 12C10.6668 8.32732 8.01416 7.33865 6.0155 7.33398Z" fill="#6AC8C2"/>
<path d="M7.6665 11.3333C8.21879 11.3333 8.6665 10.8855 8.6665 10.3333C8.6665 9.78097 8.21879 9.33325 7.6665 9.33325C7.11422 9.33325 6.6665 9.78097 6.6665 10.3333C6.6665 10.8855 7.11422 11.3333 7.6665 11.3333Z" fill="#131E26"/>
<path d="M5.9691 15.218C4.96643 15.218 4.0831 14.8593 3.30243 14.452C2.97577 14.2813 2.84977 13.8786 3.02043 13.552C3.19043 13.2266 3.5931 13.0986 3.91977 13.2693C5.18043 13.928 6.3131 14.1926 7.7431 13.3426C8.05977 13.1553 8.46843 13.26 8.65643 13.576C8.84443 13.8933 8.73977 14.302 8.4231 14.49C7.53377 15.018 6.71777 15.218 5.9691 15.218Z" fill="#348D88"/>
<path d="M19.8892 23.5C19.5598 23.3353 19.1945 22.8613 19.4032 22.3687C20.2925 20.2713 22.2552 11.102 20.4725 5.86134C20.1385 4.88001 19.0605 3.42201 17.7525 2.61934C13.5278 0.0280097 7.21515 1.44734 6.33315 1.88868C6.00315 2.05401 4.97049 2.38468 4.80515 2.05534C4.64049 1.72601 5.19782 1.38668 5.52715 1.22201C6.69782 0.637343 13.0365 -1.36332 18.6385 1.74934C19.6385 2.30468 21.0318 3.33334 21.7738 5.28468C23.9452 10.996 22.4718 20.8953 21.2492 23.166C20.8612 23.8887 19.9852 23.5473 19.8892 23.5Z" fill="#6D1727"/>
<path d="M18.6667 19.3333C20.1394 19.3333 21.3333 18.1394 21.3333 16.6667C21.3333 15.1939 20.1394 14 18.6667 14C17.1939 14 16 15.1939 16 16.6667C16 18.1394 17.1939 19.3333 18.6667 19.3333Z" fill="#3F5F6F"/>
<path d="M18.6668 17.9999C19.4032 17.9999 20.0002 17.403 20.0002 16.6666C20.0002 15.9302 19.4032 15.3333 18.6668 15.3333C17.9304 15.3333 17.3335 15.9302 17.3335 16.6666C17.3335 17.403 17.9304 17.9999 18.6668 17.9999Z" fill="#8A9AA1"/>
</svg>
