<svg width="8" height="8" viewBox="0 0 8 8" fill="none" xmlns="http://www.w3.org/2000/svg">
<g clip-path="url(#clip0_117_20655)">
<path fill-rule="evenodd" clip-rule="evenodd" d="M1.22811 5.09164C0.903386 5.41636 0.903386 5.94283 1.22811 6.26755L1.73207 6.77151C2.05679 7.09623 2.58326 7.09623 2.90798 6.77151L3.99971 5.67979L5.09151 6.7716C5.41623 7.09632 5.94271 7.09632 6.26743 6.7716L6.77139 6.26764C7.09611 5.94292 7.09611 5.41644 6.77139 5.09172L5.67958 3.99991L6.7717 2.90779C7.09643 2.58307 7.09643 2.0566 6.77171 1.73188L6.26774 1.22791C5.94302 0.903195 5.41655 0.903195 5.09183 1.22791L3.99971 2.32003L2.90767 1.228C2.58295 0.90328 2.05648 0.90328 1.73176 1.228L1.22779 1.73196C0.903073 2.05668 0.903073 2.58316 1.22779 2.90788L2.31983 3.99991L1.22811 5.09164Z" fill="#FC665C"/>
</g>
<defs>
<clipPath id="clip0_117_20655">
<rect width="8" height="8" fill="white"/>
</clipPath>
</defs>
</svg>
