<svg width="24" height="24" viewBox="0 0 24 24" fill="none" xmlns="http://www.w3.org/2000/svg">
<g clip-path="url(#clip0)">
<path d="M23.3332 24.0001V20.6667C23.3332 18.4574 21.5425 16.6667 19.3332 16.6667H8.6665C6.45784 16.6667 4.6665 18.4574 4.6665 20.6667V24.0001H23.3332Z" fill="#77B255"/>
<path d="M11.0934 16.7374C11.0934 17.3334 12.6668 18.066 14.0001 18.066C15.3334 18.066 16.9061 17.3334 16.9061 16.738V14.1934H11.0928V16.7374H11.0934Z" fill="#D5AB88"/>
<path d="M11.0881 15.3154C11.8987 16.2314 12.9041 16.4794 13.9974 16.4794C15.0901 16.4794 16.0947 16.2307 16.9061 15.3154V12.988H11.0874V15.3154H11.0881Z" fill="#CC9B7A"/>
<path d="M9.62918 8.62391C9.62918 9.58924 9.13985 10.3719 8.53651 10.3719C7.93318 10.3719 7.44385 9.58924 7.44385 8.62391C7.44385 7.65858 7.93318 6.87524 8.53651 6.87524C9.13985 6.87458 9.62918 7.65791 9.62918 8.62391ZM20.5552 8.62391C20.5552 9.58924 20.0665 10.3719 19.4625 10.3719C18.8592 10.3719 18.3698 9.58924 18.3698 8.62391C18.3698 7.65858 18.8585 6.87524 19.4625 6.87524C20.0665 6.87458 20.5552 7.65791 20.5552 8.62391Z" fill="#D5AB88"/>
<path d="M8.31787 9.30666C8.31787 5.58066 10.8619 2.55933 13.9999 2.55933C17.1379 2.55933 19.6812 5.58066 19.6812 9.30666C19.6812 13.0327 17.1379 16.054 13.9999 16.054C10.8625 16.0533 8.31787 13.0327 8.31787 9.30666Z" fill="#D5AB88"/>
<path d="M13.9999 13.868C12.1639 13.868 11.5999 13.398 11.5059 13.3026C11.3353 13.132 11.3353 12.8553 11.5059 12.6846C11.6713 12.5193 11.9366 12.5146 12.1073 12.6693C12.1419 12.694 12.5879 12.994 13.9999 12.994C15.4666 12.994 15.8906 12.6706 15.8946 12.6673C16.0653 12.4973 16.3326 12.5053 16.5033 12.6773C16.6739 12.848 16.6646 13.1326 16.4939 13.3026C16.3999 13.398 15.8359 13.868 13.9999 13.868Z" fill="#C1694F"/>
<path d="M13.9998 0C17.7652 0 20.1185 3.09867 20.1185 5.414C20.1185 7.72933 19.6478 8.656 19.1772 7.72933L18.2358 5.87733C18.2358 5.87733 15.4125 5.87733 14.4712 4.95067C14.4712 4.95067 15.8832 7.72933 13.0592 4.95067C13.0592 4.95067 13.5298 6.80333 10.7058 4.488C10.7058 4.488 9.29384 5.414 8.82317 7.72933C8.6925 8.372 7.88184 7.72933 7.88184 5.414C7.88117 3.09867 9.76384 0 13.9998 0Z" fill="#963B22"/>
<path d="M11.3332 9.33325C10.9665 9.33325 10.6665 9.03325 10.6665 8.66659V7.99992C10.6665 7.63325 10.9665 7.33325 11.3332 7.33325C11.6998 7.33325 11.9998 7.63325 11.9998 7.99992V8.66659C11.9998 9.03325 11.6998 9.33325 11.3332 9.33325ZM16.6665 9.33325C16.2998 9.33325 15.9998 9.03325 15.9998 8.66659V7.99992C15.9998 7.63325 16.2998 7.33325 16.6665 7.33325C17.0332 7.33325 17.3332 7.63325 17.3332 7.99992V8.66659C17.3332 9.03325 17.0332 9.33325 16.6665 9.33325Z" fill="#662113"/>
<path d="M14.5 11.1667H13.5C13.2247 11.1667 13 10.9421 13 10.6667C13 10.3914 13.2247 10.1667 13.5 10.1667H14.5C14.7753 10.1667 15 10.3914 15 10.6667C15 10.9421 14.7753 11.1667 14.5 11.1667Z" fill="#C1694F"/>
<path d="M22 23.3334C22 23.7021 21.702 24.0001 21.3333 24.0001H14.6667C14.298 24.0001 14 23.7021 14 23.3334C14 22.9647 14.298 22.6667 14.6667 22.6667H21.3333C21.702 22.6667 22 22.9647 22 23.3334Z" fill="#E1E8ED"/>
<path d="M13.4934 14.6667H2.50607C1.49007 14.6667 0.187404 15.1807 0.85407 17.0207L2.90207 22.6707C2.90274 22.6707 3.16674 24.0001 4.66674 24.0001H18.0001L15.3334 16.5067C15.0414 15.6254 14.5101 14.6667 13.4934 14.6667Z" fill="#E1E8ED"/>
<path d="M12.8269 14.6667H1.83957C0.823566 14.6667 -0.4791 15.1807 0.187566 17.0207L2.23557 22.6707C2.23623 22.6707 2.50023 24.0001 4.00023 24.0001H17.3336L14.6669 16.5067C14.3749 15.6254 13.8436 14.6667 12.8269 14.6667Z" fill="#99AAB5"/>
<path d="M9.346 19.522C9.69533 20.57 9.412 21.6087 8.71333 21.8413C8.01467 22.0747 7.16533 21.414 6.816 20.366C6.46667 19.318 6.75 18.2793 7.44867 18.0467C8.14733 17.814 8.99733 18.474 9.346 19.522ZM12.6667 16.5H2C1.724 16.5 1.5 16.276 1.5 16C1.5 15.724 1.724 15.5 2 15.5H12.6667C12.9427 15.5 13.1667 15.724 13.1667 16C13.1667 16.276 12.9427 16.5 12.6667 16.5Z" fill="#E1E8ED"/>
</g>
<defs>
<clipPath id="clip0">
<rect width="24" height="24" fill="white"/>
</clipPath>
</defs>
</svg>
