<svg width="24" height="24" viewBox="0 0 24 24" fill="none" xmlns="http://www.w3.org/2000/svg">
<g clip-path="url(#clip0)">
<path d="M21.3332 24.0001V22.6667C21.3332 20.4574 19.5432 18.6667 17.3332 18.6667H6.6665C4.45784 18.6667 2.6665 20.4574 2.6665 22.6667V24.0001H21.3332Z" fill="#F2760F"/>
<path d="M8.6665 18H15.3332V20.6667H8.6665V18Z" fill="#292F33"/>
<path d="M9.3335 18H14.6668C14.6668 18 13.9882 22.6667 12.0002 22.6667C10.0122 22.6667 9.3335 18 9.3335 18Z" fill="#292F33"/>
<path d="M9.09344 20.0253C10.2568 20.8706 10.9928 21.334 12.0001 21.334C13.0074 21.334 13.7434 20.87 14.9061 20.0253V16.1926H9.09277V20.0253H9.09344Z" fill="#D5AB88"/>
<path d="M9.08807 17.3154C9.89874 18.2314 10.9041 18.4794 11.9974 18.4794C13.0901 18.4794 14.0947 18.2307 14.9061 17.3154V14.988H9.0874V17.3154H9.08807Z" fill="#CC9B7A"/>
<path d="M18.5558 10.6233C18.5558 9.65799 18.0665 8.87466 17.4632 8.87466C17.4085 8.87466 17.3558 8.88799 17.3032 8.90066C16.4865 6.36399 14.4232 4.55933 11.9998 4.55933C9.57651 4.55933 7.51385 6.36399 6.69651 8.90066C6.64385 8.88799 6.59118 8.87466 6.53651 8.87466C5.93318 8.87466 5.44385 9.65799 5.44385 10.6233C5.44385 11.51 5.85785 12.2347 6.39251 12.348C6.81518 15.578 9.16118 18.0527 11.9998 18.0527C14.8385 18.0527 17.1845 15.578 17.6072 12.348C18.1418 12.2347 18.5558 11.51 18.5558 10.6233Z" fill="#D5AB88"/>
<path d="M11.9998 15.868C10.1638 15.868 9.59976 15.398 9.50643 15.3026C9.3351 15.132 9.3351 14.8553 9.50643 14.6846C9.67176 14.5193 9.93576 14.5146 10.1078 14.6693C10.1418 14.694 10.5884 14.994 11.9998 14.994C13.4671 14.994 13.8904 14.6706 13.8944 14.6673C14.0651 14.4973 14.3331 14.5053 14.5038 14.6773C14.6744 14.848 14.6651 15.1326 14.4944 15.3026C14.3998 15.398 13.8358 15.868 11.9998 15.868Z" fill="#C1694F"/>
<path d="M11.9998 2.32007C15.7652 2.32007 18.1185 5.09874 18.1185 7.41407C18.1185 9.7294 17.6485 10.6561 17.1772 9.7294L16.2358 7.8774C16.2358 7.8774 13.4132 7.8774 12.4718 6.95074C12.4718 6.95074 13.8832 9.7294 11.0592 6.95074C11.0592 6.95074 11.5305 8.8034 8.70584 6.48807C8.70584 6.48807 7.29384 7.41407 6.82317 9.7294C6.6925 10.3721 5.88184 9.7294 5.88184 7.41407C5.88117 5.09874 7.76384 2.32007 11.9998 2.32007Z" fill="#963B22"/>
<path d="M9.33317 11.3333C8.9665 11.3333 8.6665 11.0333 8.6665 10.6666V9.99992C8.6665 9.63325 8.9665 9.33325 9.33317 9.33325C9.7005 9.33325 9.99984 9.63325 9.99984 9.99992V10.6666C9.99984 11.0333 9.7005 11.3333 9.33317 11.3333ZM14.6665 11.3333C14.3005 11.3333 13.9998 11.0333 13.9998 10.6666V9.99992C13.9998 9.63325 14.3005 9.33325 14.6665 9.33325C15.0338 9.33325 15.3332 9.63325 15.3332 9.99992V10.6666C15.3332 11.0333 15.0338 11.3333 14.6665 11.3333Z" fill="#662113"/>
<path d="M12.5 13.1667H11.5C11.2253 13.1667 11 12.9421 11 12.6667C11 12.3914 11.2253 12.1667 11.5 12.1667H12.5C12.776 12.1667 13 12.3914 13 12.6667C13 12.9421 12.776 13.1667 12.5 13.1667Z" fill="#C1694F"/>
<path d="M12.6668 23.2921L12.0002 23.9994L11.3335 23.3328V21.3328H12.6668V23.2921Z" fill="#292F33"/>
<path d="M6 18.6667H8V24.0001H6V18.6667ZM16 18.6667H18V24.0001H16V18.6667Z" fill="#FFF75F"/>
<path d="M7.3335 18.6666C7.3335 19.3332 8.00016 20.6666 9.3335 21.9999C10.3882 23.0539 12.0002 23.9999 12.0002 23.9999C12.0002 21.9579 11.3335 21.3332 10.6668 20.6666C10.0002 19.9999 8.66683 19.3332 8.66683 17.9999C8.66683 17.3332 7.3335 18.6666 7.3335 18.6666ZM16.6668 18.6666C16.6668 19.3332 16.0002 20.6666 14.6668 21.9999C13.6135 23.0539 12.0002 23.9999 12.0002 23.9999C12.0002 21.9579 12.6668 21.3332 13.3335 20.6666C14.0002 19.9999 15.3335 19.3332 15.3335 17.9999C15.3335 17.3332 16.6668 18.6666 16.6668 18.6666Z" fill="#55ACEE"/>
<path d="M20 7.33333C18 6 19.328 4.554 18 2.66667C16.7513 0.891333 14.6667 0 11.9987 0C8.66666 0 7.24933 0.891333 6 2.66667C4.672 4.554 6 6 4 7.33333C2.75933 8.16 8 8.87533 12 8.87533C16 8.87533 21.2407 8.16 20 7.33333Z" fill="#FFF75F"/>
<path d="M10.6665 7.66659V0.0585938C10.4331 0.0799271 10.2111 0.107927 9.9998 0.14126V6.99526C8.60647 6.96193 6.5838 6.73126 4.8978 6.42659C4.7818 6.62459 4.62447 6.81993 4.41113 7.01126C6.35113 7.38859 8.80847 7.66659 10.3331 7.66659H10.6665ZM19.2365 6.63126C17.3345 6.83393 15.3438 6.97593 13.9998 6.99726V0.194594C13.7845 0.150594 13.5598 0.119927 13.3331 0.0912604V7.66659H13.6665C15.0118 7.66659 17.5305 7.49259 19.8591 7.22859C19.5911 7.03193 19.3871 6.83326 19.2365 6.63126Z" fill="#FFAC33"/>
</g>
<defs>
<clipPath id="clip0">
<rect width="24" height="24" fill="white"/>
</clipPath>
</defs>
</svg>
