<svg width="24" height="24" viewBox="0 0 24 24" fill="none" xmlns="http://www.w3.org/2000/svg">
<g clip-path="url(#clip0)">
<path d="M21.3332 24.0001V22.6667C21.3332 20.4574 19.5432 18.6667 17.3332 18.6667H6.6665C4.45784 18.6667 2.6665 20.4574 2.6665 22.6667V24.0001H21.3332Z" fill="#2A6797"/>
<path d="M12.002 10.0007C16.4202 10.0007 20.002 7.76216 20.002 5.00073C20.002 2.23931 16.4202 0.000732422 12.002 0.000732422C7.58368 0.000732422 4.00195 2.23931 4.00195 5.00073C4.00195 7.76216 7.58368 10.0007 12.002 10.0007Z" fill="#2A6797"/>
<path d="M9.09344 18.734C9.09344 18.734 10.9921 20.0427 12.0001 20.0427C13.0081 20.0427 14.9061 18.734 14.9061 18.734V16.1934H9.09277V18.734H9.09344Z" fill="#AF7E57"/>
<path d="M9.08807 17.3154C9.89874 18.2314 10.9041 18.4794 11.9974 18.4794C13.0901 18.4794 14.0947 18.2307 14.9061 17.3154V14.988H9.0874V17.3154H9.08807Z" fill="#9B6A49"/>
<path d="M7.62918 10.6239C7.62918 11.5892 7.13985 12.3719 6.53651 12.3719C5.93318 12.3719 5.44385 11.5892 5.44385 10.6239C5.44385 9.65858 5.93318 8.87524 6.53651 8.87524C7.13985 8.87458 7.62918 9.65791 7.62918 10.6239ZM18.5552 10.6239C18.5552 11.5892 18.0665 12.3719 17.4625 12.3719C16.8592 12.3719 16.3698 11.5892 16.3698 10.6239C16.3698 9.65858 16.8585 8.87524 17.4625 8.87524C18.0665 8.87458 18.5552 9.65791 18.5552 10.6239Z" fill="#AF7E57"/>
<path d="M6.31787 11.3059C6.31787 7.57993 8.86187 4.55859 11.9999 4.55859C15.1379 4.55859 17.6812 7.57993 17.6812 11.3059C17.6812 15.0319 15.1379 18.0533 11.9999 18.0533C8.86187 18.0533 6.31787 15.0326 6.31787 11.3059Z" fill="#AF7E57"/>
<path d="M11.9999 15.868C10.1639 15.868 9.59993 15.398 9.50593 15.3026C9.33526 15.132 9.33526 14.8553 9.50593 14.6846C9.67126 14.5193 9.9366 14.5146 10.1073 14.6693C10.1419 14.694 10.5879 14.994 11.9999 14.994C13.4666 14.994 13.8906 14.6706 13.8946 14.6673C14.0653 14.4973 14.3326 14.5053 14.5033 14.6773C14.6739 14.848 14.6646 15.1326 14.4939 15.3026C14.3999 15.398 13.8359 15.868 11.9999 15.868Z" fill="#915A34"/>
<path d="M11.9998 2.93726C15.7652 2.93726 18.1185 5.09859 18.1185 7.41392C18.1185 9.72926 17.6478 10.6559 17.1772 9.72926L16.2358 7.87726C16.2358 7.87726 13.4125 7.87726 12.4712 6.95059C12.4712 6.95059 13.8832 9.72926 11.0592 6.95059C11.0592 6.95059 11.5298 8.80326 8.70584 6.48792C8.70584 6.48792 7.29384 7.41392 6.82317 9.72926C6.6925 10.3719 5.88184 9.72926 5.88184 7.41392C5.88117 5.09859 7.76384 2.93726 11.9998 2.93726Z" fill="#60352A"/>
<path d="M9.33317 11.3333C8.9665 11.3333 8.6665 11.0333 8.6665 10.6666V9.99992C8.6665 9.63325 8.9665 9.33325 9.33317 9.33325C9.69984 9.33325 9.99984 9.63325 9.99984 9.99992V10.6666C9.99984 11.0333 9.69984 11.3333 9.33317 11.3333ZM14.6665 11.3333C14.2998 11.3333 13.9998 11.0333 13.9998 10.6666V9.99992C13.9998 9.63325 14.2998 9.33325 14.6665 9.33325C15.0332 9.33325 15.3332 9.63325 15.3332 9.99992V10.6666C15.3332 11.0333 15.0332 11.3333 14.6665 11.3333Z" fill="#60352A"/>
<path d="M12.5 13.1667H11.5C11.2247 13.1667 11 12.9421 11 12.6667C11 12.3914 11.2247 12.1667 11.5 12.1667H12.5C12.7753 12.1667 13 12.3914 13 12.6667C13 12.9421 12.7753 13.1667 12.5 13.1667Z" fill="#915A34"/>
<path d="M5.6665 5.33325V5.99992C5.6665 6.73659 8.50184 7.33325 11.9998 7.33325C15.4978 7.33325 18.3332 6.73659 18.3332 5.99992V5.33325H5.6665Z" fill="#2A6797"/>
<path d="M18.0008 5.33333V4C18.0008 4 15.5008 2.5 12.0001 2.5C8.50146 2.5 6.00146 4 6.00146 4V5.33333H18.0008Z" fill="#4289C1"/>
<path d="M18.3335 5.33325H5.66683C5.4835 5.33325 5.3335 5.48325 5.3335 5.66659C5.3335 5.84992 5.4835 5.99992 5.66683 5.99992H18.3335C18.5168 5.99992 18.6668 5.84992 18.6668 5.66659C18.6668 5.48325 18.5168 5.33325 18.3335 5.33325Z" fill="#FDCB58"/>
<path d="M13.2982 21.5179C13.8889 21.9326 14.5062 22.3479 14.7295 22.4373C14.7415 22.4419 14.7402 22.3639 14.7375 22.3613C13.4322 20.8333 12.0149 20.0053 12.0149 20.0053L12.0235 19.9993L12.0142 19.9999H11.9942L12.0015 20.0053C12.0015 20.0053 10.6082 20.8219 9.31152 22.3253C9.32019 22.3939 9.33619 22.4306 9.36219 22.4166C9.56019 22.3099 10.1455 21.9059 10.7155 21.5046C10.7415 21.5793 10.7675 21.6466 10.7902 21.6879C10.8942 21.8753 11.1422 22.2919 11.1422 22.2919C11.1422 22.2919 10.6402 22.6666 10.4522 24.0006H13.5635C13.3762 22.9373 12.8762 22.2919 12.8762 22.2919C12.8762 22.2919 13.1262 21.8753 13.2302 21.6879C13.2509 21.6486 13.2742 21.5873 13.2982 21.5179Z" fill="#193D59"/>
<path d="M12.0008 20.0053C12.0008 20.0053 11.9941 20.0013 11.9934 20C11.9108 19.944 9.23342 18.122 8.86142 17.75C8.68076 17.5693 8.21476 18.3533 8.22276 18.5553C8.25009 19.278 9.14676 22.5146 9.27809 22.3613L9.31076 22.3253C10.6074 20.8213 12.0008 20.0053 12.0008 20.0053ZM12.0141 20.0053C12.0141 20.0053 13.4314 20.8333 14.7368 22.3613C14.7394 22.3646 14.7441 22.358 14.7474 22.358C14.9054 22.3773 15.7654 19.2633 15.7921 18.5553C15.8001 18.3533 15.3334 17.5693 15.1534 17.75C14.7821 18.1213 12.1134 19.938 12.0228 19.9993L12.0141 20.0053Z" fill="#4289C1"/>
<path d="M12.0108 20.4586C11.6361 20.4792 11.0428 21.0859 11.1048 21.3439C11.3895 22.5339 11.6241 22.2186 12.0321 22.2186C12.3935 22.2186 12.6521 22.5099 12.9595 21.2912C13.0395 20.9726 12.2701 20.4432 12.0108 20.4586ZM12.0281 22.5552C11.0435 22.5552 10.6821 23.9999 10.6821 23.9999H13.3641C13.3648 23.9999 13.0128 22.5552 12.0281 22.5552Z" fill="#1E4B6E"/>
<path d="M13.4998 1.00073H13.4985C13.3432 1.0014 13.2098 1.07673 13.1185 1.18873C12.9312 1.23473 12.6738 1.24473 12.3472 1.1414C12.2565 1.0554 12.1352 1.00073 11.9998 1.00073C11.8658 1.00073 11.7438 1.0554 11.6538 1.14207C11.3265 1.2454 11.0692 1.2354 10.8825 1.1894C10.7905 1.0774 10.6572 1.0014 10.5018 1.0014H10.5005C10.2238 1.0014 10.0005 1.22473 10.0005 1.5014C10.0005 1.7774 10.2238 2.0014 10.5005 2.0014H10.5018C10.5018 4.0014 11.5005 4.5014 11.9998 4.5014C12.5005 4.5014 13.4985 4.0014 13.4985 2.0014H13.4998C13.7772 2.0014 14.0005 1.7774 14.0005 1.5014C14.0005 1.22407 13.7772 1.00073 13.4998 1.00073Z" fill="#FDCB58"/>
<path d="M7.64536 19.6081L3.69469 20.2334C3.51336 20.2621 3.34203 20.1374 3.31336 19.9561L3.20869 19.2974C3.18003 19.1168 3.30469 18.9454 3.48603 18.9168L7.43669 18.2914C7.61736 18.2628 7.78936 18.3881 7.81803 18.5681L7.92203 19.2268C7.95136 19.4074 7.82669 19.5788 7.64536 19.6081Z" fill="#4289C1"/>
<path d="M7.08322 19.3928C7.2953 19.3928 7.46722 19.2208 7.46722 19.0088C7.46722 18.7967 7.2953 18.6248 7.08322 18.6248C6.87114 18.6248 6.69922 18.7967 6.69922 19.0088C6.69922 19.2208 6.87114 19.3928 7.08322 19.3928Z" fill="white"/>
<path d="M16.3625 19.6081L20.3132 20.2334C20.4952 20.2621 20.6658 20.1374 20.6945 19.9561L20.7992 19.2974C20.8278 19.1168 20.7038 18.9454 20.5218 18.9168L16.5705 18.2914C16.3898 18.2628 16.2178 18.3881 16.1892 18.5681L16.0852 19.2268C16.0565 19.4074 16.1812 19.5788 16.3625 19.6081Z" fill="#4289C1"/>
<path d="M16.7942 19.3928C17.0062 19.3928 17.1782 19.2208 17.1782 19.0088C17.1782 18.7967 17.0062 18.6248 16.7942 18.6248C16.5821 18.6248 16.4102 18.7967 16.4102 19.0088C16.4102 19.2208 16.5821 19.3928 16.7942 19.3928Z" fill="white"/>
</g>
<defs>
<clipPath id="clip0">
<rect width="24" height="24" fill="white"/>
</clipPath>
</defs>
</svg>
