<svg width="24" height="24" viewBox="0 0 24 24" fill="none" xmlns="http://www.w3.org/2000/svg">
<path d="M4.13538 14.4273C4.08338 15.042 4.34938 15.226 4.76604 15.518C5.17804 15.8067 7.68804 13.6067 8.50871 13.272C9.32938 12.9373 17.0334 11.306 16.6994 9.81667C16.3654 8.32734 14.0374 8.10734 12.244 8.41134C10.4507 8.71534 7.01871 10.2927 6.01604 11.144C5.01338 11.9947 4.13538 14.4273 4.13538 14.4273ZM9.88338 15.4253C9.88338 15.4253 7.51204 16.1953 7.51204 18.1953C7.51204 20.1953 8.08938 21.3233 8.36271 21.8707C8.63671 22.4173 9.48804 22.948 10.666 22.438C12.034 21.8453 10.3387 18.4353 14.666 20.0007C16.6487 20.7173 18.7054 21.686 20.7054 21.0193C22.6027 20.3867 23.3334 18 23.3334 16.6667C23.3334 13.9373 21.3334 14.6667 20.6667 15.3333C20 16 14.6667 17.3333 14 17.3333C13.3334 17.3333 9.88338 15.4253 9.88338 15.4253Z" fill="#EF9645"/>
<path d="M12.8745 18.7919C12.8745 18.7919 12.7945 17.9146 11.9578 17.8126C11.2705 17.7293 10.1872 17.9586 9.62449 19.0833C9.06182 20.2086 8.06182 20.0206 8.10382 20.9579C8.14515 21.8953 8.43715 22.6246 9.04115 22.8119C9.64582 22.9999 10.4998 22.6666 10.6038 21.6666C10.7078 20.6666 10.8332 19.7499 11.4785 19.3539C12.1252 18.9586 12.8745 18.7919 12.8745 18.7919Z" fill="#F9CA55"/>
<path d="M12.0002 17.3334C12.0002 17.3334 11.3336 16.6667 10.0002 16.6667C8.6669 16.6667 5.55757 18.0887 6.50024 20.9167C7.1669 22.9167 9.0629 21.9794 9.33357 20.0001C9.6049 18.0181 12.0002 17.3334 12.0002 17.3334Z" fill="#EF9645"/>
<path d="M11.3334 17.3334C11.3334 17.3334 10.6667 16.6667 9.33341 16.6667C8.00008 16.6667 6.07675 17.6867 6.00008 20.6667C5.93741 23.1041 8.68741 22.0001 8.66675 20.0001C8.64608 18.0001 11.3334 17.3334 11.3334 17.3334Z" fill="#F9CA55"/>
<path d="M3.3335 18.0001C3.3335 20.1981 3.63816 21.5241 4.95216 21.2981C7.1315 20.9234 6.30416 18.2221 8.2115 17.4621C9.59616 16.9107 11.6122 17.0421 13.5582 18.1974C14.8402 18.9587 14.0002 16.0001 12.6668 15.3334C11.3335 14.6667 7.3335 15.3334 6.66683 15.3334C6.00016 15.3334 3.3335 18.0001 3.3335 18.0001Z" fill="#EF9645"/>
<path d="M3.22793 18.1159C2.16726 19.8926 2.81259 21.7293 4.66659 21.3333C6.46059 20.9506 5.56193 18.6199 7.33326 17.3333C8.32593 16.6119 10.4653 16.3699 11.7986 17.0366C13.1319 17.7033 13.3333 15.9999 11.9999 15.3333C10.6666 14.6666 6.30659 15.3166 5.64126 15.3579C4.36859 15.4373 3.22793 18.1159 3.22793 18.1159Z" fill="#F9CA55"/>
<path d="M6.27882 19.4092C5.82615 19.9279 5.03882 19.9819 4.51949 19.5292L4.38882 19.4152C3.86949 18.9626 3.81615 18.1759 4.26882 17.6566L19.2842 0.445235C19.7368 -0.0734319 20.5242 -0.127432 21.0435 0.325235L21.1735 0.439235C21.6928 0.891901 21.7462 1.67923 21.2942 2.1979L6.27882 19.4092Z" fill="#3BA09A"/>
<path d="M6.99329 18.5907C5.41995 20.3941 1.45129 23.9301 0.948621 23.4921C0.446621 23.0541 3.41062 18.6421 4.98395 16.8381C6.55729 15.0341 6.09129 16.4767 6.64596 16.9614C7.20062 17.4454 8.56662 16.7881 6.99329 18.5907Z" fill="#3BA09A"/>
<path d="M4.44824 16.6841C4.44824 17.3507 6.06224 17.9607 6.72891 17.2941C7.39558 16.6274 8.95624 15.8087 11.0082 16.6667C15.8109 18.6734 14.0002 16.0001 12.0002 15.3334C10.0002 14.6667 6.66691 15.3334 6.00024 15.3334C5.33358 15.3334 4.44824 16.6841 4.44824 16.6841Z" fill="#EF9645"/>
<path d="M4.13019 14.6954C3.89152 13.9534 5.58886 9.84273 6.35752 9.20606C7.32552 8.40473 11.0702 7.16406 12.4035 7.16406C13.7369 7.16406 23.3335 12.0001 23.3335 15.3334C23.3335 18.6667 22.0002 19.0834 20.0835 19.6041C18.5509 20.0207 15.3402 19.7654 13.9375 18.4581C12.7082 17.3127 11.8542 16.5207 10.6669 16.0001C8.46552 15.0347 6.99819 16.2827 6.33152 16.9494C4.99819 18.2827 2.48619 16.8434 4.58152 14.5627C6.08086 12.9301 7.40152 12.4214 8.66686 12.0001C12.6669 10.6667 15.3335 10.6667 14.0002 9.3334C13.5289 8.86206 13.2722 9.56406 12.6162 9.6834C11.2962 9.9234 10.2455 10.0847 8.50619 10.6647C7.90486 10.8647 5.05819 12.6801 4.13019 14.6954Z" fill="#FFDC5D"/>
<path d="M8.79732 10.8499C9.50666 10.5912 12.5987 10.0286 14.2073 9.47123C15.5067 9.02056 16.6467 9.89523 14.1807 10.8232C11.8007 11.7186 9.32799 11.6452 7.52466 12.3612C6.84266 12.6319 6.25132 11.7779 8.79732 10.8499Z" fill="#EF9645"/>
<path d="M14.9915 5.34863C14.9915 5.34863 11.0395 9.87863 9.36084 11.7893C10.8635 11.172 12.2082 11.2893 13.4928 10.5333C14.7775 9.77797 15.3635 8.97197 17.3128 6.73663C18.0368 5.9073 14.9915 5.34863 14.9915 5.34863Z" fill="#3BA09A"/>
</svg>
