<svg width="24" height="24" viewBox="0 0 24 24" fill="none" xmlns="http://www.w3.org/2000/svg">
<g clip-path="url(#clip0)">
<path d="M24.0002 24.0001V22.6667C24.0002 20.4574 22.2095 18.6667 20.0002 18.6667H9.3335C7.12483 18.6667 5.3335 20.4574 5.3335 22.6667V24.0001H24.0002Z" fill="#CCD6DD"/>
<path d="M11.7598 18.692C11.7598 20.5893 17.5731 20.6666 17.5731 18.692V16.1926H11.7598V18.692Z" fill="#F3D2A2"/>
<path d="M11.7546 17.3154C12.5652 18.2314 13.5706 18.4794 14.6639 18.4794C15.7566 18.4794 16.7612 18.2307 17.5726 17.3154V14.988H11.7539V17.3154H11.7546Z" fill="#E2C196"/>
<path d="M10.2962 10.6239C10.2962 11.5892 9.80684 12.3719 9.20351 12.3719C8.60017 12.3719 8.11084 11.5892 8.11084 10.6239C8.11084 9.65858 8.60017 8.87524 9.20351 8.87524C9.80684 8.87458 10.2962 9.65791 10.2962 10.6239ZM21.2222 10.6239C21.2222 11.5892 20.7335 12.3719 20.1295 12.3719C19.5262 12.3719 19.0368 11.5892 19.0368 10.6239C19.0368 9.65858 19.5255 8.87524 20.1295 8.87524C20.7335 8.87458 21.2222 9.65791 21.2222 10.6239Z" fill="#F3D2A2"/>
<path d="M8.98486 11.3059C8.98486 7.57993 11.5289 4.55859 14.6669 4.55859C17.8049 4.55859 20.3482 7.57993 20.3482 11.3059C20.3482 15.0319 17.8049 18.0533 14.6669 18.0533C11.5295 18.0533 8.98486 15.0326 8.98486 11.3059Z" fill="#F3D2A2"/>
<path d="M14.6664 15.868C12.8304 15.868 12.2664 15.398 12.1724 15.3026C12.0018 15.132 12.0018 14.8553 12.1724 14.6846C12.3378 14.5193 12.6031 14.5146 12.7738 14.6693C12.8084 14.694 13.2544 14.994 14.6664 14.994C16.1331 14.994 16.5571 14.6706 16.5611 14.6673C16.7318 14.4973 16.9991 14.5053 17.1698 14.6773C17.3404 14.848 17.3311 15.1326 17.1604 15.3026C17.0664 15.398 16.5024 15.868 14.6664 15.868Z" fill="#C1694F"/>
<path d="M14.6668 2.32007C18.4322 2.32007 20.7855 5.09874 20.7855 7.41407C20.7855 9.7294 20.3148 10.6561 19.8442 9.7294L18.9028 7.8774C18.9028 7.8774 16.0795 7.8774 15.1382 6.95074C15.1382 6.95074 16.5502 9.7294 13.7262 6.95074C13.7262 6.95074 14.1968 8.8034 11.3728 6.48807C11.3728 6.48807 9.96083 7.41407 9.49016 9.7294C9.35949 10.3721 8.54883 9.7294 8.54883 7.41407C8.54816 5.09874 10.4308 2.32007 14.6668 2.32007Z" fill="#FFE51E"/>
<path d="M12.0002 11.3333C11.6335 11.3333 11.3335 11.0333 11.3335 10.6666V9.99992C11.3335 9.63325 11.6335 9.33325 12.0002 9.33325C12.3668 9.33325 12.6668 9.63325 12.6668 9.99992V10.6666C12.6668 11.0333 12.3668 11.3333 12.0002 11.3333ZM17.3335 11.3333C16.9668 11.3333 16.6668 11.0333 16.6668 10.6666V9.99992C16.6668 9.63325 16.9668 9.33325 17.3335 9.33325C17.7002 9.33325 18.0002 9.63325 18.0002 9.99992V10.6666C18.0002 11.0333 17.7002 11.3333 17.3335 11.3333Z" fill="#662113"/>
<path d="M15.1665 13.1667H14.1665C13.8912 13.1667 13.6665 12.9421 13.6665 12.6667C13.6665 12.3914 13.8912 12.1667 14.1665 12.1667H15.1665C15.4418 12.1667 15.6665 12.3914 15.6665 12.6667C15.6665 12.9421 15.4418 13.1667 15.1665 13.1667Z" fill="#C1694F"/>
<path d="M8.6665 18.6667H10.6665V24.0001H8.6665V18.6667ZM18.6665 18.6667H20.6665V24.0001H18.6665V18.6667Z" fill="#226699"/>
<path d="M20 20.6667H9.33333L8.75 24.0001H20.6667L20 20.6667Z" fill="#226699"/>
<path d="M20.7041 6.33342C20.7041 7.21342 17.9761 6.33342 14.7041 6.33342C11.4314 6.33342 8.7041 7.21342 8.7041 6.33342C8.7041 3.96875 9.37077 0.666748 14.7041 0.666748C19.3708 0.666748 20.7041 3.96875 20.7041 6.33342Z" fill="#3B88C3"/>
<path d="M8.74065 6.33325C8.74065 6.33325 8.40732 8.33325 9.74065 8.33325C10.4073 8.33325 11.4073 6.99992 14.7406 6.99992C18.074 6.99992 19.074 8.33325 19.7406 8.33325C21.074 8.33325 20.7406 6.33325 20.7406 6.33325C20.7406 6.33325 19.7406 6.66659 14.7406 6.66659C9.74065 6.66659 8.74065 6.33325 8.74065 6.33325Z" fill="#226699"/>
<path d="M8.70403 6C8.70403 6 8.3707 8 9.70403 8C10.3707 8 11.3707 6.66667 14.704 6.66667C18.0374 6.66667 19.0374 8 19.704 8C21.0374 8 20.704 6 20.704 6C20.704 6 19.704 6.33333 14.704 6.33333C9.70403 6.33333 8.70403 6 8.70403 6Z" fill="#55ACEE"/>
<path d="M13.7041 1C13.7041 1 13.7041 0 14.7041 0C15.7041 0 15.7041 1 15.7041 1H13.7041Z" fill="#226699"/>
<path d="M18.5 23.3334C19.3284 23.3334 20 22.9603 20 22.5001C20 22.0398 19.3284 21.6667 18.5 21.6667C17.6716 21.6667 17 22.0398 17 22.5001C17 22.9603 17.6716 23.3334 18.5 23.3334Z" fill="#F5F8FA"/>
<path d="M4.66 12.9873L4.668 15.9266C4.668 16.2953 3.99733 16.5953 3.16867 16.5966C2.34067 16.5986 1.66867 16.3013 1.668 15.9333L1.66134 12.9946C0.674669 13.5326 -0.00133136 14.5673 1.96885e-06 15.7706C0.00466864 17.5186 1.42467 18.9346 3.174 18.9306C4.92334 18.926 6.338 17.5046 6.334 15.756C6.33067 14.5533 5.65 13.5213 4.66 12.9873Z" fill="#66757F"/>
<path d="M2.1665 18.2639H4.1665V23.9999H2.1665V18.2639Z" fill="#66757F"/>
</g>
<defs>
<clipPath id="clip0">
<rect width="24" height="24" fill="white"/>
</clipPath>
</defs>
</svg>
