<svg width="24" height="24" viewBox="0 0 24 24" fill="none" xmlns="http://www.w3.org/2000/svg">
<path d="M8.66667 2C4.98467 2 2 4.98467 2 8.66667V15.3333H4.66667V8.66667C4.66667 6.458 6.458 4.66667 8.66667 4.66667C10.8753 4.66667 12.6667 6.458 12.6667 8.66667V15.3333H15.3333V8.66667C15.3333 4.98467 12.3487 2 8.66667 2Z" fill="#B0BDC2"/>
<path d="M17.3333 21.3334C17.3333 22.8061 16.1393 24.0001 14.6667 24.0001H2.66667C1.194 24.0001 0 22.8061 0 21.3334V13.3334C0 11.8607 1.194 10.6667 2.66667 10.6667H14.6667C16.1393 10.6667 17.3333 11.8607 17.3333 13.3334V21.3334Z" fill="#FFDB21"/>
<path d="M23.3335 6C23.3335 2.686 20.6475 0 17.3335 0C14.0195 0 11.3335 2.686 11.3335 6C11.3335 8.61133 13.0048 10.8267 15.3335 11.6513V22.3333C15.3335 23.254 16.0795 24 17.0002 24C17.8088 24 18.4822 23.424 18.6335 22.66C18.6455 22.6607 18.6548 22.6667 18.6668 22.6667C19.0355 22.6667 19.3335 22.3687 19.3335 22V21.3333C19.3335 20.9647 19.0355 20.6667 18.6668 20.6667V20C19.0355 20 19.3335 19.702 19.3335 19.3333V18C19.3335 17.6313 19.0355 17.3333 18.6668 17.3333V15.8153C19.0642 15.584 19.3335 15.1593 19.3335 14.6667V11.6513C21.6622 10.8273 23.3335 8.612 23.3335 6ZM17.3335 1.33333C18.0695 1.33333 18.6668 1.93067 18.6668 2.66667C18.6668 3.40267 18.0695 4 17.3335 4C16.5975 4 16.0002 3.40267 16.0002 2.66667C16.0002 1.93067 16.5975 1.33333 17.3335 1.33333Z" fill="#667F8A"/>
</svg>
