<svg width="24" height="24" viewBox="0 0 24 24" fill="none" xmlns="http://www.w3.org/2000/svg">
<path d="M22.6667 21.9999C22.6667 22.7359 22.0693 23.3333 21.3333 23.3333H19.3333C18.5973 23.3333 18 22.7359 18 21.9999V16.6666C18 15.9306 18.5973 15.3333 19.3333 15.3333H21.3333C22.0693 15.3333 22.6667 15.9306 22.6667 16.6666V21.9999ZM6 21.9999C6 22.7359 5.40267 23.3333 4.66667 23.3333H2.66667C1.93067 23.3333 1.33333 22.7359 1.33333 21.9999V16.6666C1.33333 15.9306 1.93067 15.3333 2.66667 15.3333H4.66667C5.40267 15.3333 6 15.9306 6 16.6666V21.9999ZM3.33333 10.3333C3.33333 10.8859 2.886 11.3333 2.33333 11.3333H1C0.447333 11.3333 0 10.8859 0 10.3333C0 9.78059 0.447333 9.33325 1 9.33325H2.33333C2.886 9.33325 3.33333 9.78059 3.33333 10.3333ZM20.6667 10.3333C20.6667 10.8859 21.1147 11.3333 21.6667 11.3333H23C23.552 11.3333 24 10.8859 24 10.3333C24 9.78059 23.552 9.33325 23 9.33325H21.6667C21.1147 9.33325 20.6667 9.78059 20.6667 10.3333Z" fill="#667F8A"/>
<path d="M6.00016 3.33325C8.66683 2.66659 15.3335 2.66659 18.0002 3.33325C20.5875 3.97992 21.3335 10.6666 21.3335 10.6666C21.3335 10.6666 22.6668 10.6666 22.6668 13.3333V18.6666C22.6668 18.6666 22.6668 20.6666 20.6668 21.3333C18.0595 22.2026 15.3335 21.9999 12.0002 21.9999C8.66683 21.9999 5.9415 22.2026 3.3335 21.3333C1.3335 20.6666 1.3335 18.6666 1.3335 18.6666V13.3333C1.3335 13.3333 1.3335 10.6666 2.66683 10.6666C2.66683 10.6666 3.4135 3.97992 6.00016 3.33325Z" fill="#D5DDE0"/>
<path d="M12.0002 14C8.18816 14 4.57616 13.9326 1.3335 13.814V18.6666C1.3335 18.6666 1.3335 20.6666 3.3335 21.3333C5.9415 22.2026 8.66683 22 12.0002 22C15.3335 22 18.0595 22.2026 20.6668 21.3333C22.6668 20.6666 22.6668 18.6666 22.6668 18.6666V13.814C19.4242 13.9326 15.8122 14 12.0002 14Z" fill="#1F323F"/>
<path d="M12 10.0001C14.6033 10.0001 17.7487 10.1334 20 10.3741L19.3333 6.66675C18.6667 4.66675 14.6667 4.66675 12 4.66675C9.33333 4.66675 5.33333 4.66675 4.66667 6.66675L4 10.3741C6.25133 10.1334 9.39667 10.0001 12 10.0001Z" fill="#55ACEE"/>
<path d="M7.99984 16.0001C7.99984 16.7361 7.4025 17.3334 6.6665 17.3334H3.99984C3.26384 17.3334 2.6665 16.7361 2.6665 16.0001C2.6665 15.2641 3.26384 14.6667 3.99984 14.6667H6.6665C7.4025 14.6667 7.99984 15.2641 7.99984 16.0001ZM15.9998 16.0001C15.9998 16.7361 16.5972 17.3334 17.3332 17.3334H19.9998C20.7358 17.3334 21.3332 16.7361 21.3332 16.0001C21.3332 15.2641 20.7358 14.6667 19.9998 14.6667H17.3332C16.5972 14.6667 15.9998 15.2641 15.9998 16.0001Z" fill="#B0BDC2"/>
<path d="M19.3332 19C19.3332 19.552 18.8852 20 18.3332 20H5.6665C5.11384 20 4.6665 19.552 4.6665 19C4.6665 18.448 5.11384 18 5.6665 18H18.3332C18.8852 18 19.3332 18.448 19.3332 19Z" fill="#66757F"/>
<path d="M7.99939 14.0001C7.89939 14.0001 7.79739 13.9774 7.70206 13.9301L3.70206 11.9301C3.37273 11.7654 3.23939 11.3647 3.40406 11.0354C3.56873 10.7061 3.96806 10.5714 4.29873 10.7374L8.29873 12.7374C8.62806 12.9021 8.76139 13.3027 8.59673 13.6321C8.47939 13.8654 8.24406 14.0001 7.99939 14.0001ZM16.0007 14.0001C15.7561 14.0001 15.5207 13.8654 15.4034 13.6314C15.2387 13.3021 15.3721 12.9014 15.7014 12.7367L19.7014 10.7367C20.0307 10.5727 20.4307 10.7061 20.5961 11.0347C20.7607 11.3641 20.6274 11.7647 20.2981 11.9294L16.2981 13.9294C16.2027 13.9774 16.1007 14.0001 16.0007 14.0001Z" fill="#99AAB5"/>
<path d="M12.0002 2.33325C12.0002 2.88592 11.5528 3.33325 11.0002 3.33325H6.3335C5.78083 3.33325 5.3335 2.88592 5.3335 2.33325C5.3335 1.78059 5.78083 1.33325 6.3335 1.33325H11.0002C11.5528 1.33325 12.0002 1.78059 12.0002 2.33325Z" fill="#E14554"/>
<path d="M18.6667 2.33325C18.6667 2.88592 18.2187 3.33325 17.6667 3.33325H13C12.4473 3.33325 12 2.88592 12 2.33325C12 1.78059 12.4473 1.33325 13 1.33325H17.6667C18.2187 1.33325 18.6667 1.78059 18.6667 2.33325Z" fill="#459CEC"/>
<path d="M10.6665 1.33325H13.3332V3.33325H10.6665V1.33325Z" fill="#F8FAFB"/>
</svg>
