<svg width="24" height="24" viewBox="0 0 24 24" fill="none" xmlns="http://www.w3.org/2000/svg">
<g clip-path="url(#clip0)">
<path d="M5.67578 13.2187L12.7478 6.14868L14.1618 7.56268L7.08978 14.6333L5.67578 13.2187Z" fill="#99AAB5"/>
<path d="M5.67691 19.8187C5.15624 20.3393 4.31224 20.3393 3.79157 19.8187L0.491574 16.5193C-0.0290925 15.9987 -0.0290925 15.154 0.491574 14.634L3.79157 11.3333C4.31224 10.8127 5.15624 10.8127 5.67691 11.3333L8.97691 14.6333C9.49757 15.1533 9.49757 15.998 8.97691 16.5187L5.67691 19.8187ZM16.5182 8.97666C15.9982 9.49733 15.1536 9.49733 14.6336 8.97666L11.3336 5.67666C10.8129 5.156 10.8129 4.312 11.3336 3.79133L14.6342 0.49133C15.1549 -0.0293366 15.9989 -0.0293366 16.5196 0.49133L19.8189 3.79133C20.3396 4.312 20.3396 5.156 19.8196 5.67666L16.5182 8.97666Z" fill="#6AC8C2"/>
<path d="M8.2693 6.85534L7.32663 4.02667C7.02796 3.132 6.3833 3.08334 5.91196 3.55467L4.02663 5.44067C3.55463 5.912 3.6033 6.55667 4.49796 6.85534L7.32663 7.798L8.2693 6.85534Z" fill="#8A9AA1"/>
<path d="M11.8054 14.6328C11.2841 15.1534 10.4401 15.1534 9.91944 14.6334L5.20544 9.91944C4.68477 9.39877 4.68477 8.55411 5.20544 8.03344L8.03344 5.20544C8.55411 4.68477 9.39878 4.68477 9.91944 5.20544L14.6334 9.91944C15.1534 10.4401 15.1534 11.2841 14.6328 11.8054L11.8054 14.6328Z" fill="#D5DDE0"/>
<path d="M14.0107 14.0365C12.7093 15.3385 10.8093 15.5492 9.76801 14.5085C8.72668 13.4672 10.352 12.9819 11.654 11.6799C12.956 10.3779 13.4413 8.7532 14.4827 9.79387C15.5233 10.8352 15.3127 12.7345 14.0107 14.0365Z" fill="#D5DDE0"/>
<path d="M18.6399 13.4547C17.2266 12.0401 15.2279 12.1541 13.9259 13.4547C12.6246 14.7574 12.5119 16.7547 13.9259 18.1687L18.6399 13.4547ZM16.7546 15.3407L18.1686 17.6974L15.8119 16.2834L16.7546 15.3407Z" fill="#8A9AA1"/>
<path d="M18.542 18.0708C18.2813 18.3315 17.86 18.3315 17.5993 18.0708C17.3386 17.8101 17.3386 17.3888 17.5993 17.1281C17.86 16.8675 18.2813 16.8675 18.542 17.1281C18.8026 17.3888 18.8026 17.8108 18.542 18.0708Z" fill="#B0BDC2"/>
<path d="M2.8469 12.2775L3.7909 11.3335L8.9769 16.5181L8.03423 17.4615L2.8469 12.2775ZM11.3336 3.79079L12.2762 2.84812L17.4616 8.03345L16.5189 8.97612L11.3336 3.79079ZM0.490234 14.6348L1.4329 13.6915L6.61957 18.8755L5.6769 19.8181L0.490234 14.6348ZM13.6889 1.43479L14.6309 0.491455L19.8182 5.67479L18.8762 6.61745L13.6889 1.43479Z" fill="#B5E3E1"/>
<path d="M5.53782 5.06729C5.27782 5.32729 4.85582 5.32729 4.59515 5.06729C4.33449 4.80662 4.33515 4.38462 4.59515 4.12396C4.85582 3.86396 5.27715 3.86396 5.53782 4.12396C5.79849 4.38462 5.79849 4.80662 5.53782 5.06729Z" fill="#8A9AA1"/>
<path d="M15.7881 20.2874L15.7894 20.2534C15.8074 19.8854 16.1208 19.6021 16.4888 19.6207C16.4994 19.6214 17.9261 19.6627 19.0221 18.5674C20.1134 17.4754 20.0741 16.0527 20.0754 16.0334C20.0534 15.6667 20.3401 15.3527 20.7074 15.3341C21.0754 15.3161 21.3888 15.5987 21.4068 15.9667C21.4148 16.0481 21.4888 17.9854 19.9648 19.5094C18.4394 21.0341 16.5041 20.9561 16.4221 20.9521C16.0654 20.9341 15.7881 20.6401 15.7881 20.2874Z" fill="#E14554"/>
<path d="M16.1587 22.6594C16.1587 22.5867 16.1707 22.512 16.1967 22.4394C16.318 22.092 16.698 21.9087 17.0454 22.0307C17.1167 22.0534 18.9634 22.626 21.0214 20.5674C23.106 18.4834 22.6307 16.4834 22.6094 16.3994C22.518 16.0467 22.732 15.6814 23.0867 15.5887C23.44 15.4954 23.802 15.7034 23.898 16.056C23.9287 16.1694 24.616 18.8594 21.9647 21.51C19.2887 24.1874 16.714 23.3274 16.606 23.2887C16.3307 23.1927 16.1587 22.9347 16.1587 22.6594Z" fill="#E14554"/>
</g>
<defs>
<clipPath id="clip0">
<rect width="24" height="24" fill="white"/>
</clipPath>
</defs>
</svg>
