<svg width="27" height="26" viewBox="0 0 27 26" fill="none" xmlns="http://www.w3.org/2000/svg">
<g clip-path="url(#clip0)">
<path d="M26.4998 18.7778C26.4998 20.3732 25.2063 21.6667 23.6109 21.6667H6.27756C4.68217 21.6667 3.38867 20.3732 3.38867 18.7778V4.55939C3.38867 2.964 7.57106 0 9.16645 0H22.6178C24.8524 0 26.4998 1.66978 26.4998 3.88194V18.7778Z" fill="#3BA09A"/>
<path d="M25.0557 21.6667C25.0557 23.2621 23.7622 24.5556 22.1668 24.5556H7.72239C6.127 24.5556 4.8335 23.2621 4.8335 21.6667V4.33336C4.8335 1.35853 4.81833 1.44447 8.44461 1.44447H22.1668C23.7622 1.44447 25.0557 2.73797 25.0557 4.33336V21.6667Z" fill="#D5DDE0"/>
<path d="M23.6109 22.3889C23.6109 23.5856 22.641 24.5556 21.4442 24.5556H5.55534C4.35862 24.5556 3.38867 23.5856 3.38867 22.3889V5.05558C3.38867 3.85886 4.35862 2.88892 5.55534 2.88892H21.4442C22.641 2.88892 23.6109 3.85886 23.6109 5.05558V22.3889Z" fill="#B0BDC2"/>
<path d="M23.6113 23.1112C23.6113 24.7065 22.3178 26 20.7224 26H7.00022C5.40483 26 4.11133 24.7065 4.11133 23.1112V7.22226C4.11133 5.62687 5.40483 4.33337 7.00022 4.33337H20.7224C22.3178 4.33337 23.6113 5.62687 23.6113 7.22226V23.1112Z" fill="#3BA09A"/>
<path d="M22.1669 23.1112C22.1669 24.7066 20.8734 26.0001 19.278 26.0001H7.00022C5.40483 26.0001 4.11133 24.7066 4.11133 23.1112V8.66672C4.11133 7.07133 5.40483 5.77783 7.00022 5.77783H19.5199C21.1153 5.77783 22.1669 6.82939 22.1669 8.42478V23.1112Z" fill="#6AC8C2"/>
<path d="M6.99978 4.33333C5.78067 4.33333 5.74962 2.94522 6.27756 2.34722C6.87845 1.66761 7.81228 1.44444 9.48278 1.44444H10.6109V0H8.64717C5.78067 0 3.38867 1.80556 3.38867 3.88194V23.1111C3.38867 24.7065 4.68217 26 6.27756 26H7.722V4.33333H6.99978Z" fill="#3BA09A"/>
<path d="M6.66908 23.8182C6.66908 24.3252 6.18736 24.7362 5.59297 24.7362C4.9993 24.7362 4.51758 24.3252 4.51758 23.8182C4.51758 23.3119 4.9993 22.9003 5.59297 22.9003C6.18736 22.9003 6.66908 23.3112 6.66908 23.8182Z" fill="#5C6B70"/>
<path d="M5.47911 23.3069C5.13245 23.3466 4.90711 23.5777 4.74461 23.8334C4.52289 24.1837 4.01734 24.5556 3.389 24.5556C2.59167 24.5556 1.94456 24.071 1.94456 23.4723C1.94456 22.8736 2.59167 22.3889 3.389 22.3889V20.9474C1.82395 20.9626 0.560059 22.0849 0.560059 23.4723C0.560059 24.8691 1.83984 26.0001 3.41861 26.0001C4.75761 26.0001 5.83589 25.2453 6.236 24.1447C6.43606 23.5965 5.89728 23.2607 5.47911 23.3069Z" fill="#7B8A8E"/>
<path d="M6.66908 18.0404C6.66908 18.5474 6.18736 18.9583 5.59297 18.9583C4.9993 18.9583 4.51758 18.5474 4.51758 18.0404C4.51758 17.5341 4.9993 17.1224 5.59297 17.1224C6.18736 17.1224 6.66908 17.5334 6.66908 18.0404Z" fill="#5C6B70"/>
<path d="M5.47911 17.5291C5.13245 17.5688 4.90711 17.7999 4.74461 18.0556C4.52289 18.4058 4.01734 18.7778 3.389 18.7778C2.59167 18.7778 1.94456 18.2932 1.94456 17.6944C1.94456 17.0957 2.59167 16.6111 3.389 16.6111V15.1696C1.82395 15.1847 0.560059 16.3071 0.560059 17.6944C0.560059 19.0912 1.83984 20.2222 3.41861 20.2222C4.75761 20.2222 5.83589 19.4675 6.236 18.3668C6.43606 17.8187 5.89728 17.4828 5.47911 17.5291Z" fill="#7B8A8E"/>
<path d="M6.66908 12.2627C6.66908 12.7697 6.18736 13.1806 5.59297 13.1806C4.9993 13.1806 4.51758 12.7697 4.51758 12.2627C4.51758 11.7564 4.9993 11.3447 5.59297 11.3447C6.18736 11.3447 6.66908 11.7557 6.66908 12.2627Z" fill="#5C6B70"/>
<path d="M5.47911 11.7513C5.13245 11.7911 4.90711 12.0222 4.74461 12.2778C4.52289 12.6281 4.01734 13.0001 3.389 13.0001C2.59167 13.0001 1.94456 12.5155 1.94456 11.9167C1.94456 11.318 2.59167 10.8334 3.389 10.8334V9.39185C1.82395 9.40701 0.560059 10.5293 0.560059 11.9167C0.560059 13.3135 1.83984 14.4445 3.41861 14.4445C4.75761 14.4445 5.83589 13.6898 6.236 12.5891C6.43606 12.041 5.89728 11.7051 5.47911 11.7513Z" fill="#7B8A8E"/>
<path d="M6.66908 6.48484C6.66908 6.99184 6.18736 7.40278 5.59297 7.40278C4.9993 7.40278 4.51758 6.99184 4.51758 6.48484C4.51758 5.97856 4.9993 5.56689 5.59297 5.56689C6.18736 5.56689 6.66908 5.97784 6.66908 6.48484Z" fill="#5C6B70"/>
<path d="M5.47911 5.97351C5.13245 6.01324 4.90711 6.24435 4.74461 6.50001C4.52289 6.85029 4.01734 7.22224 3.389 7.22224C2.59167 7.22224 1.94456 6.73762 1.94456 6.1389C1.94456 5.54018 2.59167 5.05557 3.389 5.05557V3.61401C1.82467 3.62846 0.560059 4.75151 0.560059 6.1389C0.560059 7.53568 1.83984 8.66668 3.41861 8.66668C4.75761 8.66668 5.83589 7.91196 6.236 6.81129C6.43606 6.26312 5.89728 5.92729 5.47911 5.97351Z" fill="#7B8A8E"/>
</g>
<defs>
<clipPath id="clip0">
<rect width="26" height="26" fill="white" transform="translate(0.5)"/>
</clipPath>
</defs>
</svg>
