<svg width="24" height="24" viewBox="0 0 24 24" fill="none" xmlns="http://www.w3.org/2000/svg">
<path d="M24 10C24 11.4727 22.806 12.6667 21.3333 12.6667H2.66667C1.194 12.6667 0 11.4727 0 10V4.66667C0 3.194 1.194 2 2.66667 2H21.3333C22.806 2 24 3.194 24 4.66667V10Z" fill="#FFDB21"/>
<path d="M4 2H2.66667C1.194 2 0 3.194 0 4.66667V6L4 2ZM8 2L0 10C0 10.9067 0.454667 11.7053 1.14667 12.1867L11.3333 2H8ZM4.66667 12.6667H8L18.6667 2H15.3333L4.66667 12.6667ZM15.3333 12.6667L23.928 4.072C23.7407 3.252 23.1773 2.57867 22.4267 2.24L12 12.6667H15.3333ZM24 10V8L19.3333 12.6667H21.3333C22.806 12.6667 24 11.4727 24 10Z" fill="#1F323F"/>
<path d="M2.6665 12.6667H5.99984V22.0001H2.6665V12.6667ZM17.9998 12.6667H21.3332V22.0001H17.9998V12.6667Z" fill="#8A9AA1"/>
</svg>
