<svg width="24" height="24" viewBox="0 0 24 24" fill="none" xmlns="http://www.w3.org/2000/svg">
<path d="M8.60532 20.5001C8.42132 21.9727 7.07799 22.5001 5.60532 22.5001C4.13266 22.5001 3.08799 21.3061 3.27199 19.8334L3.93866 13.8334C4.12266 12.3607 5.46599 11.1667 6.93866 11.1667C8.41132 11.1667 11.2507 11.1667 9.27199 13.8334C7.29332 16.5001 8.60532 20.5001 8.60532 20.5001Z" fill="#972136"/>
<path d="M23.8835 9.83333C23.8835 14.4347 22.8542 18.1667 21.5835 18.1667C20.3135 18.1667 7.9502 14.4347 7.9502 9.83333C7.9502 5.23133 20.3135 1.5 21.5835 1.5C22.8542 1.5 23.8835 5.23133 23.8835 9.83333Z" fill="#D5DDE0"/>
<path d="M21.5832 18.1667C22.8535 18.1667 23.8832 14.4357 23.8832 9.83333C23.8832 5.23096 22.8535 1.5 21.5832 1.5C20.3129 1.5 19.2832 5.23096 19.2832 9.83333C19.2832 14.4357 20.3129 18.1667 21.5832 18.1667Z" fill="#667F8A"/>
<path d="M11.95 14.5001L2.6167 13.8334C-0.716634 13.8334 -0.716634 5.83341 2.6167 5.83341L11.95 5.16675C9.95003 7.16675 9.95003 12.5001 11.95 14.5001Z" fill="#E14554"/>
<path d="M20.8833 12.7319C21.4356 12.7319 21.8833 11.4341 21.8833 9.83324C21.8833 8.23235 21.4356 6.93457 20.8833 6.93457C20.331 6.93457 19.8833 8.23235 19.8833 9.83324C19.8833 11.4341 20.331 12.7319 20.8833 12.7319Z" fill="#8A9AA1"/>
</svg>
