<svg width="24" height="24" viewBox="0 0 24 24" fill="none" xmlns="http://www.w3.org/2000/svg">
<path d="M20.6668 24V21.6667C20.6668 19.4573 18.2102 18 16.0002 18H8.00016C5.7915 18 3.3335 19.4573 3.3335 21.6667V24H20.6668Z" fill="#F2760F"/>
<path d="M11.9635 3.37939C14.7002 3.37939 19.2615 4.74806 19.2615 10.6774C19.2615 16.6081 19.2615 17.9761 17.8928 17.9761C16.5242 17.9761 14.6995 16.6074 11.9628 16.6074C9.22617 16.6074 7.4395 17.9761 6.03284 17.9761C4.50817 17.9761 4.66417 12.5021 4.66417 10.6774C4.66484 4.74806 9.22684 3.37939 11.9635 3.37939ZM9.3335 18.0001H14.6668C14.6668 18.0001 13.9882 21.3334 12.0002 21.3334C10.0122 21.3334 9.3335 18.0001 9.3335 18.0001Z" fill="#292F33"/>
<path d="M8.6665 18H15.3332V20.6667H8.6665V18Z" fill="#292F33"/>
<path d="M9.55176 18.012C10.5291 18.722 11.5278 18.6654 11.9998 18.6654C12.4718 18.6654 13.4624 18.722 14.4398 18.012V15.8767H9.55176V18.012Z" fill="#F7DECE"/>
<path d="M9.54785 16.7859C10.2292 17.5559 11.0745 17.7646 11.9932 17.7646C12.9125 17.7646 13.7579 17.5566 14.4399 16.7859V14.8286H9.54785V16.7859Z" fill="#EEC2AD"/>
<path d="M6.48926 10.4788C6.48926 6.58943 8.93992 3.43677 11.9633 3.43677C14.9853 3.43677 17.4359 6.58943 17.4359 10.4788C17.4359 14.3674 14.9853 17.3354 11.9633 17.3354C8.93992 17.3354 6.48926 14.3674 6.48926 10.4788Z" fill="#F7DECE"/>
<path d="M11.9635 15.6954C10.8929 15.6954 10.3322 15.1661 10.2722 15.1054C10.0935 14.9274 10.0935 14.6387 10.2722 14.4607C10.4495 14.2841 10.7335 14.2827 10.9129 14.4561C10.9362 14.4774 11.2802 14.7834 11.9635 14.7834C12.6555 14.7834 13.0002 14.4681 13.0142 14.4554C13.1962 14.2847 13.4829 14.2901 13.6562 14.4687C13.8295 14.6481 13.8295 14.9294 13.6535 15.1054C13.5942 15.1661 13.0342 15.6954 11.9635 15.6954Z" fill="#DF1F32"/>
<path d="M5.14992 12.6667C5.13592 12 5.12059 12.5174 5.12059 12.3567C5.12059 10.0754 6.48926 12.686 6.48926 11.0614C6.48926 9.43538 7.40126 9.27271 8.31326 8.36071C8.76993 7.90404 9.68192 7.01004 9.68192 7.01004C9.68192 7.01004 11.9626 8.38804 13.7873 8.38804C15.6113 8.38804 17.4366 9.30471 17.4366 11.1294C17.4366 12.9534 18.8053 10.0734 18.8053 12.354C18.8053 12.5167 18.7899 12 18.7786 12.6667H19.2579C19.2619 11.3334 19.2619 11.384 19.2619 10.532C19.2619 4.60204 14.7006 2.39404 11.9633 2.39404C9.22726 2.39404 4.66526 4.56538 4.66526 10.4954C4.66526 11.024 4.65192 11.3334 4.67059 12.6667H5.14992Z" fill="#292F33"/>
<path d="M9.7388 11.9247C9.4288 11.9247 9.1748 11.6707 9.1748 11.36V10.7967C9.1748 10.4867 9.4288 10.2327 9.7388 10.2327C10.0495 10.2327 10.3035 10.4867 10.3035 10.7967V11.36C10.3035 11.6707 10.0495 11.9247 9.7388 11.9247ZM14.2488 11.9247C13.9388 11.9247 13.6848 11.6707 13.6848 11.36V10.7967C13.6848 10.4867 13.9388 10.2327 14.2488 10.2327C14.5588 10.2327 14.8128 10.4867 14.8128 10.7967V11.36C14.8128 11.6707 14.5588 11.9247 14.2488 11.9247Z" fill="#662113"/>
<path d="M12.5571 13.6667H11.4304C11.2751 13.6667 11.1484 13.54 11.1484 13.3847V13.2827C11.1484 13.1273 11.2744 13 11.4304 13H12.5571C12.7124 13 12.8398 13.1267 12.8398 13.2827V13.3847C12.8398 13.54 12.7124 13.6667 12.5571 13.6667Z" fill="#C1694F"/>
<path d="M7.62918 10.6239C7.62918 11.5892 7.13985 12.3719 6.53651 12.3719C5.93318 12.3719 5.44385 11.5892 5.44385 10.6239C5.44385 9.65858 5.93318 8.87524 6.53651 8.87524C7.13985 8.87458 7.62918 9.65791 7.62918 10.6239ZM18.5552 10.6239C18.5552 11.5892 18.0665 12.3719 17.4625 12.3719C16.8592 12.3719 16.3698 11.5892 16.3698 10.6239C16.3698 9.65858 16.8585 8.87524 17.4625 8.87524C18.0665 8.87458 18.5552 9.65791 18.5552 10.6239Z" fill="#F7DECE"/>
<path d="M12.6665 23.2921L11.9998 23.9994L11.3332 23.3327L10.6665 20.6667H12.9998L12.6665 23.2921Z" fill="#292F33"/>
<path d="M16 18H18V24H16V18ZM6 18H8V24H6V18Z" fill="#FFF75F"/>
<path d="M7 17.9999C7 18.7119 8 20.4413 9.33333 21.8653C10.3873 22.9899 12 23.9999 12 23.9999C12 21.8193 11.3333 21.1533 10.6667 20.4413C10 19.7306 8.66667 19.4239 8.66667 17.9999C8.66667 17.2893 7 17.9999 7 17.9999ZM17 17.9999C17 18.7119 16 20.4413 14.6667 21.8653C13.6127 22.9899 12 23.9999 12 23.9999C12 21.8193 12.6667 21.1533 13.3333 20.4413C14 19.7306 15.3333 19.4239 15.3333 17.9999C15.3333 17.2893 17 17.9999 17 17.9999Z" fill="#55ACEE"/>
<path d="M20 7.33333C18 6 19.328 4.554 18 2.66667C16.7513 0.891333 14.6667 0 11.9987 0C8.66666 0 7.24933 0.891333 6 2.66667C4.672 4.554 6 6 4 7.33333C2.75933 8.16 8 8.87533 12 8.87533C16 8.87533 21.2407 8.16 20 7.33333Z" fill="#FFF75F"/>
<path d="M10.6665 7.66659V0.0585938C10.4331 0.0799271 10.2111 0.107927 9.9998 0.14126V6.99526C8.60647 6.96193 6.5838 6.73126 4.8978 6.42659C4.7818 6.62459 4.62447 6.81993 4.41113 7.01126C6.35113 7.38859 8.80847 7.66659 10.3331 7.66659H10.6665ZM19.2365 6.63126C17.3345 6.83393 15.3438 6.97593 13.9998 6.99726V0.194594C13.7845 0.150594 13.5598 0.119927 13.3331 0.0912604V7.66659H13.6665C15.0118 7.66659 17.5305 7.49259 19.8591 7.22859C19.5911 7.03193 19.3871 6.83326 19.2365 6.63126Z" fill="#FFAC33"/>
</svg>
