<svg width="24" height="24" viewBox="0 0 24 24" fill="none" xmlns="http://www.w3.org/2000/svg">
<path d="M12 24C18.6274 24 24 18.6274 24 12C24 5.37258 18.6274 0 12 0C5.37258 0 0 5.37258 0 12C0 18.6274 5.37258 24 12 24Z" fill="#DEF4F3"/>
<path d="M17.1439 1.17065C16.4626 1.54932 15.8959 2.18932 15.1253 1.95799C13.8753 1.58332 12.2086 0.749988 11.1253 1.79132C10.0419 2.83265 9.79193 3.79132 11.1253 3.74999C12.4586 3.70865 13.3753 2.12465 14.0419 2.79132C14.7086 3.45799 14.5413 3.99999 12.9586 4.20799C11.3759 4.41599 9.66659 4.66665 8.74993 4.66665C7.83326 4.66665 7.62459 5.20799 8.24993 5.79199C8.87526 6.37599 7.8746 6.41665 6.83326 6.99999C5.79193 7.58332 7.08326 7.83332 7.95859 8.33332C8.83393 8.83332 9.49993 8.20799 9.87526 7.37465C10.2506 6.54132 11.8626 5.54132 12.5353 5.66665C13.2086 5.79199 13.2086 6.12532 13.0833 6.70799C12.9579 7.29065 13.5833 7.12465 13.6246 6.45799C13.6659 5.79132 14.4166 5.29132 14.9993 5.24999C15.5819 5.20865 16.0826 6.04199 15.4159 6.45799C14.7493 6.87399 14.0826 7.20799 14.9159 7.41665C15.7493 7.62532 16.3326 8.70865 15.3746 9.16665C14.4166 9.62465 12.7499 9.91665 11.9999 9.54132C11.2499 9.16599 9.54126 8.62465 9.08326 8.91599C8.62526 9.20732 8.37526 9.50932 7.83326 9.71265C7.29193 9.91599 5.08326 10.916 5.04126 12.208C4.99926 13.5 4.95859 14.9587 5.83326 15C6.70793 15.0413 8.83326 14.4587 9.49993 13.9167C10.1666 13.3747 11.0833 13.5 11.3746 14.1247C11.6659 14.7493 11.4579 15.1247 11.1666 16.1247C10.8753 17.1247 11.3573 17.6247 11.8246 18.4993C12.2919 19.374 12.6666 19.874 12.6666 20.4993C12.6666 21.1247 13.3333 21.7493 14.3333 20.7073C15.3333 19.6653 16.2499 17.624 16.6666 16.874C17.0833 16.124 17.4166 14.4573 17.9166 14.124C18.4166 13.7907 19.2086 12.9987 18.6246 13.124C18.0406 13.2493 16.8746 13.0827 16.5833 12.2493C16.2919 11.416 15.0419 9.83265 15.6246 9.66599C16.2073 9.49932 16.8746 10.5927 17.1246 11.1087C17.3746 11.6247 17.7079 12.2493 18.2079 12.416C18.7079 12.5827 19.7913 11.3007 20.1246 11.1087C20.4579 10.916 20.2079 10.1247 19.5413 10.208C18.8746 10.2913 17.9999 10.208 17.9999 9.79199C17.9999 9.37599 18.8333 8.83332 19.4999 8.95865C20.1666 9.08399 20.6666 9.29199 21.0833 9.79199C21.4999 10.292 22.3333 11.2087 22.6666 11.792C22.9999 12.3753 23.2499 12.4587 23.4166 11.4173C23.5273 10.7253 23.6746 10.3447 23.8099 9.93599C23.1346 6.04999 20.5966 2.81399 17.1439 1.17065Z" fill="#348D88"/>
</svg>
